%TF.GenerationSoftware,KiCad,Pcbnew,6.0.2*%
%TF.CreationDate,2022-03-12T22:23:20+01:00*%
%TF.ProjectId,batteryController,62617474-6572-4794-936f-6e74726f6c6c,rev?*%
%TF.SameCoordinates,Original*%
%TF.FileFunction,Copper,L2,Bot*%
%TF.FilePolarity,Positive*%
%FSLAX46Y46*%
G04 Gerber Fmt 4.6, Leading zero omitted, Abs format (unit mm)*
G04 Created by KiCad (PCBNEW 6.0.2) date 2022-03-12 22:23:20*
%MOMM*%
%LPD*%
G01*
G04 APERTURE LIST*
G04 Aperture macros list*
%AMRoundRect*
0 Rectangle with rounded corners*
0 $1 Rounding radius*
0 $2 $3 $4 $5 $6 $7 $8 $9 X,Y pos of 4 corners*
0 Add a 4 corners polygon primitive as box body*
4,1,4,$2,$3,$4,$5,$6,$7,$8,$9,$2,$3,0*
0 Add four circle primitives for the rounded corners*
1,1,$1+$1,$2,$3*
1,1,$1+$1,$4,$5*
1,1,$1+$1,$6,$7*
1,1,$1+$1,$8,$9*
0 Add four rect primitives between the rounded corners*
20,1,$1+$1,$2,$3,$4,$5,0*
20,1,$1+$1,$4,$5,$6,$7,0*
20,1,$1+$1,$6,$7,$8,$9,0*
20,1,$1+$1,$8,$9,$2,$3,0*%
%AMFreePoly0*
4,1,9,3.862500,-0.866500,0.737500,-0.866500,0.737500,-0.450000,-0.737500,-0.450000,-0.737500,0.450000,0.737500,0.450000,0.737500,0.866500,3.862500,0.866500,3.862500,-0.866500,3.862500,-0.866500,$1*%
G04 Aperture macros list end*
%TA.AperFunction,ComponentPad*%
%ADD10R,1.700000X1.700000*%
%TD*%
%TA.AperFunction,ComponentPad*%
%ADD11O,1.700000X1.700000*%
%TD*%
%TA.AperFunction,ComponentPad*%
%ADD12R,1.600000X1.600000*%
%TD*%
%TA.AperFunction,ComponentPad*%
%ADD13O,1.600000X1.600000*%
%TD*%
%TA.AperFunction,ComponentPad*%
%ADD14O,1.900000X3.500000*%
%TD*%
%TA.AperFunction,ComponentPad*%
%ADD15R,3.000000X3.000000*%
%TD*%
%TA.AperFunction,ComponentPad*%
%ADD16C,3.000000*%
%TD*%
%TA.AperFunction,SMDPad,CuDef*%
%ADD17RoundRect,0.200000X0.275000X-0.200000X0.275000X0.200000X-0.275000X0.200000X-0.275000X-0.200000X0*%
%TD*%
%TA.AperFunction,SMDPad,CuDef*%
%ADD18RoundRect,0.200000X-0.275000X0.200000X-0.275000X-0.200000X0.275000X-0.200000X0.275000X0.200000X0*%
%TD*%
%TA.AperFunction,SMDPad,CuDef*%
%ADD19R,1.300000X0.900000*%
%TD*%
%TA.AperFunction,SMDPad,CuDef*%
%ADD20FreePoly0,180.000000*%
%TD*%
%TA.AperFunction,ComponentPad*%
%ADD21R,2.000000X1.905000*%
%TD*%
%TA.AperFunction,ComponentPad*%
%ADD22O,2.000000X1.905000*%
%TD*%
%TA.AperFunction,ViaPad*%
%ADD23C,0.800000*%
%TD*%
%TA.AperFunction,Conductor*%
%ADD24C,0.500000*%
%TD*%
%TA.AperFunction,Conductor*%
%ADD25C,0.200000*%
%TD*%
%TA.AperFunction,Conductor*%
%ADD26C,0.250000*%
%TD*%
G04 APERTURE END LIST*
D10*
%TO.P,J1,1,Pin_1*%
%TO.N,/GND*%
X195125000Y-115845000D03*
D11*
%TO.P,J1,2,Pin_2*%
X195125000Y-113305000D03*
%TO.P,J1,3,Pin_3*%
%TO.N,/6V*%
X197665000Y-115845000D03*
%TO.P,J1,4,Pin_4*%
X197665000Y-113305000D03*
%TO.P,J1,5,Pin_5*%
%TO.N,Net-(J1-Pad5)*%
X200205000Y-115845000D03*
%TO.P,J1,6,Pin_6*%
%TO.N,Net-(J1-Pad6)*%
X200205000Y-113305000D03*
%TO.P,J1,7,Pin_7*%
%TO.N,Net-(J1-Pad5)*%
X202745000Y-115845000D03*
%TO.P,J1,8,Pin_8*%
%TO.N,Net-(J1-Pad6)*%
X202745000Y-113305000D03*
%TO.P,J1,9,Pin_9*%
%TO.N,/GND*%
X205285000Y-115845000D03*
%TO.P,J1,10,Pin_10*%
X205285000Y-113305000D03*
%TO.P,J1,11,Pin_11*%
%TO.N,/5V*%
X207825000Y-115845000D03*
%TO.P,J1,12,Pin_12*%
%TO.N,/6V*%
X207825000Y-113305000D03*
%TO.P,J1,13,Pin_13*%
%TO.N,/controll pin*%
X210365000Y-115845000D03*
%TO.P,J1,14,Pin_14*%
%TO.N,Net-(J1-Pad14)*%
X210365000Y-113305000D03*
%TO.P,J1,15,Pin_15*%
%TO.N,unconnected-(J1-Pad15)*%
X212905000Y-115845000D03*
%TO.P,J1,16,Pin_16*%
%TO.N,Net-(J1-Pad14)*%
X212905000Y-113305000D03*
%TD*%
D12*
%TO.P,U1,1,~{RESET}/PB5*%
%TO.N,unconnected-(U1-Pad1)*%
X198247000Y-109093000D03*
D13*
%TO.P,U1,2,XTAL1/PB3*%
%TO.N,Net-(R2-Pad1)*%
X200787000Y-109093000D03*
%TO.P,U1,3,XTAL2/PB4*%
%TO.N,Net-(R1-Pad1)*%
X203327000Y-109093000D03*
%TO.P,U1,4,GND*%
%TO.N,/GND*%
X205867000Y-109093000D03*
%TO.P,U1,5,AREF/PB0*%
%TO.N,/controll pin*%
X205867000Y-101473000D03*
%TO.P,U1,6,PB1*%
%TO.N,Net-(R4-Pad1)*%
X203327000Y-101473000D03*
%TO.P,U1,7,PB2*%
%TO.N,Net-(R3-Pad1)*%
X200787000Y-101473000D03*
%TO.P,U1,8,VCC*%
%TO.N,/5V*%
X198247000Y-101473000D03*
%TD*%
D14*
%TO.P,J3,5,Shield*%
%TO.N,/GND*%
X189450000Y-115100000D03*
X178050000Y-115100000D03*
%TD*%
D15*
%TO.P,J2,1,Pin_1*%
%TO.N,/VBUS*%
X212000000Y-108080000D03*
D16*
%TO.P,J2,2,Pin_2*%
%TO.N,/GND*%
X212000000Y-103000000D03*
%TD*%
D17*
%TO.P,R1,1*%
%TO.N,Net-(R1-Pad1)*%
X202500000Y-107124000D03*
%TO.P,R1,2*%
%TO.N,/D+*%
X202500000Y-105474000D03*
%TD*%
D18*
%TO.P,R4,1*%
%TO.N,Net-(R4-Pad1)*%
X199000000Y-103474000D03*
%TO.P,R4,2*%
%TO.N,/D-*%
X199000000Y-105124000D03*
%TD*%
D19*
%TO.P,U3,1,OUT*%
%TO.N,/5V*%
X208650000Y-103500000D03*
D20*
%TO.P,U3,2,GND*%
%TO.N,/GND*%
X208562500Y-105000000D03*
D19*
%TO.P,U3,3,IN*%
%TO.N,/VBUS*%
X208650000Y-106500000D03*
%TD*%
D18*
%TO.P,R3,1*%
%TO.N,Net-(R3-Pad1)*%
X197000000Y-103474000D03*
%TO.P,R3,2*%
%TO.N,/D-*%
X197000000Y-105124000D03*
%TD*%
D17*
%TO.P,R2,1*%
%TO.N,Net-(R2-Pad1)*%
X200500000Y-107124000D03*
%TO.P,R2,2*%
%TO.N,/D+*%
X200500000Y-105474000D03*
%TD*%
D21*
%TO.P,U2,1,IN*%
%TO.N,/VBUS*%
X176270000Y-108500000D03*
D22*
%TO.P,U2,2,GND*%
%TO.N,/GND*%
X176270000Y-105960000D03*
%TO.P,U2,3,OUT*%
%TO.N,/6V*%
X176270000Y-103420000D03*
%TD*%
D23*
%TO.N,/D-*%
X184750000Y-110000000D03*
%TO.N,/D+*%
X182750000Y-110000000D03*
%TO.N,/5V*%
X208650000Y-103500000D03*
%TD*%
D24*
%TO.N,/VBUS*%
X210420000Y-106500000D02*
X212000000Y-108080000D01*
X208650000Y-106500000D02*
X210420000Y-106500000D01*
D25*
%TO.N,/D-*%
X184750000Y-110000000D02*
X186690479Y-108059521D01*
X186690479Y-108059521D02*
X193799651Y-108059521D01*
X193799651Y-108059521D02*
X197000000Y-104859172D01*
D26*
X197000000Y-105124000D02*
X199000000Y-105124000D01*
D25*
%TO.N,/D+*%
X200500000Y-105442573D02*
X200500000Y-105474000D01*
X188889521Y-103860479D02*
X182750000Y-110000000D01*
D26*
X202500000Y-105474000D02*
X200500000Y-105474000D01*
D25*
X196205052Y-103860479D02*
X188889521Y-103860479D01*
X199356427Y-104299000D02*
X200500000Y-105442573D01*
X196643573Y-104299000D02*
X199356427Y-104299000D01*
X196643573Y-104299000D02*
X196205052Y-103860479D01*
D26*
%TO.N,Net-(R2-Pad1)*%
X200500000Y-107124000D02*
X200500000Y-108806000D01*
X200500000Y-108806000D02*
X200787000Y-109093000D01*
%TO.N,Net-(R3-Pad1)*%
X197724520Y-102749480D02*
X197000000Y-103474000D01*
X199510520Y-102749480D02*
X197724520Y-102749480D01*
X200787000Y-101473000D02*
X199510520Y-102749480D01*
%TO.N,/5V*%
X208650000Y-103500000D02*
X205750000Y-103500000D01*
X205750000Y-103500000D02*
X204451511Y-102201511D01*
X203962000Y-100348489D02*
X199371511Y-100348489D01*
X199371511Y-100348489D02*
X198247000Y-101473000D01*
X204451511Y-102201511D02*
X204451511Y-100838000D01*
X204451511Y-100838000D02*
X203962000Y-100348489D01*
%TO.N,Net-(R1-Pad1)*%
X202500000Y-108266000D02*
X203327000Y-109093000D01*
X202500000Y-107124000D02*
X202500000Y-108266000D01*
%TO.N,Net-(R4-Pad1)*%
X199000000Y-103474000D02*
X201326000Y-103474000D01*
X201326000Y-103474000D02*
X203327000Y-101473000D01*
%TD*%
%TA.AperFunction,Conductor*%
%TO.N,/GND*%
G36*
X197151394Y-100528002D02*
G01*
X197197887Y-100581658D01*
X197207991Y-100651932D01*
X197186486Y-100706271D01*
X197109477Y-100816251D01*
X197107154Y-100821233D01*
X197107151Y-100821238D01*
X197016066Y-101016572D01*
X197012716Y-101023757D01*
X197011294Y-101029065D01*
X197011293Y-101029067D01*
X196965151Y-101201271D01*
X196953457Y-101244913D01*
X196933502Y-101473000D01*
X196953457Y-101701087D01*
X197012716Y-101922243D01*
X197015039Y-101927224D01*
X197015039Y-101927225D01*
X197107151Y-102124762D01*
X197107154Y-102124767D01*
X197109477Y-102129749D01*
X197188395Y-102242455D01*
X197211082Y-102309727D01*
X197193797Y-102378587D01*
X197174277Y-102403819D01*
X197103119Y-102474976D01*
X197049499Y-102528596D01*
X196987187Y-102562621D01*
X196960404Y-102565500D01*
X196686386Y-102565501D01*
X196668366Y-102565501D01*
X196665508Y-102565764D01*
X196665499Y-102565764D01*
X196629996Y-102569026D01*
X196594938Y-102572247D01*
X196588560Y-102574246D01*
X196588559Y-102574246D01*
X196438550Y-102621256D01*
X196438548Y-102621257D01*
X196431301Y-102623528D01*
X196284619Y-102712361D01*
X196163361Y-102833619D01*
X196074528Y-102980301D01*
X196072257Y-102987548D01*
X196072256Y-102987550D01*
X196041602Y-103085369D01*
X196023247Y-103143938D01*
X196022635Y-103150602D01*
X196022611Y-103150720D01*
X195989623Y-103213587D01*
X195927882Y-103248639D01*
X195899064Y-103251979D01*
X188937657Y-103251979D01*
X188921214Y-103250901D01*
X188889521Y-103246729D01*
X188881332Y-103247807D01*
X188849647Y-103251978D01*
X188849638Y-103251979D01*
X188849636Y-103251979D01*
X188849630Y-103251980D01*
X188849628Y-103251980D01*
X188750064Y-103265088D01*
X188738857Y-103266563D01*
X188738855Y-103266564D01*
X188730670Y-103267641D01*
X188582645Y-103328955D01*
X188561430Y-103345234D01*
X188487458Y-103401994D01*
X188487442Y-103402008D01*
X188462087Y-103421463D01*
X188462084Y-103421466D01*
X188455534Y-103426492D01*
X188450504Y-103433047D01*
X188436069Y-103451858D01*
X188425202Y-103464249D01*
X182834856Y-109054595D01*
X182772544Y-109088621D01*
X182745761Y-109091500D01*
X182654513Y-109091500D01*
X182648061Y-109092872D01*
X182648056Y-109092872D01*
X182561112Y-109111353D01*
X182467712Y-109131206D01*
X182461682Y-109133891D01*
X182461681Y-109133891D01*
X182299278Y-109206197D01*
X182299276Y-109206198D01*
X182293248Y-109208882D01*
X182138747Y-109321134D01*
X182010960Y-109463056D01*
X181915473Y-109628444D01*
X181856458Y-109810072D01*
X181855768Y-109816633D01*
X181855768Y-109816635D01*
X181841532Y-109952081D01*
X181836496Y-110000000D01*
X181837186Y-110006565D01*
X181852993Y-110156956D01*
X181856458Y-110189928D01*
X181915473Y-110371556D01*
X181918776Y-110377278D01*
X181918777Y-110377279D01*
X181928861Y-110394745D01*
X182010960Y-110536944D01*
X182138747Y-110678866D01*
X182293248Y-110791118D01*
X182299276Y-110793802D01*
X182299278Y-110793803D01*
X182461681Y-110866109D01*
X182467712Y-110868794D01*
X182561113Y-110888647D01*
X182648056Y-110907128D01*
X182648061Y-110907128D01*
X182654513Y-110908500D01*
X182845487Y-110908500D01*
X182851939Y-110907128D01*
X182851944Y-110907128D01*
X182938887Y-110888647D01*
X183032288Y-110868794D01*
X183038319Y-110866109D01*
X183200722Y-110793803D01*
X183200724Y-110793802D01*
X183206752Y-110791118D01*
X183361253Y-110678866D01*
X183489040Y-110536944D01*
X183571139Y-110394745D01*
X183581223Y-110377279D01*
X183581224Y-110377278D01*
X183584527Y-110371556D01*
X183630167Y-110231090D01*
X183670241Y-110172486D01*
X183735637Y-110144849D01*
X183805594Y-110156956D01*
X183857900Y-110204962D01*
X183869832Y-110231089D01*
X183915473Y-110371556D01*
X183918776Y-110377278D01*
X183918777Y-110377279D01*
X183928861Y-110394745D01*
X184010960Y-110536944D01*
X184138747Y-110678866D01*
X184293248Y-110791118D01*
X184299276Y-110793802D01*
X184299278Y-110793803D01*
X184461681Y-110866109D01*
X184467712Y-110868794D01*
X184561113Y-110888647D01*
X184648056Y-110907128D01*
X184648061Y-110907128D01*
X184654513Y-110908500D01*
X184845487Y-110908500D01*
X184851939Y-110907128D01*
X184851944Y-110907128D01*
X184938887Y-110888647D01*
X185032288Y-110868794D01*
X185038319Y-110866109D01*
X185200722Y-110793803D01*
X185200724Y-110793802D01*
X185206752Y-110791118D01*
X185361253Y-110678866D01*
X185489040Y-110536944D01*
X185571139Y-110394745D01*
X185581223Y-110377279D01*
X185581224Y-110377278D01*
X185584527Y-110371556D01*
X185643542Y-110189928D01*
X185647008Y-110156956D01*
X185662814Y-110006565D01*
X185663504Y-110000000D01*
X185663316Y-109998214D01*
X185682816Y-109931804D01*
X185699719Y-109910830D01*
X186905623Y-108704926D01*
X186967935Y-108670900D01*
X186994718Y-108668021D01*
X193751515Y-108668021D01*
X193767958Y-108669099D01*
X193799651Y-108673271D01*
X193807840Y-108672193D01*
X193839525Y-108668022D01*
X193839535Y-108668021D01*
X193839536Y-108668021D01*
X193939108Y-108654912D01*
X193950315Y-108653437D01*
X193950317Y-108653436D01*
X193958502Y-108652359D01*
X194106527Y-108591045D01*
X194116548Y-108583356D01*
X194201723Y-108517998D01*
X194201726Y-108517995D01*
X194206179Y-108514578D01*
X194233638Y-108493508D01*
X194238668Y-108486953D01*
X194253103Y-108468142D01*
X194263970Y-108455751D01*
X195453300Y-107266421D01*
X196650315Y-106069405D01*
X196712627Y-106035380D01*
X196739410Y-106032500D01*
X197297900Y-106032499D01*
X197331634Y-106032499D01*
X197334492Y-106032236D01*
X197334501Y-106032236D01*
X197370004Y-106028974D01*
X197405062Y-106025753D01*
X197473375Y-106004345D01*
X197561450Y-105976744D01*
X197561452Y-105976743D01*
X197568699Y-105974472D01*
X197715381Y-105885639D01*
X197806615Y-105794405D01*
X197868927Y-105760379D01*
X197895710Y-105757500D01*
X198104290Y-105757500D01*
X198172411Y-105777502D01*
X198193385Y-105794405D01*
X198284619Y-105885639D01*
X198431301Y-105974472D01*
X198438548Y-105976743D01*
X198438550Y-105976744D01*
X198465157Y-105985082D01*
X198594938Y-106025753D01*
X198668365Y-106032500D01*
X198671263Y-106032500D01*
X199000860Y-106032499D01*
X199331634Y-106032499D01*
X199334492Y-106032236D01*
X199334501Y-106032236D01*
X199370004Y-106028974D01*
X199405062Y-106025753D01*
X199470382Y-106005283D01*
X199482770Y-106001401D01*
X199553755Y-106000117D01*
X199614166Y-106037414D01*
X199628225Y-106056363D01*
X199663361Y-106114381D01*
X199758885Y-106209905D01*
X199792911Y-106272217D01*
X199787846Y-106343032D01*
X199758885Y-106388095D01*
X199663361Y-106483619D01*
X199574528Y-106630301D01*
X199523247Y-106793938D01*
X199516500Y-106867365D01*
X199516501Y-107380634D01*
X199516764Y-107383492D01*
X199516764Y-107383501D01*
X199518626Y-107403767D01*
X199523247Y-107454062D01*
X199525246Y-107460440D01*
X199525246Y-107460441D01*
X199569310Y-107601047D01*
X199574528Y-107617699D01*
X199663361Y-107764381D01*
X199784619Y-107885639D01*
X199791120Y-107889576D01*
X199805771Y-107898449D01*
X199853678Y-107950846D01*
X199866500Y-108006225D01*
X199866500Y-108110812D01*
X199846498Y-108178933D01*
X199829595Y-108199907D01*
X199780802Y-108248700D01*
X199777643Y-108253211D01*
X199774108Y-108257424D01*
X199772974Y-108256473D01*
X199722929Y-108296471D01*
X199652310Y-108303776D01*
X199588951Y-108271742D01*
X199552970Y-108210538D01*
X199549918Y-108193483D01*
X199548745Y-108182684D01*
X199497615Y-108046295D01*
X199410261Y-107929739D01*
X199293705Y-107842385D01*
X199157316Y-107791255D01*
X199095134Y-107784500D01*
X197398866Y-107784500D01*
X197336684Y-107791255D01*
X197200295Y-107842385D01*
X197083739Y-107929739D01*
X196996385Y-108046295D01*
X196945255Y-108182684D01*
X196938500Y-108244866D01*
X196938500Y-109941134D01*
X196945255Y-110003316D01*
X196996385Y-110139705D01*
X197083739Y-110256261D01*
X197200295Y-110343615D01*
X197336684Y-110394745D01*
X197398866Y-110401500D01*
X199095134Y-110401500D01*
X199157316Y-110394745D01*
X199293705Y-110343615D01*
X199410261Y-110256261D01*
X199497615Y-110139705D01*
X199548745Y-110003316D01*
X199549917Y-109992526D01*
X199550803Y-109990394D01*
X199551425Y-109987778D01*
X199551848Y-109987879D01*
X199577155Y-109926965D01*
X199635517Y-109886537D01*
X199706471Y-109884078D01*
X199767490Y-109920371D01*
X199774489Y-109929031D01*
X199777643Y-109932789D01*
X199780802Y-109937300D01*
X199942700Y-110099198D01*
X199947208Y-110102355D01*
X199947211Y-110102357D01*
X199988542Y-110131297D01*
X200130251Y-110230523D01*
X200135233Y-110232846D01*
X200135238Y-110232849D01*
X200332775Y-110324961D01*
X200337757Y-110327284D01*
X200343065Y-110328706D01*
X200343067Y-110328707D01*
X200553598Y-110385119D01*
X200553600Y-110385119D01*
X200558913Y-110386543D01*
X200787000Y-110406498D01*
X201015087Y-110386543D01*
X201020400Y-110385119D01*
X201020402Y-110385119D01*
X201230933Y-110328707D01*
X201230935Y-110328706D01*
X201236243Y-110327284D01*
X201241225Y-110324961D01*
X201438762Y-110232849D01*
X201438767Y-110232846D01*
X201443749Y-110230523D01*
X201585458Y-110131297D01*
X201626789Y-110102357D01*
X201626792Y-110102355D01*
X201631300Y-110099198D01*
X201793198Y-109937300D01*
X201797047Y-109931804D01*
X201921366Y-109754257D01*
X201924523Y-109749749D01*
X201926846Y-109744767D01*
X201926849Y-109744762D01*
X201942805Y-109710543D01*
X201989722Y-109657258D01*
X202057999Y-109637797D01*
X202125959Y-109658339D01*
X202171195Y-109710543D01*
X202187151Y-109744762D01*
X202187154Y-109744767D01*
X202189477Y-109749749D01*
X202192634Y-109754257D01*
X202316954Y-109931804D01*
X202320802Y-109937300D01*
X202482700Y-110099198D01*
X202487208Y-110102355D01*
X202487211Y-110102357D01*
X202528542Y-110131297D01*
X202670251Y-110230523D01*
X202675233Y-110232846D01*
X202675238Y-110232849D01*
X202872775Y-110324961D01*
X202877757Y-110327284D01*
X202883065Y-110328706D01*
X202883067Y-110328707D01*
X203093598Y-110385119D01*
X203093600Y-110385119D01*
X203098913Y-110386543D01*
X203327000Y-110406498D01*
X203555087Y-110386543D01*
X203560400Y-110385119D01*
X203560402Y-110385119D01*
X203770933Y-110328707D01*
X203770935Y-110328706D01*
X203776243Y-110327284D01*
X203781225Y-110324961D01*
X203978762Y-110232849D01*
X203978767Y-110232846D01*
X203983749Y-110230523D01*
X204125458Y-110131297D01*
X204166789Y-110102357D01*
X204166792Y-110102355D01*
X204171300Y-110099198D01*
X204333198Y-109937300D01*
X204337047Y-109931804D01*
X204461366Y-109754257D01*
X204464523Y-109749749D01*
X204466846Y-109744767D01*
X204466849Y-109744762D01*
X204558961Y-109547225D01*
X204558961Y-109547224D01*
X204561284Y-109542243D01*
X204608981Y-109364237D01*
X204645933Y-109303615D01*
X204709794Y-109272593D01*
X204780288Y-109281022D01*
X204835035Y-109326225D01*
X204851807Y-109362119D01*
X204884311Y-109475475D01*
X204888829Y-109486887D01*
X204977314Y-109659060D01*
X204983964Y-109669378D01*
X205104209Y-109821090D01*
X205112732Y-109829916D01*
X205260159Y-109955386D01*
X205270231Y-109962386D01*
X205351185Y-110007630D01*
X205364936Y-110010763D01*
X205366220Y-110009083D01*
X205367000Y-110004878D01*
X205367000Y-109998725D01*
X206367000Y-109998725D01*
X206370973Y-110012256D01*
X206374443Y-110012755D01*
X206376158Y-110012214D01*
X206426840Y-109986613D01*
X206437199Y-109980038D01*
X206589748Y-109860854D01*
X206598630Y-109852396D01*
X206725127Y-109705848D01*
X206732197Y-109695826D01*
X206781662Y-109608752D01*
X206784891Y-109595024D01*
X206783403Y-109593871D01*
X206778799Y-109593000D01*
X206385115Y-109593000D01*
X206369876Y-109597475D01*
X206368671Y-109598865D01*
X206367000Y-109606548D01*
X206367000Y-109998725D01*
X205367000Y-109998725D01*
X205367000Y-108574885D01*
X206367000Y-108574885D01*
X206371475Y-108590124D01*
X206372865Y-108591329D01*
X206380548Y-108593000D01*
X206772280Y-108593000D01*
X206785811Y-108589027D01*
X206786211Y-108586244D01*
X206785267Y-108583356D01*
X206748697Y-108514578D01*
X206741898Y-108504343D01*
X206619549Y-108354328D01*
X206610910Y-108345629D01*
X206461743Y-108222226D01*
X206451572Y-108215366D01*
X206382936Y-108178255D01*
X206369143Y-108175315D01*
X206367605Y-108177387D01*
X206367000Y-108180781D01*
X206367000Y-108574885D01*
X205367000Y-108574885D01*
X205367000Y-108187628D01*
X205363027Y-108174097D01*
X205360015Y-108173664D01*
X205357517Y-108174471D01*
X205294736Y-108207292D01*
X205284475Y-108214006D01*
X205133606Y-108335308D01*
X205124832Y-108343901D01*
X205000405Y-108492187D01*
X204993467Y-108502317D01*
X204900204Y-108671964D01*
X204895376Y-108683228D01*
X204850286Y-108825370D01*
X204810623Y-108884254D01*
X204745420Y-108912346D01*
X204675381Y-108900729D01*
X204622741Y-108853089D01*
X204608477Y-108819882D01*
X204562707Y-108649067D01*
X204562706Y-108649065D01*
X204561284Y-108643757D01*
X204535763Y-108589027D01*
X204466849Y-108441238D01*
X204466846Y-108441233D01*
X204464523Y-108436251D01*
X204366648Y-108296471D01*
X204336357Y-108253211D01*
X204336355Y-108253208D01*
X204333198Y-108248700D01*
X204171300Y-108086802D01*
X204166792Y-108083645D01*
X204166789Y-108083643D01*
X204056224Y-108006225D01*
X203983749Y-107955477D01*
X203978767Y-107953154D01*
X203978762Y-107953151D01*
X203781225Y-107861039D01*
X203781224Y-107861039D01*
X203776243Y-107858716D01*
X203770935Y-107857294D01*
X203770933Y-107857293D01*
X203560402Y-107800881D01*
X203560400Y-107800881D01*
X203555087Y-107799457D01*
X203549611Y-107798978D01*
X203549606Y-107798977D01*
X203527438Y-107797038D01*
X203461319Y-107771175D01*
X203419680Y-107713671D01*
X203415739Y-107642784D01*
X203422692Y-107622289D01*
X203425472Y-107617699D01*
X203476753Y-107454062D01*
X203483500Y-107380635D01*
X203483499Y-106998134D01*
X207491500Y-106998134D01*
X207498255Y-107060316D01*
X207549385Y-107196705D01*
X207636739Y-107313261D01*
X207753295Y-107400615D01*
X207889684Y-107451745D01*
X207951866Y-107458500D01*
X209348134Y-107458500D01*
X209410316Y-107451745D01*
X209546705Y-107400615D01*
X209663261Y-107313261D01*
X209668642Y-107306081D01*
X209674992Y-107299731D01*
X209676627Y-107301366D01*
X209723359Y-107266421D01*
X209767329Y-107258500D01*
X209865500Y-107258500D01*
X209933621Y-107278502D01*
X209980114Y-107332158D01*
X209991500Y-107384500D01*
X209991500Y-109628134D01*
X209998255Y-109690316D01*
X210049385Y-109826705D01*
X210136739Y-109943261D01*
X210253295Y-110030615D01*
X210389684Y-110081745D01*
X210451866Y-110088500D01*
X213548134Y-110088500D01*
X213610316Y-110081745D01*
X213746705Y-110030615D01*
X213863261Y-109943261D01*
X213950615Y-109826705D01*
X214001745Y-109690316D01*
X214008500Y-109628134D01*
X214008500Y-106531866D01*
X214001745Y-106469684D01*
X213950615Y-106333295D01*
X213863261Y-106216739D01*
X213746705Y-106129385D01*
X213610316Y-106078255D01*
X213548134Y-106071500D01*
X211116371Y-106071500D01*
X211048250Y-106051498D01*
X211027276Y-106034595D01*
X211003770Y-106011089D01*
X210991384Y-105996677D01*
X210982851Y-105985082D01*
X210982846Y-105985077D01*
X210978508Y-105979182D01*
X210972930Y-105974443D01*
X210972927Y-105974440D01*
X210938232Y-105944965D01*
X210930716Y-105938035D01*
X210925021Y-105932340D01*
X210918880Y-105927482D01*
X210902749Y-105914719D01*
X210899345Y-105911928D01*
X210849297Y-105869409D01*
X210849295Y-105869408D01*
X210843715Y-105864667D01*
X210837199Y-105861339D01*
X210832150Y-105857972D01*
X210827021Y-105854805D01*
X210821284Y-105850266D01*
X210755125Y-105819345D01*
X210751225Y-105817439D01*
X210737530Y-105810446D01*
X210686192Y-105784231D01*
X210679084Y-105782492D01*
X210673441Y-105780393D01*
X210667678Y-105778476D01*
X210661050Y-105775378D01*
X210589583Y-105760513D01*
X210585299Y-105759543D01*
X210576950Y-105757500D01*
X210514390Y-105742192D01*
X210508788Y-105741844D01*
X210508785Y-105741844D01*
X210503236Y-105741500D01*
X210503238Y-105741464D01*
X210499245Y-105741225D01*
X210495053Y-105740851D01*
X210487885Y-105739360D01*
X210421675Y-105741151D01*
X210410479Y-105741454D01*
X210407072Y-105741500D01*
X209767329Y-105741500D01*
X209699208Y-105721498D01*
X209675668Y-105699593D01*
X209674992Y-105700269D01*
X209668642Y-105693919D01*
X209663261Y-105686739D01*
X209546705Y-105599385D01*
X209410316Y-105548255D01*
X209348134Y-105541500D01*
X207951866Y-105541500D01*
X207889684Y-105548255D01*
X207753295Y-105599385D01*
X207636739Y-105686739D01*
X207549385Y-105803295D01*
X207498255Y-105939684D01*
X207491500Y-106001866D01*
X207491500Y-106998134D01*
X203483499Y-106998134D01*
X203483499Y-106867366D01*
X203483234Y-106864474D01*
X203477364Y-106800592D01*
X203476753Y-106793938D01*
X203474752Y-106787554D01*
X203427744Y-106637550D01*
X203427743Y-106637548D01*
X203425472Y-106630301D01*
X203336639Y-106483619D01*
X203241115Y-106388095D01*
X203207089Y-106325783D01*
X203212154Y-106254968D01*
X203241115Y-106209905D01*
X203336639Y-106114381D01*
X203425472Y-105967699D01*
X203431790Y-105947540D01*
X203459669Y-105858577D01*
X203476753Y-105804062D01*
X203483500Y-105730635D01*
X203483499Y-105217366D01*
X203476753Y-105143938D01*
X203459329Y-105088339D01*
X203427744Y-104987550D01*
X203427743Y-104987548D01*
X203425472Y-104980301D01*
X203336639Y-104833619D01*
X203215381Y-104712361D01*
X203068699Y-104623528D01*
X203061452Y-104621257D01*
X203061450Y-104621256D01*
X202984776Y-104597228D01*
X202905062Y-104572247D01*
X202831635Y-104565500D01*
X202828737Y-104565500D01*
X202499140Y-104565501D01*
X202168366Y-104565501D01*
X202165508Y-104565764D01*
X202165499Y-104565764D01*
X202129996Y-104569026D01*
X202094938Y-104572247D01*
X202088560Y-104574246D01*
X202088559Y-104574246D01*
X201938550Y-104621256D01*
X201938548Y-104621257D01*
X201931301Y-104623528D01*
X201784619Y-104712361D01*
X201693385Y-104803595D01*
X201631073Y-104837621D01*
X201604290Y-104840500D01*
X201395710Y-104840500D01*
X201327589Y-104820498D01*
X201306615Y-104803595D01*
X201215381Y-104712361D01*
X201068699Y-104623528D01*
X201061452Y-104621257D01*
X201061450Y-104621256D01*
X200984776Y-104597228D01*
X200905062Y-104572247D01*
X200831635Y-104565500D01*
X200813320Y-104565500D01*
X200535666Y-104565501D01*
X200467547Y-104545499D01*
X200459630Y-104539119D01*
X211173608Y-104539119D01*
X211178074Y-104545085D01*
X211296097Y-104607180D01*
X211304646Y-104610897D01*
X211541381Y-104693568D01*
X211550390Y-104695982D01*
X211796750Y-104742755D01*
X211806007Y-104743809D01*
X212056577Y-104753655D01*
X212065891Y-104753329D01*
X212315153Y-104726031D01*
X212324330Y-104724330D01*
X212566822Y-104660487D01*
X212575638Y-104657451D01*
X212806024Y-104558470D01*
X212814308Y-104554158D01*
X212819130Y-104551174D01*
X212828544Y-104540676D01*
X212824657Y-104531764D01*
X212012812Y-103719919D01*
X211998868Y-103712305D01*
X211997035Y-103712436D01*
X211990420Y-103716687D01*
X211180368Y-104526739D01*
X211173608Y-104539119D01*
X200459630Y-104539119D01*
X200446572Y-104528596D01*
X200240571Y-104322595D01*
X200206545Y-104260283D01*
X200211610Y-104189468D01*
X200254157Y-104132632D01*
X200320677Y-104107821D01*
X200329666Y-104107500D01*
X201247233Y-104107500D01*
X201258416Y-104108027D01*
X201265909Y-104109702D01*
X201273835Y-104109453D01*
X201273836Y-104109453D01*
X201333986Y-104107562D01*
X201337945Y-104107500D01*
X201365856Y-104107500D01*
X201369791Y-104107003D01*
X201369856Y-104106995D01*
X201381693Y-104106062D01*
X201413951Y-104105048D01*
X201417970Y-104104922D01*
X201425889Y-104104673D01*
X201445343Y-104099021D01*
X201464700Y-104095013D01*
X201476930Y-104093468D01*
X201476931Y-104093468D01*
X201484797Y-104092474D01*
X201492168Y-104089555D01*
X201492170Y-104089555D01*
X201525912Y-104076196D01*
X201537142Y-104072351D01*
X201571983Y-104062229D01*
X201571984Y-104062229D01*
X201579593Y-104060018D01*
X201586412Y-104055985D01*
X201586417Y-104055983D01*
X201597028Y-104049707D01*
X201614776Y-104041012D01*
X201633617Y-104033552D01*
X201650963Y-104020950D01*
X201669387Y-104007564D01*
X201679307Y-104001048D01*
X201710535Y-103982580D01*
X201710538Y-103982578D01*
X201717362Y-103978542D01*
X201731683Y-103964221D01*
X201746717Y-103951380D01*
X201756694Y-103944131D01*
X201763107Y-103939472D01*
X201791298Y-103905395D01*
X201799288Y-103896616D01*
X202913752Y-102782152D01*
X202976064Y-102748126D01*
X203035459Y-102749541D01*
X203093591Y-102765118D01*
X203093602Y-102765120D01*
X203098913Y-102766543D01*
X203327000Y-102786498D01*
X203555087Y-102766543D01*
X203560400Y-102765119D01*
X203560402Y-102765119D01*
X203770933Y-102708707D01*
X203770935Y-102708706D01*
X203776243Y-102707284D01*
X203890744Y-102653892D01*
X203960935Y-102643231D01*
X204025748Y-102672211D01*
X204033088Y-102678992D01*
X205246348Y-103892253D01*
X205253888Y-103900539D01*
X205258000Y-103907018D01*
X205263777Y-103912443D01*
X205307651Y-103953643D01*
X205310493Y-103956398D01*
X205330230Y-103976135D01*
X205333427Y-103978615D01*
X205342447Y-103986318D01*
X205374679Y-104016586D01*
X205381625Y-104020405D01*
X205381628Y-104020407D01*
X205392434Y-104026348D01*
X205408953Y-104037199D01*
X205424959Y-104049614D01*
X205432228Y-104052759D01*
X205432232Y-104052762D01*
X205465537Y-104067174D01*
X205476187Y-104072391D01*
X205514940Y-104093695D01*
X205522615Y-104095666D01*
X205522616Y-104095666D01*
X205534562Y-104098733D01*
X205553266Y-104105137D01*
X205560019Y-104108059D01*
X205571855Y-104113181D01*
X205579678Y-104114420D01*
X205579688Y-104114423D01*
X205615524Y-104120099D01*
X205627144Y-104122505D01*
X205662289Y-104131528D01*
X205669970Y-104133500D01*
X205690224Y-104133500D01*
X205709934Y-104135051D01*
X205729943Y-104138220D01*
X205737835Y-104137474D01*
X205773961Y-104134059D01*
X205785819Y-104133500D01*
X207441567Y-104133500D01*
X207509688Y-104153502D01*
X207549000Y-104195678D01*
X207549385Y-104196705D01*
X207636739Y-104313261D01*
X207753295Y-104400615D01*
X207889684Y-104451745D01*
X207951866Y-104458500D01*
X209348134Y-104458500D01*
X209410316Y-104451745D01*
X209546705Y-104400615D01*
X209663261Y-104313261D01*
X209750615Y-104196705D01*
X209801745Y-104060316D01*
X209808500Y-103998134D01*
X209808500Y-103001866D01*
X209803814Y-102958734D01*
X210245918Y-102958734D01*
X210257950Y-103209196D01*
X210259087Y-103218459D01*
X210308007Y-103464398D01*
X210310496Y-103473373D01*
X210395232Y-103709381D01*
X210399029Y-103717909D01*
X210451953Y-103816406D01*
X210461858Y-103826445D01*
X210469090Y-103823803D01*
X211280081Y-103012812D01*
X211286459Y-103001132D01*
X212712305Y-103001132D01*
X212712436Y-103002965D01*
X212716687Y-103009580D01*
X213530124Y-103823017D01*
X213542504Y-103829777D01*
X213547269Y-103826210D01*
X213647152Y-103604478D01*
X213650343Y-103595711D01*
X213718407Y-103354376D01*
X213720267Y-103345234D01*
X213752104Y-103094976D01*
X213752585Y-103088688D01*
X213754824Y-103003160D01*
X213754673Y-102996851D01*
X213735977Y-102745260D01*
X213734600Y-102736054D01*
X213679257Y-102491472D01*
X213676533Y-102482561D01*
X213585646Y-102248846D01*
X213581635Y-102240437D01*
X213548813Y-102183011D01*
X213538650Y-102173235D01*
X213530749Y-102176358D01*
X212719919Y-102987188D01*
X212712305Y-103001132D01*
X211286459Y-103001132D01*
X211287695Y-102998868D01*
X211287564Y-102997035D01*
X211283313Y-102990420D01*
X210471768Y-102178875D01*
X210459388Y-102172115D01*
X210451867Y-102177745D01*
X210438791Y-102199293D01*
X210434557Y-102207603D01*
X210337589Y-102438846D01*
X210334629Y-102447692D01*
X210272907Y-102690725D01*
X210271285Y-102699922D01*
X210246163Y-102949408D01*
X210245918Y-102958734D01*
X209803814Y-102958734D01*
X209801745Y-102939684D01*
X209750615Y-102803295D01*
X209663261Y-102686739D01*
X209546705Y-102599385D01*
X209410316Y-102548255D01*
X209348134Y-102541500D01*
X207951866Y-102541500D01*
X207889684Y-102548255D01*
X207753295Y-102599385D01*
X207636739Y-102686739D01*
X207549385Y-102803295D01*
X207549139Y-102803951D01*
X207501825Y-102851157D01*
X207441567Y-102866500D01*
X206543154Y-102866500D01*
X206475033Y-102846498D01*
X206428540Y-102792842D01*
X206418436Y-102722568D01*
X206447930Y-102657988D01*
X206489905Y-102626305D01*
X206518758Y-102612851D01*
X206518764Y-102612847D01*
X206523749Y-102610523D01*
X206663684Y-102512539D01*
X206706789Y-102482357D01*
X206706792Y-102482355D01*
X206711300Y-102479198D01*
X206873198Y-102317300D01*
X206894020Y-102287564D01*
X206950009Y-102207603D01*
X207004523Y-102129749D01*
X207006846Y-102124767D01*
X207006849Y-102124762D01*
X207098961Y-101927225D01*
X207098961Y-101927224D01*
X207101284Y-101922243D01*
X207160543Y-101701087D01*
X207180498Y-101473000D01*
X207179321Y-101459546D01*
X211170792Y-101459546D01*
X211172545Y-101465438D01*
X211987188Y-102280081D01*
X212001132Y-102287695D01*
X212002965Y-102287564D01*
X212009580Y-102283313D01*
X212820468Y-101472425D01*
X212827228Y-101460045D01*
X212823174Y-101454629D01*
X212661588Y-101374944D01*
X212652955Y-101371456D01*
X212414120Y-101295004D01*
X212405069Y-101292831D01*
X212157562Y-101252522D01*
X212148273Y-101251710D01*
X211897542Y-101248427D01*
X211888231Y-101248997D01*
X211639765Y-101282812D01*
X211630646Y-101284750D01*
X211389918Y-101354916D01*
X211381165Y-101358188D01*
X211181417Y-101450274D01*
X211170792Y-101459546D01*
X207179321Y-101459546D01*
X207160543Y-101244913D01*
X207148849Y-101201271D01*
X207102707Y-101029067D01*
X207102706Y-101029065D01*
X207101284Y-101023757D01*
X207097934Y-101016572D01*
X207006849Y-100821238D01*
X207006846Y-100821233D01*
X207004523Y-100816251D01*
X206927514Y-100706271D01*
X206904826Y-100638997D01*
X206922111Y-100570136D01*
X206973881Y-100521552D01*
X207030727Y-100508000D01*
X214950672Y-100508000D01*
X214970056Y-100509500D01*
X214972150Y-100509826D01*
X214984859Y-100511805D01*
X214984861Y-100511805D01*
X214993730Y-100513186D01*
X215002632Y-100512022D01*
X215002634Y-100512022D01*
X215008959Y-100511195D01*
X215034282Y-100510452D01*
X215189487Y-100521552D01*
X215203343Y-100522543D01*
X215221137Y-100525101D01*
X215234473Y-100528002D01*
X215411540Y-100566521D01*
X215428788Y-100571586D01*
X215611358Y-100639682D01*
X215627710Y-100647149D01*
X215657260Y-100663284D01*
X215798734Y-100740534D01*
X215813848Y-100750248D01*
X215908680Y-100821238D01*
X215969842Y-100867023D01*
X215983428Y-100878796D01*
X216121204Y-101016572D01*
X216132977Y-101030158D01*
X216249752Y-101186152D01*
X216259466Y-101201266D01*
X216299649Y-101274857D01*
X216352851Y-101372290D01*
X216360318Y-101388642D01*
X216428414Y-101571212D01*
X216433480Y-101588462D01*
X216474899Y-101778863D01*
X216477457Y-101796658D01*
X216489041Y-101958629D01*
X216488297Y-101976533D01*
X216488195Y-101984858D01*
X216486814Y-101993730D01*
X216487978Y-102002632D01*
X216487978Y-102002635D01*
X216490936Y-102025251D01*
X216492000Y-102041589D01*
X216492000Y-115950672D01*
X216490500Y-115970057D01*
X216489941Y-115973650D01*
X216486814Y-115993730D01*
X216487978Y-116002632D01*
X216487978Y-116002634D01*
X216488805Y-116008959D01*
X216489548Y-116034282D01*
X216485910Y-116085152D01*
X216477457Y-116203343D01*
X216474899Y-116221137D01*
X216446679Y-116350865D01*
X216433480Y-116411538D01*
X216428414Y-116428788D01*
X216360318Y-116611358D01*
X216352851Y-116627710D01*
X216343034Y-116645689D01*
X216269490Y-116780377D01*
X216259469Y-116798729D01*
X216249752Y-116813848D01*
X216144881Y-116953940D01*
X216132977Y-116969842D01*
X216121204Y-116983428D01*
X215983428Y-117121204D01*
X215969841Y-117132977D01*
X215813848Y-117249752D01*
X215798734Y-117259466D01*
X215778556Y-117270484D01*
X215627710Y-117352851D01*
X215611358Y-117360318D01*
X215428788Y-117428414D01*
X215411540Y-117433479D01*
X215248022Y-117469051D01*
X215221137Y-117474899D01*
X215203342Y-117477457D01*
X215154443Y-117480954D01*
X215041369Y-117489041D01*
X215023467Y-117488297D01*
X215015142Y-117488195D01*
X215006270Y-117486814D01*
X214997368Y-117487978D01*
X214997365Y-117487978D01*
X214974749Y-117490936D01*
X214958411Y-117492000D01*
X175549328Y-117492000D01*
X175529943Y-117490500D01*
X175515142Y-117488195D01*
X175515139Y-117488195D01*
X175506270Y-117486814D01*
X175490001Y-117488941D01*
X175465433Y-117489734D01*
X175248234Y-117475498D01*
X175231894Y-117473347D01*
X175112212Y-117449541D01*
X174992527Y-117425734D01*
X174976617Y-117421471D01*
X174745514Y-117343022D01*
X174730290Y-117336716D01*
X174511408Y-117228776D01*
X174497134Y-117220535D01*
X174294217Y-117084950D01*
X174281142Y-117074917D01*
X174097653Y-116914002D01*
X174085998Y-116902347D01*
X173925083Y-116718858D01*
X173915050Y-116705783D01*
X173779465Y-116502866D01*
X173771224Y-116488592D01*
X173663284Y-116269710D01*
X173656977Y-116254484D01*
X173642669Y-116212334D01*
X173578529Y-116023383D01*
X173574265Y-116007470D01*
X173569768Y-115984859D01*
X173563441Y-115953052D01*
X176850000Y-115953052D01*
X176850266Y-115958841D01*
X176864510Y-116113866D01*
X176866607Y-116125180D01*
X176923336Y-116326325D01*
X176927455Y-116337056D01*
X177019893Y-116524503D01*
X177025903Y-116534311D01*
X177150953Y-116701773D01*
X177158643Y-116710313D01*
X177312117Y-116852184D01*
X177321242Y-116859185D01*
X177497994Y-116970707D01*
X177508241Y-116975928D01*
X177533172Y-116985874D01*
X177547215Y-116987198D01*
X177550000Y-116982360D01*
X177550000Y-116976574D01*
X178550000Y-116976574D01*
X178553973Y-116990105D01*
X178560055Y-116990979D01*
X178563410Y-116989742D01*
X178573789Y-116984791D01*
X178753396Y-116877936D01*
X178762708Y-116871171D01*
X178919837Y-116733371D01*
X178927754Y-116725028D01*
X179057138Y-116560905D01*
X179063409Y-116551249D01*
X179160713Y-116366304D01*
X179165119Y-116355667D01*
X179227092Y-116156084D01*
X179229485Y-116144826D01*
X179249564Y-115975181D01*
X179250000Y-115967778D01*
X179250000Y-115618115D01*
X179245525Y-115602876D01*
X179244135Y-115601671D01*
X179236452Y-115600000D01*
X178568115Y-115600000D01*
X178552876Y-115604475D01*
X178551671Y-115605865D01*
X178550000Y-115613548D01*
X178550000Y-116976574D01*
X177550000Y-116976574D01*
X177550000Y-115618115D01*
X177545525Y-115602876D01*
X177544135Y-115601671D01*
X177536452Y-115600000D01*
X176868115Y-115600000D01*
X176852876Y-115604475D01*
X176851671Y-115605865D01*
X176850000Y-115613548D01*
X176850000Y-115953052D01*
X173563441Y-115953052D01*
X173541281Y-115841646D01*
X173526653Y-115768106D01*
X173524502Y-115751766D01*
X173510974Y-115545376D01*
X173512147Y-115522218D01*
X173511829Y-115522189D01*
X173512264Y-115517333D01*
X173513071Y-115512539D01*
X173513224Y-115500000D01*
X173509273Y-115472412D01*
X173508000Y-115454549D01*
X173508000Y-115092575D01*
X180386404Y-115092575D01*
X180388029Y-115110433D01*
X180401218Y-115255346D01*
X180405218Y-115299303D01*
X180406956Y-115305209D01*
X180406957Y-115305213D01*
X180418667Y-115345000D01*
X180463827Y-115498440D01*
X180559999Y-115682400D01*
X180690071Y-115844177D01*
X180694788Y-115848135D01*
X180694790Y-115848137D01*
X180766418Y-115908240D01*
X180849089Y-115977609D01*
X180854481Y-115980573D01*
X180854485Y-115980576D01*
X180952964Y-116034715D01*
X181030995Y-116077613D01*
X181228861Y-116140379D01*
X181234978Y-116141065D01*
X181234982Y-116141066D01*
X181311598Y-116149659D01*
X181390413Y-116158500D01*
X181502237Y-116158500D01*
X181505293Y-116158200D01*
X181505300Y-116158200D01*
X181650466Y-116143966D01*
X181650469Y-116143965D01*
X181656592Y-116143365D01*
X181788546Y-116103526D01*
X181849407Y-116085152D01*
X181849410Y-116085151D01*
X181855315Y-116083368D01*
X181862635Y-116079476D01*
X182033153Y-115988809D01*
X182033155Y-115988808D01*
X182038599Y-115985913D01*
X182133836Y-115908240D01*
X182194689Y-115858610D01*
X182194692Y-115858607D01*
X182199464Y-115854715D01*
X182331783Y-115694770D01*
X182335876Y-115687201D01*
X182427584Y-115517590D01*
X182427586Y-115517585D01*
X182430514Y-115512170D01*
X182491898Y-115313871D01*
X182493429Y-115299303D01*
X182512952Y-115113554D01*
X182512952Y-115113552D01*
X182513596Y-115107425D01*
X182512245Y-115092575D01*
X184986404Y-115092575D01*
X184988029Y-115110433D01*
X185001218Y-115255346D01*
X185005218Y-115299303D01*
X185006956Y-115305209D01*
X185006957Y-115305213D01*
X185018667Y-115345000D01*
X185063827Y-115498440D01*
X185159999Y-115682400D01*
X185290071Y-115844177D01*
X185294788Y-115848135D01*
X185294790Y-115848137D01*
X185366418Y-115908240D01*
X185449089Y-115977609D01*
X185454481Y-115980573D01*
X185454485Y-115980576D01*
X185552964Y-116034715D01*
X185630995Y-116077613D01*
X185828861Y-116140379D01*
X185834978Y-116141065D01*
X185834982Y-116141066D01*
X185911598Y-116149659D01*
X185990413Y-116158500D01*
X186102237Y-116158500D01*
X186105293Y-116158200D01*
X186105300Y-116158200D01*
X186250466Y-116143966D01*
X186250469Y-116143965D01*
X186256592Y-116143365D01*
X186388546Y-116103526D01*
X186449407Y-116085152D01*
X186449410Y-116085151D01*
X186455315Y-116083368D01*
X186462635Y-116079476D01*
X186633153Y-115988809D01*
X186633155Y-115988808D01*
X186638599Y-115985913D01*
X186678891Y-115953052D01*
X188250000Y-115953052D01*
X188250266Y-115958841D01*
X188264510Y-116113866D01*
X188266607Y-116125180D01*
X188323336Y-116326325D01*
X188327455Y-116337056D01*
X188419893Y-116524503D01*
X188425903Y-116534311D01*
X188550953Y-116701773D01*
X188558643Y-116710313D01*
X188712117Y-116852184D01*
X188721242Y-116859185D01*
X188897994Y-116970707D01*
X188908241Y-116975928D01*
X188933172Y-116985874D01*
X188947215Y-116987198D01*
X188950000Y-116982360D01*
X188950000Y-116976574D01*
X189950000Y-116976574D01*
X189953973Y-116990105D01*
X189960055Y-116990979D01*
X189963410Y-116989742D01*
X189973789Y-116984791D01*
X190153396Y-116877936D01*
X190162708Y-116871171D01*
X190319837Y-116733371D01*
X190327754Y-116725028D01*
X190336892Y-116713437D01*
X194025000Y-116713437D01*
X194026207Y-116725691D01*
X194037085Y-116780377D01*
X194046398Y-116802862D01*
X194087867Y-116864924D01*
X194105076Y-116882133D01*
X194167138Y-116923602D01*
X194189623Y-116932915D01*
X194244309Y-116943793D01*
X194256563Y-116945000D01*
X194606885Y-116945000D01*
X194622124Y-116940525D01*
X194623329Y-116939135D01*
X194625000Y-116931452D01*
X194625000Y-116926885D01*
X195625000Y-116926885D01*
X195629475Y-116942124D01*
X195630865Y-116943329D01*
X195638548Y-116945000D01*
X195993437Y-116945000D01*
X196005691Y-116943793D01*
X196060377Y-116932915D01*
X196082862Y-116923602D01*
X196144924Y-116882133D01*
X196162133Y-116864924D01*
X196203602Y-116802862D01*
X196212915Y-116780377D01*
X196223793Y-116725691D01*
X196225000Y-116713437D01*
X196225000Y-116542042D01*
X196245002Y-116473921D01*
X196298658Y-116427428D01*
X196368932Y-116417324D01*
X196433512Y-116446818D01*
X196458433Y-116476207D01*
X196562291Y-116645688D01*
X196564987Y-116650088D01*
X196711250Y-116818938D01*
X196883126Y-116961632D01*
X197076000Y-117074338D01*
X197284692Y-117154030D01*
X197289760Y-117155061D01*
X197289763Y-117155062D01*
X197397017Y-117176883D01*
X197503597Y-117198567D01*
X197508772Y-117198757D01*
X197508774Y-117198757D01*
X197721673Y-117206564D01*
X197721677Y-117206564D01*
X197726837Y-117206753D01*
X197731957Y-117206097D01*
X197731959Y-117206097D01*
X197943288Y-117179025D01*
X197943289Y-117179025D01*
X197948416Y-117178368D01*
X197984121Y-117167656D01*
X198157429Y-117115661D01*
X198157434Y-117115659D01*
X198162384Y-117114174D01*
X198362994Y-117015896D01*
X198544860Y-116886173D01*
X198566184Y-116864924D01*
X198673236Y-116758245D01*
X198703096Y-116728489D01*
X198762594Y-116645689D01*
X198833453Y-116547077D01*
X198834776Y-116548028D01*
X198881645Y-116504857D01*
X198951580Y-116492625D01*
X199017026Y-116520144D01*
X199044875Y-116551994D01*
X199050336Y-116560905D01*
X199104987Y-116650088D01*
X199251250Y-116818938D01*
X199423126Y-116961632D01*
X199616000Y-117074338D01*
X199824692Y-117154030D01*
X199829760Y-117155061D01*
X199829763Y-117155062D01*
X199937017Y-117176883D01*
X200043597Y-117198567D01*
X200048772Y-117198757D01*
X200048774Y-117198757D01*
X200261673Y-117206564D01*
X200261677Y-117206564D01*
X200266837Y-117206753D01*
X200271957Y-117206097D01*
X200271959Y-117206097D01*
X200483288Y-117179025D01*
X200483289Y-117179025D01*
X200488416Y-117178368D01*
X200524121Y-117167656D01*
X200697429Y-117115661D01*
X200697434Y-117115659D01*
X200702384Y-117114174D01*
X200902994Y-117015896D01*
X201084860Y-116886173D01*
X201106184Y-116864924D01*
X201213236Y-116758245D01*
X201243096Y-116728489D01*
X201302594Y-116645689D01*
X201373453Y-116547077D01*
X201374776Y-116548028D01*
X201421645Y-116504857D01*
X201491580Y-116492625D01*
X201557026Y-116520144D01*
X201584875Y-116551994D01*
X201590336Y-116560905D01*
X201644987Y-116650088D01*
X201791250Y-116818938D01*
X201963126Y-116961632D01*
X202156000Y-117074338D01*
X202364692Y-117154030D01*
X202369760Y-117155061D01*
X202369763Y-117155062D01*
X202477017Y-117176883D01*
X202583597Y-117198567D01*
X202588772Y-117198757D01*
X202588774Y-117198757D01*
X202801673Y-117206564D01*
X202801677Y-117206564D01*
X202806837Y-117206753D01*
X202811957Y-117206097D01*
X202811959Y-117206097D01*
X203023288Y-117179025D01*
X203023289Y-117179025D01*
X203028416Y-117178368D01*
X203064121Y-117167656D01*
X203237429Y-117115661D01*
X203237434Y-117115659D01*
X203242384Y-117114174D01*
X203442994Y-117015896D01*
X203624860Y-116886173D01*
X203646184Y-116864924D01*
X203753236Y-116758245D01*
X203783096Y-116728489D01*
X203842594Y-116645689D01*
X203910435Y-116551277D01*
X203913453Y-116547077D01*
X203915942Y-116542042D01*
X204010136Y-116351453D01*
X204010137Y-116351451D01*
X204012430Y-116346811D01*
X204026844Y-116299370D01*
X204032349Y-116281251D01*
X204071290Y-116221887D01*
X204136144Y-116193000D01*
X204206320Y-116203762D01*
X204259538Y-116250755D01*
X204267333Y-116265129D01*
X204325872Y-116392111D01*
X204331623Y-116402072D01*
X204441634Y-116557734D01*
X204449112Y-116566489D01*
X204585642Y-116699490D01*
X204594586Y-116706733D01*
X204753073Y-116812631D01*
X204763183Y-116818121D01*
X204768356Y-116820343D01*
X204782355Y-116822034D01*
X204785000Y-116817707D01*
X204785000Y-116807713D01*
X205785000Y-116807713D01*
X205788973Y-116821244D01*
X205791037Y-116821540D01*
X205795136Y-116820152D01*
X205905678Y-116758245D01*
X205915157Y-116751730D01*
X206061712Y-116629841D01*
X206069841Y-116621712D01*
X206191725Y-116475162D01*
X206198250Y-116465669D01*
X206291382Y-116299370D01*
X206296064Y-116288855D01*
X206297887Y-116283483D01*
X206338724Y-116225407D01*
X206404476Y-116198628D01*
X206474269Y-116211649D01*
X206525942Y-116260335D01*
X206533943Y-116276580D01*
X206603069Y-116446818D01*
X206608266Y-116459616D01*
X206648029Y-116524503D01*
X206722291Y-116645688D01*
X206724987Y-116650088D01*
X206871250Y-116818938D01*
X207043126Y-116961632D01*
X207236000Y-117074338D01*
X207444692Y-117154030D01*
X207449760Y-117155061D01*
X207449763Y-117155062D01*
X207557017Y-117176883D01*
X207663597Y-117198567D01*
X207668772Y-117198757D01*
X207668774Y-117198757D01*
X207881673Y-117206564D01*
X207881677Y-117206564D01*
X207886837Y-117206753D01*
X207891957Y-117206097D01*
X207891959Y-117206097D01*
X208103288Y-117179025D01*
X208103289Y-117179025D01*
X208108416Y-117178368D01*
X208144121Y-117167656D01*
X208317429Y-117115661D01*
X208317434Y-117115659D01*
X208322384Y-117114174D01*
X208522994Y-117015896D01*
X208704860Y-116886173D01*
X208726184Y-116864924D01*
X208833236Y-116758245D01*
X208863096Y-116728489D01*
X208922594Y-116645689D01*
X208993453Y-116547077D01*
X208994776Y-116548028D01*
X209041645Y-116504857D01*
X209111580Y-116492625D01*
X209177026Y-116520144D01*
X209204875Y-116551994D01*
X209210336Y-116560905D01*
X209264987Y-116650088D01*
X209411250Y-116818938D01*
X209583126Y-116961632D01*
X209776000Y-117074338D01*
X209984692Y-117154030D01*
X209989760Y-117155061D01*
X209989763Y-117155062D01*
X210097017Y-117176883D01*
X210203597Y-117198567D01*
X210208772Y-117198757D01*
X210208774Y-117198757D01*
X210421673Y-117206564D01*
X210421677Y-117206564D01*
X210426837Y-117206753D01*
X210431957Y-117206097D01*
X210431959Y-117206097D01*
X210643288Y-117179025D01*
X210643289Y-117179025D01*
X210648416Y-117178368D01*
X210684121Y-117167656D01*
X210857429Y-117115661D01*
X210857434Y-117115659D01*
X210862384Y-117114174D01*
X211062994Y-117015896D01*
X211244860Y-116886173D01*
X211266184Y-116864924D01*
X211373236Y-116758245D01*
X211403096Y-116728489D01*
X211462594Y-116645689D01*
X211533453Y-116547077D01*
X211534776Y-116548028D01*
X211581645Y-116504857D01*
X211651580Y-116492625D01*
X211717026Y-116520144D01*
X211744875Y-116551994D01*
X211750336Y-116560905D01*
X211804987Y-116650088D01*
X211951250Y-116818938D01*
X212123126Y-116961632D01*
X212316000Y-117074338D01*
X212524692Y-117154030D01*
X212529760Y-117155061D01*
X212529763Y-117155062D01*
X212637017Y-117176883D01*
X212743597Y-117198567D01*
X212748772Y-117198757D01*
X212748774Y-117198757D01*
X212961673Y-117206564D01*
X212961677Y-117206564D01*
X212966837Y-117206753D01*
X212971957Y-117206097D01*
X212971959Y-117206097D01*
X213183288Y-117179025D01*
X213183289Y-117179025D01*
X213188416Y-117178368D01*
X213224121Y-117167656D01*
X213397429Y-117115661D01*
X213397434Y-117115659D01*
X213402384Y-117114174D01*
X213602994Y-117015896D01*
X213784860Y-116886173D01*
X213806184Y-116864924D01*
X213913236Y-116758245D01*
X213943096Y-116728489D01*
X214002594Y-116645689D01*
X214070435Y-116551277D01*
X214073453Y-116547077D01*
X214075942Y-116542042D01*
X214170136Y-116351453D01*
X214170137Y-116351451D01*
X214172430Y-116346811D01*
X214213287Y-116212334D01*
X214235865Y-116138023D01*
X214235865Y-116138021D01*
X214237370Y-116133069D01*
X214266529Y-115911590D01*
X214266611Y-115908240D01*
X214268074Y-115848365D01*
X214268074Y-115848361D01*
X214268156Y-115845000D01*
X214249852Y-115622361D01*
X214195431Y-115405702D01*
X214106354Y-115200840D01*
X214032349Y-115086446D01*
X213987822Y-115017617D01*
X213987820Y-115017614D01*
X213985014Y-115013277D01*
X213834670Y-114848051D01*
X213830619Y-114844852D01*
X213830615Y-114844848D01*
X213663414Y-114712800D01*
X213663410Y-114712798D01*
X213659359Y-114709598D01*
X213618053Y-114686796D01*
X213568084Y-114636364D01*
X213553312Y-114566921D01*
X213578428Y-114500516D01*
X213605780Y-114473909D01*
X213649603Y-114442650D01*
X213784860Y-114346173D01*
X213943096Y-114188489D01*
X214002594Y-114105689D01*
X214070435Y-114011277D01*
X214073453Y-114007077D01*
X214094320Y-113964857D01*
X214170136Y-113811453D01*
X214170137Y-113811451D01*
X214172430Y-113806811D01*
X214212326Y-113675497D01*
X214235865Y-113598023D01*
X214235865Y-113598021D01*
X214237370Y-113593069D01*
X214266529Y-113371590D01*
X214268156Y-113305000D01*
X214249852Y-113082361D01*
X214195431Y-112865702D01*
X214106354Y-112660840D01*
X214034068Y-112549103D01*
X213987822Y-112477617D01*
X213987820Y-112477614D01*
X213985014Y-112473277D01*
X213834670Y-112308051D01*
X213830619Y-112304852D01*
X213830615Y-112304848D01*
X213663414Y-112172800D01*
X213663410Y-112172798D01*
X213659359Y-112169598D01*
X213463789Y-112061638D01*
X213458920Y-112059914D01*
X213458916Y-112059912D01*
X213258087Y-111988795D01*
X213258083Y-111988794D01*
X213253212Y-111987069D01*
X213248119Y-111986162D01*
X213248116Y-111986161D01*
X213038373Y-111948800D01*
X213038367Y-111948799D01*
X213033284Y-111947894D01*
X212959452Y-111946992D01*
X212815081Y-111945228D01*
X212815079Y-111945228D01*
X212809911Y-111945165D01*
X212589091Y-111978955D01*
X212376756Y-112048357D01*
X212178607Y-112151507D01*
X212174474Y-112154610D01*
X212174471Y-112154612D01*
X212150247Y-112172800D01*
X211999965Y-112285635D01*
X211845629Y-112447138D01*
X211738201Y-112604621D01*
X211683293Y-112649621D01*
X211612768Y-112657792D01*
X211549021Y-112626538D01*
X211528324Y-112602054D01*
X211447822Y-112477617D01*
X211447820Y-112477614D01*
X211445014Y-112473277D01*
X211294670Y-112308051D01*
X211290619Y-112304852D01*
X211290615Y-112304848D01*
X211123414Y-112172800D01*
X211123410Y-112172798D01*
X211119359Y-112169598D01*
X210923789Y-112061638D01*
X210918920Y-112059914D01*
X210918916Y-112059912D01*
X210718087Y-111988795D01*
X210718083Y-111988794D01*
X210713212Y-111987069D01*
X210708119Y-111986162D01*
X210708116Y-111986161D01*
X210498373Y-111948800D01*
X210498367Y-111948799D01*
X210493284Y-111947894D01*
X210419452Y-111946992D01*
X210275081Y-111945228D01*
X210275079Y-111945228D01*
X210269911Y-111945165D01*
X210049091Y-111978955D01*
X209836756Y-112048357D01*
X209638607Y-112151507D01*
X209634474Y-112154610D01*
X209634471Y-112154612D01*
X209610247Y-112172800D01*
X209459965Y-112285635D01*
X209305629Y-112447138D01*
X209198201Y-112604621D01*
X209143293Y-112649621D01*
X209072768Y-112657792D01*
X209009021Y-112626538D01*
X208988324Y-112602054D01*
X208907822Y-112477617D01*
X208907820Y-112477614D01*
X208905014Y-112473277D01*
X208754670Y-112308051D01*
X208750619Y-112304852D01*
X208750615Y-112304848D01*
X208583414Y-112172800D01*
X208583410Y-112172798D01*
X208579359Y-112169598D01*
X208383789Y-112061638D01*
X208378920Y-112059914D01*
X208378916Y-112059912D01*
X208178087Y-111988795D01*
X208178083Y-111988794D01*
X208173212Y-111987069D01*
X208168119Y-111986162D01*
X208168116Y-111986161D01*
X207958373Y-111948800D01*
X207958367Y-111948799D01*
X207953284Y-111947894D01*
X207879452Y-111946992D01*
X207735081Y-111945228D01*
X207735079Y-111945228D01*
X207729911Y-111945165D01*
X207509091Y-111978955D01*
X207296756Y-112048357D01*
X207098607Y-112151507D01*
X207094474Y-112154610D01*
X207094471Y-112154612D01*
X207070247Y-112172800D01*
X206919965Y-112285635D01*
X206765629Y-112447138D01*
X206639743Y-112631680D01*
X206624003Y-112665590D01*
X206559510Y-112804529D01*
X206545688Y-112834305D01*
X206538151Y-112861482D01*
X206500674Y-112921777D01*
X206436546Y-112952241D01*
X206366127Y-112943198D01*
X206311777Y-112897520D01*
X206303729Y-112883536D01*
X206229478Y-112732970D01*
X206223468Y-112723162D01*
X206109419Y-112570433D01*
X206101717Y-112561879D01*
X205961752Y-112432496D01*
X205952620Y-112425489D01*
X205795215Y-112326174D01*
X205787786Y-112325474D01*
X205785000Y-112330313D01*
X205785000Y-114267713D01*
X205788973Y-114281244D01*
X205791037Y-114281540D01*
X205795136Y-114280152D01*
X205905678Y-114218245D01*
X205915157Y-114211730D01*
X206061712Y-114089841D01*
X206069841Y-114081712D01*
X206191725Y-113935162D01*
X206198250Y-113925669D01*
X206291382Y-113759370D01*
X206296064Y-113748855D01*
X206297887Y-113743483D01*
X206338724Y-113685407D01*
X206404476Y-113658628D01*
X206474269Y-113671649D01*
X206525942Y-113720335D01*
X206533943Y-113736580D01*
X206577697Y-113844333D01*
X206608266Y-113919616D01*
X206659019Y-114002438D01*
X206722291Y-114105688D01*
X206724987Y-114110088D01*
X206871250Y-114278938D01*
X207043126Y-114421632D01*
X207113595Y-114462811D01*
X207116445Y-114464476D01*
X207165169Y-114516114D01*
X207178240Y-114585897D01*
X207151509Y-114651669D01*
X207111055Y-114685027D01*
X207098607Y-114691507D01*
X207094474Y-114694610D01*
X207094471Y-114694612D01*
X206924100Y-114822530D01*
X206919965Y-114825635D01*
X206765629Y-114987138D01*
X206639743Y-115171680D01*
X206625946Y-115201404D01*
X206560067Y-115343329D01*
X206545688Y-115374305D01*
X206538151Y-115401482D01*
X206500674Y-115461777D01*
X206436546Y-115492241D01*
X206366127Y-115483198D01*
X206311777Y-115437520D01*
X206303729Y-115423536D01*
X206229478Y-115272970D01*
X206223468Y-115263162D01*
X206109419Y-115110433D01*
X206101717Y-115101879D01*
X205961752Y-114972496D01*
X205952620Y-114965489D01*
X205795215Y-114866174D01*
X205787786Y-114865474D01*
X205785000Y-114870313D01*
X205785000Y-116807713D01*
X204785000Y-116807713D01*
X204785000Y-114880539D01*
X204781027Y-114867008D01*
X204779827Y-114866836D01*
X204774303Y-114868788D01*
X204640629Y-114948315D01*
X204631323Y-114955077D01*
X204488015Y-115080755D01*
X204480094Y-115089103D01*
X204362087Y-115238793D01*
X204355822Y-115248440D01*
X204264910Y-115421236D01*
X204215490Y-115472209D01*
X204146358Y-115488372D01*
X204079462Y-115464593D01*
X204035851Y-115405519D01*
X204035431Y-115405702D01*
X204034636Y-115403874D01*
X204013997Y-115356406D01*
X203977717Y-115272970D01*
X203946354Y-115200840D01*
X203872349Y-115086446D01*
X203827822Y-115017617D01*
X203827820Y-115017614D01*
X203825014Y-115013277D01*
X203674670Y-114848051D01*
X203670619Y-114844852D01*
X203670615Y-114844848D01*
X203503414Y-114712800D01*
X203503410Y-114712798D01*
X203499359Y-114709598D01*
X203458053Y-114686796D01*
X203408084Y-114636364D01*
X203393312Y-114566921D01*
X203418428Y-114500516D01*
X203445780Y-114473909D01*
X203489603Y-114442650D01*
X203624860Y-114346173D01*
X203783096Y-114188489D01*
X203842594Y-114105689D01*
X203910435Y-114011277D01*
X203913453Y-114007077D01*
X203934320Y-113964857D01*
X204010136Y-113811453D01*
X204010137Y-113811451D01*
X204012430Y-113806811D01*
X204026844Y-113759370D01*
X204032349Y-113741251D01*
X204071290Y-113681887D01*
X204136144Y-113653000D01*
X204206320Y-113663762D01*
X204259538Y-113710755D01*
X204267333Y-113725129D01*
X204325872Y-113852111D01*
X204331623Y-113862072D01*
X204441634Y-114017734D01*
X204449112Y-114026489D01*
X204585642Y-114159490D01*
X204594586Y-114166733D01*
X204753073Y-114272631D01*
X204763183Y-114278121D01*
X204768356Y-114280343D01*
X204782355Y-114282034D01*
X204785000Y-114277707D01*
X204785000Y-112340539D01*
X204781027Y-112327008D01*
X204779827Y-112326836D01*
X204774303Y-112328788D01*
X204640629Y-112408315D01*
X204631323Y-112415077D01*
X204488015Y-112540755D01*
X204480094Y-112549103D01*
X204362087Y-112698793D01*
X204355822Y-112708440D01*
X204264910Y-112881236D01*
X204215490Y-112932209D01*
X204146358Y-112948372D01*
X204079462Y-112924593D01*
X204035851Y-112865519D01*
X204035431Y-112865702D01*
X204034636Y-112863874D01*
X204013997Y-112816406D01*
X203977717Y-112732970D01*
X203946354Y-112660840D01*
X203874068Y-112549103D01*
X203827822Y-112477617D01*
X203827820Y-112477614D01*
X203825014Y-112473277D01*
X203674670Y-112308051D01*
X203670619Y-112304852D01*
X203670615Y-112304848D01*
X203503414Y-112172800D01*
X203503410Y-112172798D01*
X203499359Y-112169598D01*
X203303789Y-112061638D01*
X203298920Y-112059914D01*
X203298916Y-112059912D01*
X203098087Y-111988795D01*
X203098083Y-111988794D01*
X203093212Y-111987069D01*
X203088119Y-111986162D01*
X203088116Y-111986161D01*
X202878373Y-111948800D01*
X202878367Y-111948799D01*
X202873284Y-111947894D01*
X202799452Y-111946992D01*
X202655081Y-111945228D01*
X202655079Y-111945228D01*
X202649911Y-111945165D01*
X202429091Y-111978955D01*
X202216756Y-112048357D01*
X202018607Y-112151507D01*
X202014474Y-112154610D01*
X202014471Y-112154612D01*
X201990247Y-112172800D01*
X201839965Y-112285635D01*
X201685629Y-112447138D01*
X201578201Y-112604621D01*
X201523293Y-112649621D01*
X201452768Y-112657792D01*
X201389021Y-112626538D01*
X201368324Y-112602054D01*
X201287822Y-112477617D01*
X201287820Y-112477614D01*
X201285014Y-112473277D01*
X201134670Y-112308051D01*
X201130619Y-112304852D01*
X201130615Y-112304848D01*
X200963414Y-112172800D01*
X200963410Y-112172798D01*
X200959359Y-112169598D01*
X200763789Y-112061638D01*
X200758920Y-112059914D01*
X200758916Y-112059912D01*
X200558087Y-111988795D01*
X200558083Y-111988794D01*
X200553212Y-111987069D01*
X200548119Y-111986162D01*
X200548116Y-111986161D01*
X200338373Y-111948800D01*
X200338367Y-111948799D01*
X200333284Y-111947894D01*
X200259452Y-111946992D01*
X200115081Y-111945228D01*
X200115079Y-111945228D01*
X200109911Y-111945165D01*
X199889091Y-111978955D01*
X199676756Y-112048357D01*
X199478607Y-112151507D01*
X199474474Y-112154610D01*
X199474471Y-112154612D01*
X199450247Y-112172800D01*
X199299965Y-112285635D01*
X199145629Y-112447138D01*
X199038201Y-112604621D01*
X198983293Y-112649621D01*
X198912768Y-112657792D01*
X198849021Y-112626538D01*
X198828324Y-112602054D01*
X198747822Y-112477617D01*
X198747820Y-112477614D01*
X198745014Y-112473277D01*
X198594670Y-112308051D01*
X198590619Y-112304852D01*
X198590615Y-112304848D01*
X198423414Y-112172800D01*
X198423410Y-112172798D01*
X198419359Y-112169598D01*
X198223789Y-112061638D01*
X198218920Y-112059914D01*
X198218916Y-112059912D01*
X198018087Y-111988795D01*
X198018083Y-111988794D01*
X198013212Y-111987069D01*
X198008119Y-111986162D01*
X198008116Y-111986161D01*
X197798373Y-111948800D01*
X197798367Y-111948799D01*
X197793284Y-111947894D01*
X197719452Y-111946992D01*
X197575081Y-111945228D01*
X197575079Y-111945228D01*
X197569911Y-111945165D01*
X197349091Y-111978955D01*
X197136756Y-112048357D01*
X196938607Y-112151507D01*
X196934474Y-112154610D01*
X196934471Y-112154612D01*
X196910247Y-112172800D01*
X196759965Y-112285635D01*
X196605629Y-112447138D01*
X196479743Y-112631680D01*
X196464003Y-112665590D01*
X196399510Y-112804529D01*
X196385688Y-112834305D01*
X196378151Y-112861482D01*
X196340674Y-112921777D01*
X196276546Y-112952241D01*
X196206127Y-112943198D01*
X196151777Y-112897520D01*
X196143729Y-112883536D01*
X196069478Y-112732970D01*
X196063468Y-112723162D01*
X195949419Y-112570433D01*
X195941717Y-112561879D01*
X195801752Y-112432496D01*
X195792620Y-112425489D01*
X195635215Y-112326174D01*
X195627786Y-112325474D01*
X195625000Y-112330313D01*
X195625000Y-114267713D01*
X195628973Y-114281244D01*
X195631037Y-114281540D01*
X195635136Y-114280152D01*
X195745678Y-114218245D01*
X195755157Y-114211730D01*
X195901712Y-114089841D01*
X195909841Y-114081712D01*
X196031725Y-113935162D01*
X196038250Y-113925669D01*
X196131382Y-113759370D01*
X196136064Y-113748855D01*
X196137887Y-113743483D01*
X196178724Y-113685407D01*
X196244476Y-113658628D01*
X196314269Y-113671649D01*
X196365942Y-113720335D01*
X196373943Y-113736580D01*
X196417697Y-113844333D01*
X196448266Y-113919616D01*
X196499019Y-114002438D01*
X196562291Y-114105688D01*
X196564987Y-114110088D01*
X196711250Y-114278938D01*
X196883126Y-114421632D01*
X196953595Y-114462811D01*
X196956445Y-114464476D01*
X197005169Y-114516114D01*
X197018240Y-114585897D01*
X196991509Y-114651669D01*
X196951055Y-114685027D01*
X196938607Y-114691507D01*
X196934474Y-114694610D01*
X196934471Y-114694612D01*
X196764100Y-114822530D01*
X196759965Y-114825635D01*
X196605629Y-114987138D01*
X196479743Y-115171680D01*
X196465946Y-115201404D01*
X196465288Y-115202821D01*
X196418464Y-115256188D01*
X196350221Y-115275769D01*
X196282225Y-115255346D01*
X196236065Y-115201404D01*
X196225000Y-115149771D01*
X196225000Y-114976563D01*
X196223793Y-114964309D01*
X196212915Y-114909623D01*
X196203602Y-114887138D01*
X196162133Y-114825076D01*
X196144924Y-114807867D01*
X196082862Y-114766398D01*
X196060377Y-114757085D01*
X196005691Y-114746207D01*
X195993437Y-114745000D01*
X195643115Y-114745000D01*
X195627876Y-114749475D01*
X195626671Y-114750865D01*
X195625000Y-114758548D01*
X195625000Y-116926885D01*
X194625000Y-116926885D01*
X194625000Y-116363115D01*
X194620525Y-116347876D01*
X194619135Y-116346671D01*
X194611452Y-116345000D01*
X194043115Y-116345000D01*
X194027876Y-116349475D01*
X194026671Y-116350865D01*
X194025000Y-116358548D01*
X194025000Y-116713437D01*
X190336892Y-116713437D01*
X190457138Y-116560905D01*
X190463409Y-116551249D01*
X190560713Y-116366304D01*
X190565119Y-116355667D01*
X190627092Y-116156084D01*
X190629485Y-116144826D01*
X190649564Y-115975181D01*
X190650000Y-115967778D01*
X190650000Y-115618115D01*
X190645525Y-115602876D01*
X190644135Y-115601671D01*
X190636452Y-115600000D01*
X189968115Y-115600000D01*
X189952876Y-115604475D01*
X189951671Y-115605865D01*
X189950000Y-115613548D01*
X189950000Y-116976574D01*
X188950000Y-116976574D01*
X188950000Y-115618115D01*
X188945525Y-115602876D01*
X188944135Y-115601671D01*
X188936452Y-115600000D01*
X188268115Y-115600000D01*
X188252876Y-115604475D01*
X188251671Y-115605865D01*
X188250000Y-115613548D01*
X188250000Y-115953052D01*
X186678891Y-115953052D01*
X186733836Y-115908240D01*
X186794689Y-115858610D01*
X186794692Y-115858607D01*
X186799464Y-115854715D01*
X186931783Y-115694770D01*
X186935876Y-115687201D01*
X187027584Y-115517590D01*
X187027586Y-115517585D01*
X187030514Y-115512170D01*
X187087869Y-115326885D01*
X194025000Y-115326885D01*
X194029475Y-115342124D01*
X194030865Y-115343329D01*
X194038548Y-115345000D01*
X194606885Y-115345000D01*
X194622124Y-115340525D01*
X194623329Y-115339135D01*
X194625000Y-115331452D01*
X194625000Y-114763115D01*
X194620525Y-114747876D01*
X194619135Y-114746671D01*
X194611452Y-114745000D01*
X194256563Y-114745000D01*
X194244309Y-114746207D01*
X194189623Y-114757085D01*
X194167138Y-114766398D01*
X194105076Y-114807867D01*
X194087867Y-114825076D01*
X194046398Y-114887138D01*
X194037085Y-114909623D01*
X194026207Y-114964309D01*
X194025000Y-114976563D01*
X194025000Y-115326885D01*
X187087869Y-115326885D01*
X187091898Y-115313871D01*
X187093429Y-115299303D01*
X187112952Y-115113554D01*
X187112952Y-115113552D01*
X187113596Y-115107425D01*
X187102309Y-114983401D01*
X187095341Y-114906836D01*
X187095340Y-114906833D01*
X187094782Y-114900697D01*
X187092298Y-114892255D01*
X187037912Y-114707469D01*
X187036173Y-114701560D01*
X186973608Y-114581885D01*
X188250000Y-114581885D01*
X188254475Y-114597124D01*
X188255865Y-114598329D01*
X188263548Y-114600000D01*
X188931885Y-114600000D01*
X188947124Y-114595525D01*
X188948329Y-114594135D01*
X188950000Y-114586452D01*
X188950000Y-114581885D01*
X189950000Y-114581885D01*
X189954475Y-114597124D01*
X189955865Y-114598329D01*
X189963548Y-114600000D01*
X190631885Y-114600000D01*
X190647124Y-114595525D01*
X190648329Y-114594135D01*
X190650000Y-114586452D01*
X190650000Y-114246948D01*
X190649734Y-114241159D01*
X190635490Y-114086134D01*
X190633393Y-114074820D01*
X190576664Y-113873675D01*
X190572542Y-113862936D01*
X190548175Y-113813525D01*
X194148084Y-113813525D01*
X194165869Y-113852105D01*
X194171625Y-113862075D01*
X194281634Y-114017734D01*
X194289112Y-114026489D01*
X194425642Y-114159490D01*
X194434586Y-114166733D01*
X194593073Y-114272631D01*
X194603183Y-114278121D01*
X194608356Y-114280343D01*
X194622355Y-114282034D01*
X194625000Y-114277707D01*
X194625000Y-113823115D01*
X194620525Y-113807876D01*
X194619135Y-113806671D01*
X194611452Y-113805000D01*
X194162269Y-113805000D01*
X194148738Y-113808973D01*
X194148084Y-113813525D01*
X190548175Y-113813525D01*
X190480107Y-113675497D01*
X190474097Y-113665689D01*
X190349047Y-113498227D01*
X190341357Y-113489687D01*
X190187883Y-113347816D01*
X190178758Y-113340815D01*
X190002006Y-113229293D01*
X189991759Y-113224072D01*
X189966828Y-113214126D01*
X189952785Y-113212802D01*
X189950000Y-113217640D01*
X189950000Y-114581885D01*
X188950000Y-114581885D01*
X188950000Y-113223426D01*
X188946027Y-113209895D01*
X188939945Y-113209021D01*
X188936590Y-113210258D01*
X188926211Y-113215209D01*
X188746604Y-113322064D01*
X188737292Y-113328829D01*
X188580163Y-113466629D01*
X188572246Y-113474972D01*
X188442862Y-113639095D01*
X188436591Y-113648751D01*
X188339287Y-113833696D01*
X188334881Y-113844333D01*
X188272908Y-114043916D01*
X188270515Y-114055174D01*
X188250436Y-114224819D01*
X188250000Y-114232222D01*
X188250000Y-114581885D01*
X186973608Y-114581885D01*
X186940001Y-114517600D01*
X186809929Y-114355823D01*
X186802002Y-114349171D01*
X186655629Y-114226350D01*
X186650911Y-114222391D01*
X186645519Y-114219427D01*
X186645515Y-114219424D01*
X186474402Y-114125354D01*
X186469005Y-114122387D01*
X186271139Y-114059621D01*
X186265022Y-114058935D01*
X186265018Y-114058934D01*
X186188402Y-114050341D01*
X186109587Y-114041500D01*
X185997763Y-114041500D01*
X185994707Y-114041800D01*
X185994700Y-114041800D01*
X185849534Y-114056034D01*
X185849531Y-114056035D01*
X185843408Y-114056635D01*
X185733423Y-114089841D01*
X185650593Y-114114848D01*
X185650590Y-114114849D01*
X185644685Y-114116632D01*
X185639240Y-114119527D01*
X185639238Y-114119528D01*
X185466847Y-114211191D01*
X185466845Y-114211192D01*
X185461401Y-114214087D01*
X185421109Y-114246948D01*
X185305311Y-114341390D01*
X185305308Y-114341393D01*
X185300536Y-114345285D01*
X185168217Y-114505230D01*
X185165288Y-114510647D01*
X185165286Y-114510650D01*
X185072416Y-114682410D01*
X185072414Y-114682415D01*
X185069486Y-114687830D01*
X185008102Y-114886129D01*
X185007458Y-114892254D01*
X185007458Y-114892255D01*
X184997037Y-114991411D01*
X184986404Y-115092575D01*
X182512245Y-115092575D01*
X182502309Y-114983401D01*
X182495341Y-114906836D01*
X182495340Y-114906833D01*
X182494782Y-114900697D01*
X182492298Y-114892255D01*
X182437912Y-114707469D01*
X182436173Y-114701560D01*
X182340001Y-114517600D01*
X182209929Y-114355823D01*
X182202002Y-114349171D01*
X182055629Y-114226350D01*
X182050911Y-114222391D01*
X182045519Y-114219427D01*
X182045515Y-114219424D01*
X181874402Y-114125354D01*
X181869005Y-114122387D01*
X181671139Y-114059621D01*
X181665022Y-114058935D01*
X181665018Y-114058934D01*
X181588402Y-114050341D01*
X181509587Y-114041500D01*
X181397763Y-114041500D01*
X181394707Y-114041800D01*
X181394700Y-114041800D01*
X181249534Y-114056034D01*
X181249531Y-114056035D01*
X181243408Y-114056635D01*
X181133423Y-114089841D01*
X181050593Y-114114848D01*
X181050590Y-114114849D01*
X181044685Y-114116632D01*
X181039240Y-114119527D01*
X181039238Y-114119528D01*
X180866847Y-114211191D01*
X180866845Y-114211192D01*
X180861401Y-114214087D01*
X180821109Y-114246948D01*
X180705311Y-114341390D01*
X180705308Y-114341393D01*
X180700536Y-114345285D01*
X180568217Y-114505230D01*
X180565288Y-114510647D01*
X180565286Y-114510650D01*
X180472416Y-114682410D01*
X180472414Y-114682415D01*
X180469486Y-114687830D01*
X180408102Y-114886129D01*
X180407458Y-114892254D01*
X180407458Y-114892255D01*
X180397037Y-114991411D01*
X180386404Y-115092575D01*
X173508000Y-115092575D01*
X173508000Y-114581885D01*
X176850000Y-114581885D01*
X176854475Y-114597124D01*
X176855865Y-114598329D01*
X176863548Y-114600000D01*
X177531885Y-114600000D01*
X177547124Y-114595525D01*
X177548329Y-114594135D01*
X177550000Y-114586452D01*
X177550000Y-114581885D01*
X178550000Y-114581885D01*
X178554475Y-114597124D01*
X178555865Y-114598329D01*
X178563548Y-114600000D01*
X179231885Y-114600000D01*
X179247124Y-114595525D01*
X179248329Y-114594135D01*
X179250000Y-114586452D01*
X179250000Y-114246948D01*
X179249734Y-114241159D01*
X179235490Y-114086134D01*
X179233393Y-114074820D01*
X179176664Y-113873675D01*
X179172542Y-113862936D01*
X179080107Y-113675497D01*
X179074097Y-113665689D01*
X178949047Y-113498227D01*
X178941357Y-113489687D01*
X178787883Y-113347816D01*
X178778758Y-113340815D01*
X178602006Y-113229293D01*
X178591759Y-113224072D01*
X178566828Y-113214126D01*
X178552785Y-113212802D01*
X178550000Y-113217640D01*
X178550000Y-114581885D01*
X177550000Y-114581885D01*
X177550000Y-113223426D01*
X177546027Y-113209895D01*
X177539945Y-113209021D01*
X177536590Y-113210258D01*
X177526211Y-113215209D01*
X177346604Y-113322064D01*
X177337292Y-113328829D01*
X177180163Y-113466629D01*
X177172246Y-113474972D01*
X177042862Y-113639095D01*
X177036591Y-113648751D01*
X176939287Y-113833696D01*
X176934881Y-113844333D01*
X176872908Y-114043916D01*
X176870515Y-114055174D01*
X176850436Y-114224819D01*
X176850000Y-114232222D01*
X176850000Y-114581885D01*
X173508000Y-114581885D01*
X173508000Y-112802792D01*
X194150670Y-112802792D01*
X194153066Y-112804529D01*
X194155800Y-112805000D01*
X194606885Y-112805000D01*
X194622124Y-112800525D01*
X194623329Y-112799135D01*
X194625000Y-112791452D01*
X194625000Y-112340539D01*
X194621027Y-112327008D01*
X194619827Y-112326836D01*
X194614303Y-112328788D01*
X194480629Y-112408315D01*
X194471323Y-112415077D01*
X194328015Y-112540755D01*
X194320094Y-112549103D01*
X194202084Y-112698796D01*
X194195822Y-112708439D01*
X194153453Y-112788969D01*
X194150670Y-112802792D01*
X173508000Y-112802792D01*
X173508000Y-109500634D01*
X174761500Y-109500634D01*
X174768255Y-109562816D01*
X174819385Y-109699205D01*
X174906739Y-109815761D01*
X175023295Y-109903115D01*
X175159684Y-109954245D01*
X175221866Y-109961000D01*
X177318134Y-109961000D01*
X177380316Y-109954245D01*
X177516705Y-109903115D01*
X177633261Y-109815761D01*
X177720615Y-109699205D01*
X177771745Y-109562816D01*
X177778500Y-109500634D01*
X177778500Y-107499366D01*
X177771745Y-107437184D01*
X177720615Y-107300795D01*
X177633261Y-107184239D01*
X177516705Y-107096885D01*
X177380316Y-107045755D01*
X177318134Y-107039000D01*
X177245823Y-107039000D01*
X177177702Y-107018998D01*
X177131209Y-106965342D01*
X177121105Y-106895068D01*
X177153298Y-106827471D01*
X177271680Y-106699406D01*
X177278674Y-106690292D01*
X177390447Y-106513143D01*
X177395666Y-106502900D01*
X177406067Y-106476828D01*
X177407392Y-106462786D01*
X177402553Y-106460000D01*
X175143262Y-106460000D01*
X175129731Y-106463973D01*
X175128857Y-106470056D01*
X175130492Y-106474490D01*
X175135444Y-106484871D01*
X175242535Y-106664875D01*
X175249294Y-106674178D01*
X175385878Y-106829922D01*
X175415755Y-106894327D01*
X175406069Y-106964659D01*
X175359896Y-107018591D01*
X175291146Y-107039000D01*
X175221866Y-107039000D01*
X175159684Y-107045755D01*
X175023295Y-107096885D01*
X174906739Y-107184239D01*
X174819385Y-107300795D01*
X174768255Y-107437184D01*
X174761500Y-107499366D01*
X174761500Y-109500634D01*
X173508000Y-109500634D01*
X173508000Y-103522263D01*
X174760064Y-103522263D01*
X174796404Y-103759744D01*
X174818205Y-103826445D01*
X174869434Y-103983183D01*
X174869437Y-103983189D01*
X174871042Y-103988101D01*
X174873429Y-103992687D01*
X174873431Y-103992691D01*
X174946732Y-104133500D01*
X174981975Y-104201200D01*
X175126223Y-104393320D01*
X175299912Y-104559301D01*
X175498378Y-104694686D01*
X175558858Y-104722760D01*
X175612223Y-104769584D01*
X175631804Y-104837827D01*
X175611380Y-104905822D01*
X175581195Y-104938005D01*
X175419053Y-105059083D01*
X175410499Y-105066785D01*
X175268325Y-105220587D01*
X175261326Y-105229708D01*
X175149553Y-105406857D01*
X175144334Y-105417100D01*
X175133933Y-105443172D01*
X175132608Y-105457214D01*
X175137447Y-105460000D01*
X177396738Y-105460000D01*
X177410269Y-105456027D01*
X177411143Y-105449944D01*
X177409508Y-105445510D01*
X177404556Y-105435129D01*
X177297465Y-105255125D01*
X177290701Y-105245816D01*
X177152598Y-105088339D01*
X177144263Y-105080429D01*
X176979771Y-104950755D01*
X176968455Y-104943406D01*
X176922218Y-104889530D01*
X176912448Y-104819208D01*
X176942248Y-104754769D01*
X176986836Y-104722184D01*
X177005520Y-104714060D01*
X177005527Y-104714056D01*
X177010263Y-104711997D01*
X177163426Y-104612911D01*
X177207637Y-104584310D01*
X177207640Y-104584308D01*
X177211977Y-104581502D01*
X177389670Y-104419814D01*
X177515660Y-104260283D01*
X177535367Y-104235330D01*
X177535370Y-104235325D01*
X177538568Y-104231276D01*
X177552885Y-104205342D01*
X177652177Y-104025474D01*
X177652179Y-104025470D01*
X177654674Y-104020950D01*
X177658142Y-104011159D01*
X177733144Y-103799360D01*
X177733145Y-103799356D01*
X177734870Y-103794485D01*
X177740183Y-103764659D01*
X177776095Y-103563052D01*
X177776096Y-103563046D01*
X177777001Y-103557963D01*
X177778906Y-103402008D01*
X177779873Y-103322907D01*
X177779873Y-103322905D01*
X177779936Y-103317737D01*
X177743596Y-103080256D01*
X177695232Y-102932285D01*
X177670566Y-102856817D01*
X177670563Y-102856811D01*
X177668958Y-102851899D01*
X177666147Y-102846498D01*
X177560416Y-102643393D01*
X177558025Y-102638800D01*
X177503188Y-102565764D01*
X177416882Y-102450815D01*
X177416880Y-102450812D01*
X177413777Y-102446680D01*
X177240088Y-102280699D01*
X177100015Y-102185147D01*
X177045891Y-102148226D01*
X177045890Y-102148225D01*
X177041622Y-102145314D01*
X177036939Y-102143140D01*
X177036935Y-102143138D01*
X176828405Y-102046342D01*
X176828401Y-102046341D01*
X176823710Y-102044163D01*
X176592202Y-101979960D01*
X176560846Y-101976609D01*
X176399407Y-101959356D01*
X176399399Y-101959356D01*
X176396072Y-101959000D01*
X176161598Y-101959000D01*
X176159025Y-101959212D01*
X176159014Y-101959212D01*
X176058054Y-101967513D01*
X175983063Y-101973678D01*
X175750056Y-102032206D01*
X175621229Y-102088221D01*
X175534474Y-102125943D01*
X175534471Y-102125945D01*
X175529737Y-102128003D01*
X175398530Y-102212885D01*
X175342943Y-102248846D01*
X175328023Y-102258498D01*
X175150330Y-102420186D01*
X175101069Y-102482561D01*
X175004633Y-102604670D01*
X175004630Y-102604675D01*
X175001432Y-102608724D01*
X174998939Y-102613240D01*
X174998937Y-102613243D01*
X174887823Y-102814526D01*
X174885326Y-102819050D01*
X174883602Y-102823919D01*
X174883600Y-102823923D01*
X174806856Y-103040640D01*
X174805130Y-103045515D01*
X174804223Y-103050608D01*
X174804222Y-103050611D01*
X174774519Y-103217365D01*
X174762999Y-103282037D01*
X174762936Y-103287201D01*
X174761296Y-103421463D01*
X174760064Y-103522263D01*
X173508000Y-103522263D01*
X173508000Y-102553207D01*
X173509746Y-102532303D01*
X173512264Y-102517335D01*
X173513071Y-102512539D01*
X173513224Y-102500000D01*
X173511502Y-102487975D01*
X173510499Y-102461871D01*
X173524502Y-102248234D01*
X173526653Y-102231894D01*
X173564270Y-102042779D01*
X173574266Y-101992527D01*
X173578529Y-101976617D01*
X173656978Y-101745514D01*
X173663284Y-101730290D01*
X173771224Y-101511408D01*
X173779465Y-101497134D01*
X173915050Y-101294217D01*
X173925083Y-101281142D01*
X174085998Y-101097653D01*
X174097653Y-101085998D01*
X174281142Y-100925083D01*
X174294217Y-100915050D01*
X174497134Y-100779465D01*
X174511408Y-100771224D01*
X174730290Y-100663284D01*
X174745516Y-100656977D01*
X174760378Y-100651932D01*
X174976617Y-100578529D01*
X174992527Y-100574266D01*
X175112212Y-100550459D01*
X175231894Y-100526653D01*
X175248234Y-100524502D01*
X175458268Y-100510736D01*
X175481304Y-100511761D01*
X175484854Y-100511804D01*
X175493730Y-100513186D01*
X175525252Y-100509064D01*
X175541589Y-100508000D01*
X197083273Y-100508000D01*
X197151394Y-100528002D01*
G37*
%TD.AperFunction*%
%TD*%
M02*
