M48
; DRILL file {KiCad 6.0.2} date Sat 12 Mar 2022 22:23:30 CET
; FORMAT={-:-/ absolute / inch / decimal}
; #@! TF.CreationDate,2022-03-12T22:23:30+01:00
; #@! TF.GenerationSoftware,Kicad,Pcbnew,6.0.2
; #@! TF.FileFunction,Plated,1,2,PTH
FMAT,2
INCH
; #@! TA.AperFunction,Plated,PTH,ViaDrill
T1C0.0157
; #@! TA.AperFunction,Plated,PTH,ComponentDrill
T2C0.0315
; #@! TA.AperFunction,Plated,PTH,ComponentDrill
T3C0.0354
; #@! TA.AperFunction,Plated,PTH,ComponentDrill
T4C0.0394
; #@! TA.AperFunction,Plated,PTH,ComponentDrill
T5C0.0433
; #@! TA.AperFunction,Plated,PTH,ComponentDrill
T6C0.0598
%
G90
G05
T1
X7.1949Y-4.3307
X7.2736Y-4.3307
X8.2146Y-4.0748
T2
X7.805Y-3.995
X7.805Y-4.295
X7.905Y-3.995
X7.905Y-4.295
X8.005Y-3.995
X8.005Y-4.295
X8.105Y-3.995
X8.105Y-4.295
T4
X7.6821Y-4.4608
X7.6821Y-4.5608
X7.7821Y-4.4608
X7.7821Y-4.5608
X7.8821Y-4.4608
X7.8821Y-4.5608
X7.9821Y-4.4608
X7.9821Y-4.5608
X8.0821Y-4.4608
X8.0821Y-4.5608
X8.1821Y-4.4608
X8.1821Y-4.5608
X8.2821Y-4.4608
X8.2821Y-4.5608
X8.3821Y-4.4608
X8.3821Y-4.5608
T5
X6.9398Y-4.0717
X6.9398Y-4.1717
X6.9398Y-4.2717
T6
X8.3465Y-4.0551
X8.3465Y-4.2551
T3
G00X7.0098Y-4.5
M15
G01X7.0098Y-4.563
M16
G05
G00X7.4587Y-4.5
M15
G01X7.4587Y-4.563
M16
G05
T0
M30
