%TF.GenerationSoftware,KiCad,Pcbnew,6.0.2*%
%TF.CreationDate,2022-03-13T21:00:17+01:00*%
%TF.ProjectId,panelized,70616e65-6c69-47a6-9564-2e6b69636164,rev?*%
%TF.SameCoordinates,Original*%
%TF.FileFunction,Soldermask,Bot*%
%TF.FilePolarity,Negative*%
%FSLAX46Y46*%
G04 Gerber Fmt 4.6, Leading zero omitted, Abs format (unit mm)*
G04 Created by KiCad (PCBNEW 6.0.2) date 2022-03-13 21:00:17*
%MOMM*%
%LPD*%
G01*
G04 APERTURE LIST*
%ADD10C,1.000000*%
%ADD11C,0.500000*%
%ADD12O,3.500000X3.500000*%
%ADD13R,2.000000X1.905000*%
%ADD14O,2.000000X1.905000*%
%ADD15C,1.100000*%
%ADD16O,1.900000X3.500000*%
%ADD17R,1.700000X1.700000*%
%ADD18O,1.700000X1.700000*%
%ADD19R,1.600000X1.600000*%
%ADD20O,1.600000X1.600000*%
%ADD21R,3.000000X3.000000*%
%ADD22C,3.000000*%
G04 APERTURE END LIST*
D10*
%TO.C,REF\u002A\u002A*%
X21000997Y-171001012D03*
%TD*%
%TO.C,REF\u002A\u002A*%
X172999010Y-33998998D03*
%TD*%
%TO.C,REF\u002A\u002A*%
X21000997Y-33998998D03*
%TD*%
D11*
%TO.C,REF\u002A\u002A*%
X28000997Y-33999498D03*
%TD*%
%TO.C,REF\u002A\u002A*%
X28000997Y-29832414D03*
%TD*%
%TO.C,REF\u002A\u002A*%
X39500497Y-58998999D03*
%TD*%
%TO.C,REF\u002A\u002A*%
X75001002Y-121500003D03*
%TD*%
%TO.C,REF\u002A\u002A*%
X133500502Y-76001002D03*
%TD*%
%TO.C,REF\u002A\u002A*%
X109499502Y-128999006D03*
%TD*%
%TO.C,REF\u002A\u002A*%
X98500002Y-58998998D03*
%TD*%
%TO.C,REF\u002A\u002A*%
X165999020Y-173500762D03*
%TD*%
%TO.C,REF\u002A\u002A*%
X24335163Y-41000998D03*
%TD*%
%TO.C,REF\u002A\u002A*%
X165999020Y-166833428D03*
%TD*%
%TO.C,REF\u002A\u002A*%
X95500002Y-41000998D03*
%TD*%
%TO.C,REF\u002A\u002A*%
X50499998Y-58998998D03*
%TD*%
%TO.C,REF\u002A\u002A*%
X59499499Y-41000999D03*
%TD*%
%TO.C,REF\u002A\u002A*%
X28000997Y-34832914D03*
%TD*%
%TO.C,REF\u002A\u002A*%
X86500501Y-128999001D03*
%TD*%
%TO.C,REF\u002A\u002A*%
X86500501Y-58998999D03*
%TD*%
%TO.C,REF\u002A\u002A*%
X122001005Y-120500003D03*
%TD*%
%TO.C,REF\u002A\u002A*%
X165999006Y-48499999D03*
%TD*%
D12*
%TO.C,U2*%
X93430004Y-116290008D03*
D13*
X76770004Y-113750008D03*
D14*
X76770004Y-116290008D03*
X76770004Y-118830008D03*
%TD*%
D11*
%TO.C,REF\u002A\u002A*%
X21834913Y-41000998D03*
%TD*%
D15*
%TO.C,J3*%
X85550004Y-161100013D03*
X80950004Y-161100013D03*
D16*
X88950004Y-161100013D03*
X77550004Y-161100013D03*
%TD*%
D11*
%TO.C,REF\u002A\u002A*%
X165999005Y-49499999D03*
%TD*%
%TO.C,REF\u002A\u002A*%
X51499998Y-163999006D03*
%TD*%
%TO.C,REF\u002A\u002A*%
X169664843Y-41000998D03*
%TD*%
%TO.C,REF\u002A\u002A*%
X122001006Y-51499999D03*
%TD*%
%TO.C,REF\u002A\u002A*%
X71998998Y-49499999D03*
%TD*%
%TO.C,REF\u002A\u002A*%
X84500501Y-128999001D03*
%TD*%
%TO.C,REF\u002A\u002A*%
X28000997Y-168500262D03*
%TD*%
%TO.C,REF\u002A\u002A*%
X98500002Y-76001001D03*
%TD*%
D15*
%TO.C,J3*%
X33949997Y-91100003D03*
X38549997Y-91100003D03*
D16*
X41949997Y-91100003D03*
X30549997Y-91100003D03*
%TD*%
D11*
%TO.C,REF\u002A\u002A*%
X51499998Y-93999001D03*
%TD*%
%TO.C,REF\u002A\u002A*%
X165999005Y-84500001D03*
%TD*%
%TO.C,REF\u002A\u002A*%
X97500002Y-76001001D03*
%TD*%
%TO.C,REF\u002A\u002A*%
X118999002Y-84500001D03*
%TD*%
%TO.C,REF\u002A\u002A*%
X38500497Y-76001002D03*
%TD*%
D12*
%TO.C,U2*%
X46429997Y-151290013D03*
D13*
X29769997Y-148750013D03*
D14*
X29769997Y-151290013D03*
X29769997Y-153830013D03*
%TD*%
D11*
%TO.C,REF\u002A\u002A*%
X28000997Y-171833928D03*
%TD*%
%TO.C,REF\u002A\u002A*%
X153499508Y-76001000D03*
%TD*%
%TO.C,REF\u002A\u002A*%
X39500497Y-111001006D03*
%TD*%
%TO.C,REF\u002A\u002A*%
X154499508Y-93999002D03*
%TD*%
%TO.C,REF\u002A\u002A*%
X28000997Y-166833428D03*
%TD*%
%TO.C,REF\u002A\u002A*%
X86500501Y-146001010D03*
%TD*%
%TO.C,REF\u002A\u002A*%
X155499508Y-76001000D03*
%TD*%
%TO.C,REF\u002A\u002A*%
X143500005Y-41000998D03*
%TD*%
%TO.C,REF\u002A\u002A*%
X133500502Y-58998999D03*
%TD*%
%TO.C,REF\u002A\u002A*%
X175498760Y-163999015D03*
%TD*%
%TO.C,REF\u002A\u002A*%
X50499998Y-93999001D03*
%TD*%
%TO.C,REF\u002A\u002A*%
X85500501Y-146001010D03*
%TD*%
%TO.C,REF\u002A\u002A*%
X28000997Y-33166081D03*
%TD*%
%TO.C,REF\u002A\u002A*%
X131500502Y-58998999D03*
%TD*%
D17*
%TO.C,J1*%
X45249997Y-92045003D03*
D18*
X45249997Y-89505003D03*
X47789997Y-92045003D03*
X47789997Y-89505003D03*
X50329997Y-92045003D03*
X50329997Y-89505003D03*
X52869997Y-92045003D03*
X52869997Y-89505003D03*
X55409997Y-92045003D03*
X55409997Y-89505003D03*
X57949997Y-92045003D03*
X57949997Y-89505003D03*
X60489997Y-92045003D03*
X60489997Y-89505003D03*
X63029997Y-92045003D03*
X63029997Y-89505003D03*
%TD*%
D11*
%TO.C,REF\u002A\u002A*%
X62499499Y-163999010D03*
%TD*%
%TO.C,REF\u002A\u002A*%
X95500002Y-146001007D03*
%TD*%
%TO.C,REF\u002A\u002A*%
X28000997Y-30665831D03*
%TD*%
%TO.C,REF\u002A\u002A*%
X122001004Y-83500001D03*
%TD*%
%TO.C,REF\u002A\u002A*%
X28000998Y-120500003D03*
%TD*%
D17*
%TO.C,J1*%
X92250004Y-127045008D03*
D18*
X92250004Y-124505008D03*
X94790004Y-127045008D03*
X94790004Y-124505008D03*
X97330004Y-127045008D03*
X97330004Y-124505008D03*
X99870004Y-127045008D03*
X99870004Y-124505008D03*
X102410004Y-127045008D03*
X102410004Y-124505008D03*
X104950004Y-127045008D03*
X104950004Y-124505008D03*
X107490004Y-127045008D03*
X107490004Y-124505008D03*
X110030004Y-127045008D03*
X110030004Y-124505008D03*
%TD*%
D11*
%TO.C,REF\u002A\u002A*%
X118999002Y-83500001D03*
%TD*%
%TO.C,REF\u002A\u002A*%
X145500005Y-76001001D03*
%TD*%
%TO.C,REF\u002A\u002A*%
X95500002Y-111001004D03*
%TD*%
%TO.C,REF\u002A\u002A*%
X28000998Y-155500006D03*
%TD*%
%TO.C,REF\u002A\u002A*%
X61499499Y-93999002D03*
%TD*%
%TO.C,REF\u002A\u002A*%
X39500497Y-76001002D03*
%TD*%
D19*
%TO.C,U1*%
X147247011Y-85093003D03*
D20*
X149787011Y-85093003D03*
X152327011Y-85093003D03*
X154867011Y-85093003D03*
X154867011Y-77473003D03*
X152327011Y-77473003D03*
X149787011Y-77473003D03*
X147247011Y-77473003D03*
%TD*%
D11*
%TO.C,REF\u002A\u002A*%
X165999020Y-34832914D03*
%TD*%
%TO.C,REF\u002A\u002A*%
X134500502Y-163999003D03*
%TD*%
%TO.C,REF\u002A\u002A*%
X172165093Y-41000998D03*
%TD*%
%TO.C,REF\u002A\u002A*%
X144500005Y-146001006D03*
%TD*%
%TO.C,REF\u002A\u002A*%
X122001005Y-154500006D03*
%TD*%
D15*
%TO.C,J3*%
X85550004Y-56099998D03*
X80950004Y-56099998D03*
D16*
X77550004Y-56099998D03*
X88950004Y-56099998D03*
%TD*%
D11*
%TO.C,REF\u002A\u002A*%
X165999006Y-153500006D03*
%TD*%
%TO.C,REF\u002A\u002A*%
X86500501Y-163999002D03*
%TD*%
%TO.C,REF\u002A\u002A*%
X143500005Y-111001004D03*
%TD*%
%TO.C,REF\u002A\u002A*%
X38500497Y-146001010D03*
%TD*%
%TO.C,REF\u002A\u002A*%
X71998998Y-50499999D03*
%TD*%
%TO.C,REF\u002A\u002A*%
X156499508Y-163999010D03*
%TD*%
%TO.C,REF\u002A\u002A*%
X50499998Y-128999004D03*
%TD*%
%TO.C,REF\u002A\u002A*%
X28000997Y-173500762D03*
%TD*%
%TO.C,REF\u002A\u002A*%
X122001005Y-155500006D03*
%TD*%
%TO.C,REF\u002A\u002A*%
X168831426Y-41000998D03*
%TD*%
%TO.C,REF\u002A\u002A*%
X170498260Y-163999015D03*
%TD*%
%TO.C,REF\u002A\u002A*%
X98500002Y-41000999D03*
%TD*%
%TO.C,REF\u002A\u002A*%
X171331676Y-163999015D03*
%TD*%
%TO.C,REF\u002A\u002A*%
X165999020Y-174334178D03*
%TD*%
D17*
%TO.C,J1*%
X92250004Y-162045013D03*
D18*
X92250004Y-159505013D03*
X94790004Y-162045013D03*
X94790004Y-159505013D03*
X97330004Y-162045013D03*
X97330004Y-159505013D03*
X99870004Y-162045013D03*
X99870004Y-159505013D03*
X102410004Y-162045013D03*
X102410004Y-159505013D03*
X104950004Y-162045013D03*
X104950004Y-159505013D03*
X107490004Y-162045013D03*
X107490004Y-159505013D03*
X110030004Y-162045013D03*
X110030004Y-159505013D03*
%TD*%
D11*
%TO.C,REF\u002A\u002A*%
X174665343Y-163999015D03*
%TD*%
%TO.C,REF\u002A\u002A*%
X26001997Y-163999015D03*
%TD*%
%TO.C,REF\u002A\u002A*%
X40500497Y-41000998D03*
%TD*%
%TO.C,REF\u002A\u002A*%
X84500501Y-163999002D03*
%TD*%
%TO.C,REF\u002A\u002A*%
X28000997Y-172667345D03*
%TD*%
%TO.C,REF\u002A\u002A*%
X62499499Y-146001002D03*
%TD*%
%TO.C,REF\u002A\u002A*%
X154499508Y-76001000D03*
%TD*%
%TO.C,REF\u002A\u002A*%
X143500005Y-146001006D03*
%TD*%
D21*
%TO.C,J2*%
X66999997Y-154080013D03*
D22*
X66999997Y-149000013D03*
%TD*%
D11*
%TO.C,REF\u002A\u002A*%
X61499499Y-146001002D03*
%TD*%
%TO.C,REF\u002A\u002A*%
X165999020Y-169333678D03*
%TD*%
%TO.C,REF\u002A\u002A*%
X38500497Y-111001006D03*
%TD*%
%TO.C,REF\u002A\u002A*%
X98500002Y-93999001D03*
%TD*%
%TO.C,REF\u002A\u002A*%
X134500502Y-111001005D03*
%TD*%
%TO.C,REF\u002A\u002A*%
X118999001Y-85500001D03*
%TD*%
%TO.C,REF\u002A\u002A*%
X49499998Y-146001006D03*
%TD*%
%TO.C,REF\u002A\u002A*%
X106499502Y-58998998D03*
%TD*%
D17*
%TO.C,J1*%
X45249997Y-127045008D03*
D18*
X45249997Y-124505008D03*
X47789997Y-127045008D03*
X47789997Y-124505008D03*
X50329997Y-127045008D03*
X50329997Y-124505008D03*
X52869997Y-127045008D03*
X52869997Y-124505008D03*
X55409997Y-127045008D03*
X55409997Y-124505008D03*
X57949997Y-127045008D03*
X57949997Y-124505008D03*
X60489997Y-127045008D03*
X60489997Y-124505008D03*
X63029997Y-127045008D03*
X63029997Y-124505008D03*
%TD*%
D11*
%TO.C,REF\u002A\u002A*%
X60499499Y-111001001D03*
%TD*%
%TO.C,REF\u002A\u002A*%
X75001001Y-83500001D03*
%TD*%
%TO.C,REF\u002A\u002A*%
X59499499Y-58998998D03*
%TD*%
%TO.C,REF\u002A\u002A*%
X85500501Y-76001002D03*
%TD*%
%TO.C,REF\u002A\u002A*%
X48499998Y-163999005D03*
%TD*%
%TO.C,REF\u002A\u002A*%
X39500497Y-41000998D03*
%TD*%
%TO.C,REF\u002A\u002A*%
X60499499Y-93999002D03*
%TD*%
%TO.C,REF\u002A\u002A*%
X86500501Y-111001006D03*
%TD*%
%TO.C,REF\u002A\u002A*%
X154499508Y-163999009D03*
%TD*%
%TO.C,REF\u002A\u002A*%
X71998998Y-86500001D03*
%TD*%
%TO.C,REF\u002A\u002A*%
X106499502Y-76001000D03*
%TD*%
%TO.C,REF\u002A\u002A*%
X165999020Y-31499248D03*
%TD*%
%TO.C,REF\u002A\u002A*%
X95500002Y-58998999D03*
%TD*%
%TO.C,REF\u002A\u002A*%
X165999020Y-170167095D03*
%TD*%
%TO.C,REF\u002A\u002A*%
X168831426Y-163999015D03*
%TD*%
%TO.C,REF\u002A\u002A*%
X96500002Y-128999003D03*
%TD*%
D19*
%TO.C,U1*%
X53246997Y-120093008D03*
D20*
X55786997Y-120093008D03*
X58326997Y-120093008D03*
X60866997Y-120093008D03*
X60866997Y-112473008D03*
X58326997Y-112473008D03*
X55786997Y-112473008D03*
X53246997Y-112473008D03*
%TD*%
D11*
%TO.C,REF\u002A\u002A*%
X49499998Y-41000998D03*
%TD*%
%TO.C,REF\u002A\u002A*%
X98500002Y-163999006D03*
%TD*%
%TO.C,REF\u002A\u002A*%
X71998998Y-154500006D03*
%TD*%
%TO.C,REF\u002A\u002A*%
X49499998Y-163999006D03*
%TD*%
%TO.C,REF\u002A\u002A*%
X75001002Y-50499999D03*
%TD*%
%TO.C,REF\u002A\u002A*%
X71998998Y-118500003D03*
%TD*%
D21*
%TO.C,J2*%
X161000011Y-119080008D03*
D22*
X161000011Y-114000008D03*
%TD*%
D11*
%TO.C,REF\u002A\u002A*%
X98500002Y-111001003D03*
%TD*%
%TO.C,REF\u002A\u002A*%
X61499499Y-128999006D03*
%TD*%
%TO.C,REF\u002A\u002A*%
X165999005Y-119500003D03*
%TD*%
%TO.C,REF\u002A\u002A*%
X132500502Y-111001006D03*
%TD*%
%TO.C,REF\u002A\u002A*%
X122001005Y-84500001D03*
%TD*%
%TO.C,REF\u002A\u002A*%
X86500501Y-93999000D03*
%TD*%
%TO.C,REF\u002A\u002A*%
X50499998Y-41000999D03*
%TD*%
%TO.C,REF\u002A\u002A*%
X165999020Y-175167595D03*
%TD*%
%TO.C,REF\u002A\u002A*%
X106499502Y-111001002D03*
%TD*%
%TO.C,REF\u002A\u002A*%
X122001005Y-50499999D03*
%TD*%
%TO.C,REF\u002A\u002A*%
X156499508Y-76001000D03*
%TD*%
%TO.C,REF\u002A\u002A*%
X118999001Y-120500003D03*
%TD*%
%TO.C,REF\u002A\u002A*%
X17667830Y-163999015D03*
%TD*%
%TO.C,REF\u002A\u002A*%
X51499998Y-111001003D03*
%TD*%
%TO.C,REF\u002A\u002A*%
X87500501Y-128999002D03*
%TD*%
%TO.C,REF\u002A\u002A*%
X71998998Y-153500006D03*
%TD*%
%TO.C,REF\u002A\u002A*%
X131500502Y-76001002D03*
%TD*%
%TO.C,REF\u002A\u002A*%
X156499508Y-146001002D03*
%TD*%
%TO.C,REF\u002A\u002A*%
X71998998Y-156500006D03*
%TD*%
%TO.C,REF\u002A\u002A*%
X107499502Y-58998998D03*
%TD*%
%TO.C,REF\u002A\u002A*%
X28000998Y-86500001D03*
%TD*%
%TO.C,REF\u002A\u002A*%
X28000997Y-35666331D03*
%TD*%
%TO.C,REF\u002A\u002A*%
X153499508Y-58998998D03*
%TD*%
D12*
%TO.C,U2*%
X46429997Y-81290003D03*
D13*
X29769997Y-78750003D03*
D14*
X29769997Y-81290003D03*
X29769997Y-83830003D03*
%TD*%
D11*
%TO.C,REF\u002A\u002A*%
X143500005Y-58998999D03*
%TD*%
%TO.C,REF\u002A\u002A*%
X97500002Y-58998998D03*
%TD*%
%TO.C,REF\u002A\u002A*%
X165999020Y-33166081D03*
%TD*%
%TO.C,REF\u002A\u002A*%
X40500497Y-146001009D03*
%TD*%
%TO.C,REF\u002A\u002A*%
X84500501Y-41000998D03*
%TD*%
%TO.C,REF\u002A\u002A*%
X28000998Y-118500003D03*
%TD*%
%TO.C,REF\u002A\u002A*%
X106499502Y-163999009D03*
%TD*%
%TO.C,REF\u002A\u002A*%
X61499499Y-76001000D03*
%TD*%
%TO.C,REF\u002A\u002A*%
X165999006Y-118500003D03*
%TD*%
%TO.C,REF\u002A\u002A*%
X28000997Y-166000012D03*
%TD*%
%TO.C,REF\u002A\u002A*%
X75001002Y-86500001D03*
%TD*%
%TO.C,REF\u002A\u002A*%
X16834413Y-163999015D03*
%TD*%
%TO.C,REF\u002A\u002A*%
X155499508Y-41000999D03*
%TD*%
%TO.C,REF\u002A\u002A*%
X118999001Y-121500003D03*
%TD*%
%TO.C,REF\u002A\u002A*%
X62499499Y-58998998D03*
%TD*%
%TO.C,REF\u002A\u002A*%
X165999020Y-36499748D03*
%TD*%
%TO.C,REF\u002A\u002A*%
X48499998Y-76001001D03*
%TD*%
%TO.C,REF\u002A\u002A*%
X108499502Y-76001000D03*
%TD*%
%TO.C,REF\u002A\u002A*%
X165999020Y-29832414D03*
%TD*%
%TO.C,REF\u002A\u002A*%
X71998998Y-51499999D03*
%TD*%
%TO.C,REF\u002A\u002A*%
X59499499Y-163999009D03*
%TD*%
%TO.C,REF\u002A\u002A*%
X165999020Y-171833928D03*
%TD*%
%TO.C,REF\u002A\u002A*%
X142500005Y-41000998D03*
%TD*%
%TO.C,REF\u002A\u002A*%
X48499998Y-111001004D03*
%TD*%
D12*
%TO.C,U2*%
X93430004Y-46289998D03*
D13*
X76770004Y-43749998D03*
D14*
X76770004Y-46289998D03*
X76770004Y-48829998D03*
%TD*%
D21*
%TO.C,J2*%
X66999997Y-119080008D03*
D22*
X66999997Y-114000008D03*
%TD*%
D12*
%TO.C,U2*%
X140430011Y-151290013D03*
D13*
X123770011Y-148750013D03*
D14*
X123770011Y-151290013D03*
X123770011Y-153830013D03*
%TD*%
D11*
%TO.C,REF\u002A\u002A*%
X109499502Y-146001002D03*
%TD*%
%TO.C,REF\u002A\u002A*%
X131500502Y-41000998D03*
%TD*%
%TO.C,REF\u002A\u002A*%
X97500002Y-93999001D03*
%TD*%
%TO.C,REF\u002A\u002A*%
X85500501Y-93999000D03*
%TD*%
%TO.C,REF\u002A\u002A*%
X165999005Y-85500001D03*
%TD*%
%TO.C,REF\u002A\u002A*%
X28000998Y-156500006D03*
%TD*%
%TO.C,REF\u002A\u002A*%
X165999020Y-171000512D03*
%TD*%
%TO.C,REF\u002A\u002A*%
X85500501Y-163999002D03*
%TD*%
%TO.C,REF\u002A\u002A*%
X28000998Y-49499999D03*
%TD*%
%TO.C,REF\u002A\u002A*%
X108499502Y-146001002D03*
%TD*%
%TO.C,REF\u002A\u002A*%
X28000997Y-38166581D03*
%TD*%
%TO.C,REF\u002A\u002A*%
X75001001Y-48499999D03*
%TD*%
%TO.C,REF\u002A\u002A*%
X96500002Y-76001001D03*
%TD*%
%TO.C,REF\u002A\u002A*%
X118999001Y-156500006D03*
%TD*%
%TO.C,REF\u002A\u002A*%
X165999020Y-35666331D03*
%TD*%
%TO.C,REF\u002A\u002A*%
X144500005Y-93999001D03*
%TD*%
D19*
%TO.C,U1*%
X147247011Y-50092998D03*
D20*
X149787011Y-50092998D03*
X152327011Y-50092998D03*
X154867011Y-50092998D03*
X154867011Y-42472998D03*
X152327011Y-42472998D03*
X149787011Y-42472998D03*
X147247011Y-42472998D03*
%TD*%
D21*
%TO.C,J2*%
X66999997Y-84080003D03*
D22*
X66999997Y-79000003D03*
%TD*%
D11*
%TO.C,REF\u002A\u002A*%
X26001997Y-41000998D03*
%TD*%
%TO.C,REF\u002A\u002A*%
X28000998Y-48499999D03*
%TD*%
%TO.C,REF\u002A\u002A*%
X156499508Y-111001001D03*
%TD*%
%TO.C,REF\u002A\u002A*%
X59499499Y-128999005D03*
%TD*%
%TO.C,REF\u002A\u002A*%
X122001005Y-85500001D03*
%TD*%
%TO.C,REF\u002A\u002A*%
X165999020Y-176001012D03*
%TD*%
D19*
%TO.C,U1*%
X100247004Y-155093013D03*
D20*
X102787004Y-155093013D03*
X105327004Y-155093013D03*
X107867004Y-155093013D03*
X107867004Y-147473013D03*
X105327004Y-147473013D03*
X102787004Y-147473013D03*
X100247004Y-147473013D03*
%TD*%
D11*
%TO.C,REF\u002A\u002A*%
X176332176Y-41000998D03*
%TD*%
D17*
%TO.C,J1*%
X139250011Y-57044998D03*
D18*
X139250011Y-54504998D03*
X141790011Y-57044998D03*
X141790011Y-54504998D03*
X144330011Y-57044998D03*
X144330011Y-54504998D03*
X146870011Y-57044998D03*
X146870011Y-54504998D03*
X149410011Y-57044998D03*
X149410011Y-54504998D03*
X151950011Y-57044998D03*
X151950011Y-54504998D03*
X154490011Y-57044998D03*
X154490011Y-54504998D03*
X157030011Y-57044998D03*
X157030011Y-54504998D03*
%TD*%
D11*
%TO.C,REF\u002A\u002A*%
X144500005Y-111001003D03*
%TD*%
%TO.C,REF\u002A\u002A*%
X122001006Y-156500006D03*
%TD*%
%TO.C,REF\u002A\u002A*%
X84500501Y-111001006D03*
%TD*%
%TO.C,REF\u002A\u002A*%
X37500497Y-76001002D03*
%TD*%
%TO.C,REF\u002A\u002A*%
X131500502Y-93999000D03*
%TD*%
%TO.C,REF\u002A\u002A*%
X154499508Y-41000999D03*
%TD*%
D15*
%TO.C,J3*%
X33949997Y-161100013D03*
X38549997Y-161100013D03*
D16*
X30549997Y-161100013D03*
X41949997Y-161100013D03*
%TD*%
D11*
%TO.C,REF\u002A\u002A*%
X50499998Y-76001001D03*
%TD*%
%TO.C,REF\u002A\u002A*%
X131500502Y-146001010D03*
%TD*%
D19*
%TO.C,U1*%
X100247004Y-50092998D03*
D20*
X102787004Y-50092998D03*
X105327004Y-50092998D03*
X107867004Y-50092998D03*
X107867004Y-42472998D03*
X105327004Y-42472998D03*
X102787004Y-42472998D03*
X100247004Y-42472998D03*
%TD*%
D11*
%TO.C,REF\u002A\u002A*%
X118999002Y-118500003D03*
%TD*%
%TO.C,REF\u002A\u002A*%
X155499508Y-58998998D03*
%TD*%
%TO.C,REF\u002A\u002A*%
X48499998Y-93999001D03*
%TD*%
D21*
%TO.C,J2*%
X161000011Y-49079998D03*
D22*
X161000011Y-43999998D03*
%TD*%
D11*
%TO.C,REF\u002A\u002A*%
X75001001Y-119500003D03*
%TD*%
%TO.C,REF\u002A\u002A*%
X144500005Y-76001001D03*
%TD*%
%TO.C,REF\u002A\u002A*%
X21834913Y-163999015D03*
%TD*%
%TO.C,REF\u002A\u002A*%
X143500005Y-163999006D03*
%TD*%
%TO.C,REF\u002A\u002A*%
X62499499Y-93999002D03*
%TD*%
%TO.C,REF\u002A\u002A*%
X40500497Y-111001005D03*
%TD*%
D12*
%TO.C,U2*%
X140430011Y-81290003D03*
D13*
X123770011Y-78750003D03*
D14*
X123770011Y-81290003D03*
X123770011Y-83830003D03*
%TD*%
D11*
%TO.C,REF\u002A\u002A*%
X95500002Y-163999005D03*
%TD*%
D15*
%TO.C,J3*%
X38549997Y-56099998D03*
X33949997Y-56099998D03*
D16*
X30549997Y-56099998D03*
X41949997Y-56099998D03*
%TD*%
D21*
%TO.C,J2*%
X161000011Y-154080013D03*
D22*
X161000011Y-149000013D03*
%TD*%
D11*
%TO.C,REF\u002A\u002A*%
X108499502Y-41000999D03*
%TD*%
%TO.C,REF\u002A\u002A*%
X142500005Y-93999001D03*
%TD*%
%TO.C,REF\u002A\u002A*%
X16000997Y-41000998D03*
%TD*%
%TO.C,REF\u002A\u002A*%
X28000997Y-170167095D03*
%TD*%
%TO.C,REF\u002A\u002A*%
X71998998Y-84500001D03*
%TD*%
%TO.C,REF\u002A\u002A*%
X50499998Y-146001006D03*
%TD*%
%TO.C,REF\u002A\u002A*%
X134500502Y-128999002D03*
%TD*%
D21*
%TO.C,J2*%
X114000004Y-49079998D03*
D22*
X114000004Y-43999998D03*
%TD*%
D11*
%TO.C,REF\u002A\u002A*%
X19334663Y-163999015D03*
%TD*%
%TO.C,REF\u002A\u002A*%
X49499998Y-111001004D03*
%TD*%
%TO.C,REF\u002A\u002A*%
X75001001Y-154500006D03*
%TD*%
%TO.C,REF\u002A\u002A*%
X51499998Y-58998998D03*
%TD*%
%TO.C,REF\u002A\u002A*%
X177165593Y-163999015D03*
%TD*%
%TO.C,REF\u002A\u002A*%
X107499502Y-93999002D03*
%TD*%
%TO.C,REF\u002A\u002A*%
X38500497Y-128999001D03*
%TD*%
D15*
%TO.C,J3*%
X132550011Y-126100008D03*
X127950011Y-126100008D03*
D16*
X135950011Y-126100008D03*
X124550011Y-126100008D03*
%TD*%
D11*
%TO.C,REF\u002A\u002A*%
X60499499Y-41000999D03*
%TD*%
%TO.C,REF\u002A\u002A*%
X51499998Y-128999004D03*
%TD*%
%TO.C,REF\u002A\u002A*%
X95500002Y-128999003D03*
%TD*%
%TO.C,REF\u002A\u002A*%
X28000997Y-32332664D03*
%TD*%
%TO.C,REF\u002A\u002A*%
X118999002Y-154500006D03*
%TD*%
%TO.C,REF\u002A\u002A*%
X84500501Y-146001010D03*
%TD*%
%TO.C,REF\u002A\u002A*%
X23501747Y-163999015D03*
%TD*%
%TO.C,REF\u002A\u002A*%
X37500497Y-163999002D03*
%TD*%
%TO.C,REF\u002A\u002A*%
X156499508Y-41000999D03*
%TD*%
%TO.C,REF\u002A\u002A*%
X28000998Y-50499999D03*
%TD*%
%TO.C,REF\u002A\u002A*%
X40500497Y-163999003D03*
%TD*%
%TO.C,REF\u002A\u002A*%
X107499502Y-146001003D03*
%TD*%
%TO.C,REF\u002A\u002A*%
X48499998Y-41000998D03*
%TD*%
%TO.C,REF\u002A\u002A*%
X71998998Y-155500006D03*
%TD*%
%TO.C,REF\u002A\u002A*%
X37500497Y-93999000D03*
%TD*%
%TO.C,REF\u002A\u002A*%
X134500502Y-41000998D03*
%TD*%
%TO.C,REF\u002A\u002A*%
X75001001Y-118500003D03*
%TD*%
%TO.C,REF\u002A\u002A*%
X153499508Y-128999005D03*
%TD*%
%TO.C,REF\u002A\u002A*%
X145500005Y-58998998D03*
%TD*%
D17*
%TO.C,J1*%
X139250011Y-162045013D03*
D18*
X139250011Y-159505013D03*
X141790011Y-162045013D03*
X141790011Y-159505013D03*
X144330011Y-162045013D03*
X144330011Y-159505013D03*
X146870011Y-162045013D03*
X146870011Y-159505013D03*
X149410011Y-162045013D03*
X149410011Y-159505013D03*
X151950011Y-162045013D03*
X151950011Y-159505013D03*
X154490011Y-162045013D03*
X154490011Y-159505013D03*
X157030011Y-162045013D03*
X157030011Y-159505013D03*
%TD*%
D11*
%TO.C,REF\u002A\u002A*%
X165999004Y-156500006D03*
%TD*%
%TO.C,REF\u002A\u002A*%
X71998998Y-85500001D03*
%TD*%
%TO.C,REF\u002A\u002A*%
X132500502Y-128999001D03*
%TD*%
%TO.C,REF\u002A\u002A*%
X108499502Y-111001001D03*
%TD*%
%TO.C,REF\u002A\u002A*%
X165999020Y-33999498D03*
%TD*%
D12*
%TO.C,U2*%
X140430011Y-116290008D03*
D13*
X123770011Y-113750008D03*
D14*
X123770011Y-116290008D03*
X123770011Y-118830008D03*
%TD*%
D11*
%TO.C,REF\u002A\u002A*%
X37500497Y-58998999D03*
%TD*%
%TO.C,REF\u002A\u002A*%
X175498760Y-41000998D03*
%TD*%
D19*
%TO.C,U1*%
X53246997Y-155093013D03*
D20*
X55786997Y-155093013D03*
X58326997Y-155093013D03*
X60866997Y-155093013D03*
X60866997Y-147473013D03*
X58326997Y-147473013D03*
X55786997Y-147473013D03*
X53246997Y-147473013D03*
%TD*%
D11*
%TO.C,REF\u002A\u002A*%
X177999010Y-163999015D03*
%TD*%
D19*
%TO.C,U1*%
X100247004Y-120093008D03*
D20*
X102787004Y-120093008D03*
X105327004Y-120093008D03*
X107867004Y-120093008D03*
X107867004Y-112473008D03*
X105327004Y-112473008D03*
X102787004Y-112473008D03*
X100247004Y-112473008D03*
%TD*%
D19*
%TO.C,U1*%
X147247011Y-155093013D03*
D20*
X149787011Y-155093013D03*
X152327011Y-155093013D03*
X154867011Y-155093013D03*
X154867011Y-147473013D03*
X152327011Y-147473013D03*
X149787011Y-147473013D03*
X147247011Y-147473013D03*
%TD*%
D11*
%TO.C,REF\u002A\u002A*%
X61499499Y-111001001D03*
%TD*%
%TO.C,REF\u002A\u002A*%
X28000998Y-119500003D03*
%TD*%
%TO.C,REF\u002A\u002A*%
X85500501Y-58998999D03*
%TD*%
%TO.C,REF\u002A\u002A*%
X145500005Y-163999006D03*
%TD*%
D15*
%TO.C,J3*%
X127950011Y-56099998D03*
X132550011Y-56099998D03*
D16*
X135950011Y-56099998D03*
X124550011Y-56099998D03*
%TD*%
D11*
%TO.C,REF\u002A\u002A*%
X143500005Y-128999003D03*
%TD*%
%TO.C,REF\u002A\u002A*%
X133500502Y-146001010D03*
%TD*%
%TO.C,REF\u002A\u002A*%
X165999004Y-121500003D03*
%TD*%
%TO.C,REF\u002A\u002A*%
X155499508Y-146001002D03*
%TD*%
%TO.C,REF\u002A\u002A*%
X165999005Y-154500006D03*
%TD*%
%TO.C,REF\u002A\u002A*%
X165999020Y-166000012D03*
%TD*%
%TO.C,REF\u002A\u002A*%
X97500002Y-128999004D03*
%TD*%
%TO.C,REF\u002A\u002A*%
X85500501Y-41000998D03*
%TD*%
%TO.C,REF\u002A\u002A*%
X122001004Y-118500003D03*
%TD*%
%TO.C,REF\u002A\u002A*%
X107499502Y-76001000D03*
%TD*%
%TO.C,REF\u002A\u002A*%
X131500502Y-128999001D03*
%TD*%
%TO.C,REF\u002A\u002A*%
X109499502Y-93999002D03*
%TD*%
%TO.C,REF\u002A\u002A*%
X118999001Y-155500006D03*
%TD*%
D21*
%TO.C,J2*%
X114000004Y-154080013D03*
D22*
X114000004Y-149000013D03*
%TD*%
D11*
%TO.C,REF\u002A\u002A*%
X107499502Y-128999006D03*
%TD*%
%TO.C,REF\u002A\u002A*%
X96500002Y-58998999D03*
%TD*%
%TO.C,REF\u002A\u002A*%
X59499499Y-111001002D03*
%TD*%
D17*
%TO.C,J1*%
X139250011Y-92045003D03*
D18*
X139250011Y-89505003D03*
X141790011Y-92045003D03*
X141790011Y-89505003D03*
X144330011Y-92045003D03*
X144330011Y-89505003D03*
X146870011Y-92045003D03*
X146870011Y-89505003D03*
X149410011Y-92045003D03*
X149410011Y-89505003D03*
X151950011Y-92045003D03*
X151950011Y-89505003D03*
X154490011Y-92045003D03*
X154490011Y-89505003D03*
X157030011Y-92045003D03*
X157030011Y-89505003D03*
%TD*%
D11*
%TO.C,REF\u002A\u002A*%
X28000997Y-169333678D03*
%TD*%
%TO.C,REF\u002A\u002A*%
X49499998Y-128999003D03*
%TD*%
%TO.C,REF\u002A\u002A*%
X20168080Y-41000998D03*
%TD*%
%TO.C,REF\u002A\u002A*%
X109499502Y-58998998D03*
%TD*%
%TO.C,REF\u002A\u002A*%
X95500002Y-76001001D03*
%TD*%
%TO.C,REF\u002A\u002A*%
X24335163Y-163999015D03*
%TD*%
%TO.C,REF\u002A\u002A*%
X106499502Y-41000999D03*
%TD*%
%TO.C,REF\u002A\u002A*%
X25168580Y-163999015D03*
%TD*%
%TO.C,REF\u002A\u002A*%
X145500005Y-146001006D03*
%TD*%
%TO.C,REF\u002A\u002A*%
X155499508Y-163999010D03*
%TD*%
%TO.C,REF\u002A\u002A*%
X142500005Y-128999003D03*
%TD*%
%TO.C,REF\u002A\u002A*%
X118999002Y-49499999D03*
%TD*%
%TO.C,REF\u002A\u002A*%
X75001002Y-120500003D03*
%TD*%
%TO.C,REF\u002A\u002A*%
X122001004Y-153500006D03*
%TD*%
%TO.C,REF\u002A\u002A*%
X165999005Y-155500006D03*
%TD*%
%TO.C,REF\u002A\u002A*%
X20168080Y-163999015D03*
%TD*%
%TO.C,REF\u002A\u002A*%
X28000997Y-174334178D03*
%TD*%
%TO.C,REF\u002A\u002A*%
X59499499Y-93999002D03*
%TD*%
%TO.C,REF\u002A\u002A*%
X118999002Y-119500003D03*
%TD*%
%TO.C,REF\u002A\u002A*%
X71998998Y-120500003D03*
%TD*%
%TO.C,REF\u002A\u002A*%
X87500501Y-111001005D03*
%TD*%
%TO.C,REF\u002A\u002A*%
X167998010Y-41000998D03*
%TD*%
D12*
%TO.C,U2*%
X46429997Y-116290008D03*
D13*
X29769997Y-113750008D03*
D14*
X29769997Y-116290008D03*
X29769997Y-118830008D03*
%TD*%
D11*
%TO.C,REF\u002A\u002A*%
X144500005Y-163999006D03*
%TD*%
D15*
%TO.C,J3*%
X127950011Y-161100013D03*
X132550011Y-161100013D03*
D16*
X135950011Y-161100013D03*
X124550011Y-161100013D03*
%TD*%
D11*
%TO.C,REF\u002A\u002A*%
X84500501Y-76001002D03*
%TD*%
%TO.C,REF\u002A\u002A*%
X96500002Y-163999006D03*
%TD*%
%TO.C,REF\u002A\u002A*%
X118999002Y-153500006D03*
%TD*%
%TO.C,REF\u002A\u002A*%
X87500501Y-146001009D03*
%TD*%
%TO.C,REF\u002A\u002A*%
X165999006Y-83500001D03*
%TD*%
%TO.C,REF\u002A\u002A*%
X172165093Y-163999015D03*
%TD*%
%TO.C,REF\u002A\u002A*%
X131500502Y-111001006D03*
%TD*%
%TO.C,REF\u002A\u002A*%
X39500497Y-128999001D03*
%TD*%
%TO.C,REF\u002A\u002A*%
X17667830Y-41000998D03*
%TD*%
%TO.C,REF\u002A\u002A*%
X75001002Y-155500006D03*
%TD*%
%TO.C,REF\u002A\u002A*%
X165999020Y-172667345D03*
%TD*%
%TO.C,REF\u002A\u002A*%
X108499502Y-58998998D03*
%TD*%
%TO.C,REF\u002A\u002A*%
X40500497Y-128999002D03*
%TD*%
%TO.C,REF\u002A\u002A*%
X28000998Y-153500006D03*
%TD*%
%TO.C,REF\u002A\u002A*%
X84500501Y-93999000D03*
%TD*%
%TO.C,REF\u002A\u002A*%
X153499508Y-146001003D03*
%TD*%
%TO.C,REF\u002A\u002A*%
X122001004Y-48499999D03*
%TD*%
%TO.C,REF\u002A\u002A*%
X165999020Y-38166581D03*
%TD*%
%TO.C,REF\u002A\u002A*%
X75001001Y-49499999D03*
%TD*%
%TO.C,REF\u002A\u002A*%
X153499508Y-163999009D03*
%TD*%
%TO.C,REF\u002A\u002A*%
X154499508Y-58998998D03*
%TD*%
%TO.C,REF\u002A\u002A*%
X132500502Y-146001010D03*
%TD*%
%TO.C,REF\u002A\u002A*%
X85500501Y-128999001D03*
%TD*%
D19*
%TO.C,U1*%
X53246997Y-50092998D03*
D20*
X55786997Y-50092998D03*
X58326997Y-50092998D03*
X60866997Y-50092998D03*
X60866997Y-42472998D03*
X58326997Y-42472998D03*
X55786997Y-42472998D03*
X53246997Y-42472998D03*
%TD*%
D21*
%TO.C,J2*%
X114000004Y-84080003D03*
D22*
X114000004Y-79000003D03*
%TD*%
D11*
%TO.C,REF\u002A\u002A*%
X38500497Y-58998999D03*
%TD*%
%TO.C,REF\u002A\u002A*%
X108499502Y-93999002D03*
%TD*%
D15*
%TO.C,J3*%
X80950004Y-126100008D03*
X85550004Y-126100008D03*
D16*
X77550004Y-126100008D03*
X88950004Y-126100008D03*
%TD*%
D11*
%TO.C,REF\u002A\u002A*%
X165999020Y-38999998D03*
%TD*%
%TO.C,REF\u002A\u002A*%
X109499502Y-111001001D03*
%TD*%
%TO.C,REF\u002A\u002A*%
X16834413Y-41000998D03*
%TD*%
%TO.C,REF\u002A\u002A*%
X18501247Y-41000998D03*
%TD*%
%TO.C,REF\u002A\u002A*%
X153499508Y-111001002D03*
%TD*%
%TO.C,REF\u002A\u002A*%
X62499499Y-111001001D03*
%TD*%
%TO.C,REF\u002A\u002A*%
X87500501Y-163999003D03*
%TD*%
%TO.C,REF\u002A\u002A*%
X59499499Y-146001003D03*
%TD*%
%TO.C,REF\u002A\u002A*%
X122001006Y-86500001D03*
%TD*%
%TO.C,REF\u002A\u002A*%
X71998998Y-121500003D03*
%TD*%
%TO.C,REF\u002A\u002A*%
X134500502Y-58998999D03*
%TD*%
D15*
%TO.C,J3*%
X38549997Y-126100008D03*
X33949997Y-126100008D03*
D16*
X41949997Y-126100008D03*
X30549997Y-126100008D03*
%TD*%
D11*
%TO.C,REF\u002A\u002A*%
X87500501Y-41000998D03*
%TD*%
%TO.C,REF\u002A\u002A*%
X18501247Y-163999015D03*
%TD*%
%TO.C,REF\u002A\u002A*%
X144500005Y-58998998D03*
%TD*%
%TO.C,REF\u002A\u002A*%
X171331676Y-41000998D03*
%TD*%
%TO.C,REF\u002A\u002A*%
X97500002Y-146001006D03*
%TD*%
D17*
%TO.C,J1*%
X139250011Y-127045008D03*
D18*
X139250011Y-124505008D03*
X141790011Y-127045008D03*
X141790011Y-124505008D03*
X144330011Y-127045008D03*
X144330011Y-124505008D03*
X146870011Y-127045008D03*
X146870011Y-124505008D03*
X149410011Y-127045008D03*
X149410011Y-124505008D03*
X151950011Y-127045008D03*
X151950011Y-124505008D03*
X154490011Y-127045008D03*
X154490011Y-124505008D03*
X157030011Y-127045008D03*
X157030011Y-124505008D03*
%TD*%
D11*
%TO.C,REF\u002A\u002A*%
X131500502Y-163999002D03*
%TD*%
%TO.C,REF\u002A\u002A*%
X16000997Y-163999015D03*
%TD*%
%TO.C,REF\u002A\u002A*%
X50499998Y-111001003D03*
%TD*%
%TO.C,REF\u002A\u002A*%
X50499998Y-163999006D03*
%TD*%
%TO.C,REF\u002A\u002A*%
X165999005Y-120500003D03*
%TD*%
%TO.C,REF\u002A\u002A*%
X132500502Y-58998999D03*
%TD*%
%TO.C,REF\u002A\u002A*%
X59499499Y-76001000D03*
%TD*%
%TO.C,REF\u002A\u002A*%
X28000998Y-85500001D03*
%TD*%
D21*
%TO.C,J2*%
X66999997Y-49079998D03*
D22*
X66999997Y-43999998D03*
%TD*%
D11*
%TO.C,REF\u002A\u002A*%
X38500497Y-163999002D03*
%TD*%
%TO.C,REF\u002A\u002A*%
X133500502Y-41000998D03*
%TD*%
%TO.C,REF\u002A\u002A*%
X75001002Y-51499999D03*
%TD*%
%TO.C,REF\u002A\u002A*%
X122001005Y-119500003D03*
%TD*%
D21*
%TO.C,J2*%
X114000004Y-119080008D03*
D22*
X114000004Y-114000008D03*
%TD*%
D11*
%TO.C,REF\u002A\u002A*%
X87500501Y-58998999D03*
%TD*%
%TO.C,REF\u002A\u002A*%
X165999020Y-168500262D03*
%TD*%
%TO.C,REF\u002A\u002A*%
X134500502Y-146001009D03*
%TD*%
%TO.C,REF\u002A\u002A*%
X145500005Y-128999004D03*
%TD*%
%TO.C,REF\u002A\u002A*%
X154499508Y-128999006D03*
%TD*%
%TO.C,REF\u002A\u002A*%
X49499998Y-76001001D03*
%TD*%
%TO.C,REF\u002A\u002A*%
X98500002Y-128999004D03*
%TD*%
%TO.C,REF\u002A\u002A*%
X75001002Y-156500006D03*
%TD*%
%TO.C,REF\u002A\u002A*%
X71998998Y-119500003D03*
%TD*%
%TO.C,REF\u002A\u002A*%
X98500002Y-146001006D03*
%TD*%
D12*
%TO.C,U2*%
X93430004Y-151290013D03*
D13*
X76770004Y-148750013D03*
D14*
X76770004Y-151290013D03*
X76770004Y-153830013D03*
%TD*%
D17*
%TO.C,J1*%
X92250004Y-57044998D03*
D18*
X92250004Y-54504998D03*
X94790004Y-57044998D03*
X94790004Y-54504998D03*
X97330004Y-57044998D03*
X97330004Y-54504998D03*
X99870004Y-57044998D03*
X99870004Y-54504998D03*
X102410004Y-57044998D03*
X102410004Y-54504998D03*
X104950004Y-57044998D03*
X104950004Y-54504998D03*
X107490004Y-57044998D03*
X107490004Y-54504998D03*
X110030004Y-57044998D03*
X110030004Y-54504998D03*
%TD*%
D11*
%TO.C,REF\u002A\u002A*%
X75001001Y-153500006D03*
%TD*%
%TO.C,REF\u002A\u002A*%
X118999002Y-48499999D03*
%TD*%
%TO.C,REF\u002A\u002A*%
X156499508Y-93999002D03*
%TD*%
%TO.C,REF\u002A\u002A*%
X133500502Y-111001006D03*
%TD*%
%TO.C,REF\u002A\u002A*%
X172998510Y-41000998D03*
%TD*%
%TO.C,REF\u002A\u002A*%
X60499499Y-58998998D03*
%TD*%
%TO.C,REF\u002A\u002A*%
X109499502Y-41000999D03*
%TD*%
%TO.C,REF\u002A\u002A*%
X145500005Y-93999001D03*
%TD*%
D15*
%TO.C,J3*%
X132550011Y-91100003D03*
X127950011Y-91100003D03*
D16*
X135950011Y-91100003D03*
X124550011Y-91100003D03*
%TD*%
D11*
%TO.C,REF\u002A\u002A*%
X28000998Y-83500001D03*
%TD*%
%TO.C,REF\u002A\u002A*%
X165999004Y-86500001D03*
%TD*%
%TO.C,REF\u002A\u002A*%
X60499499Y-163999009D03*
%TD*%
%TO.C,REF\u002A\u002A*%
X28000998Y-51499999D03*
%TD*%
%TO.C,REF\u002A\u002A*%
X144500005Y-128999004D03*
%TD*%
%TO.C,REF\u002A\u002A*%
X133500502Y-163999002D03*
%TD*%
D12*
%TO.C,U2*%
X46429997Y-46289998D03*
D13*
X29769997Y-43749998D03*
D14*
X29769997Y-46289998D03*
X29769997Y-48829998D03*
%TD*%
D11*
%TO.C,REF\u002A\u002A*%
X28000997Y-28998998D03*
%TD*%
%TO.C,REF\u002A\u002A*%
X122001005Y-49499999D03*
%TD*%
%TO.C,REF\u002A\u002A*%
X23501747Y-41000998D03*
%TD*%
%TO.C,REF\u002A\u002A*%
X145500005Y-41000999D03*
%TD*%
%TO.C,REF\u002A\u002A*%
X37500497Y-146001010D03*
%TD*%
%TO.C,REF\u002A\u002A*%
X28000997Y-38999998D03*
%TD*%
%TO.C,REF\u002A\u002A*%
X156499508Y-58998998D03*
%TD*%
%TO.C,REF\u002A\u002A*%
X165999020Y-28998998D03*
%TD*%
%TO.C,REF\u002A\u002A*%
X37500497Y-41000998D03*
%TD*%
%TO.C,REF\u002A\u002A*%
X108499502Y-128999006D03*
%TD*%
%TO.C,REF\u002A\u002A*%
X28000997Y-31499248D03*
%TD*%
%TO.C,REF\u002A\u002A*%
X107499502Y-111001001D03*
%TD*%
%TO.C,REF\u002A\u002A*%
X75001001Y-84500001D03*
%TD*%
%TO.C,REF\u002A\u002A*%
X28000997Y-167666845D03*
%TD*%
D12*
%TO.C,U2*%
X93430004Y-81290003D03*
D13*
X76770004Y-78750003D03*
D14*
X76770004Y-81290003D03*
X76770004Y-83830003D03*
%TD*%
D11*
%TO.C,REF\u002A\u002A*%
X49499998Y-93999001D03*
%TD*%
%TO.C,REF\u002A\u002A*%
X21001497Y-41000998D03*
%TD*%
%TO.C,REF\u002A\u002A*%
X169664843Y-163999015D03*
%TD*%
%TO.C,REF\u002A\u002A*%
X28000997Y-171000512D03*
%TD*%
%TO.C,REF\u002A\u002A*%
X28000997Y-175167595D03*
%TD*%
%TO.C,REF\u002A\u002A*%
X21001497Y-163999015D03*
%TD*%
%TO.C,REF\u002A\u002A*%
X156499508Y-128999006D03*
%TD*%
%TO.C,REF\u002A\u002A*%
X25168580Y-41000998D03*
%TD*%
%TO.C,REF\u002A\u002A*%
X39500497Y-146001010D03*
%TD*%
%TO.C,REF\u002A\u002A*%
X22668330Y-41000998D03*
%TD*%
%TO.C,REF\u002A\u002A*%
X86500501Y-76001002D03*
%TD*%
%TO.C,REF\u002A\u002A*%
X37500497Y-111001006D03*
%TD*%
%TO.C,REF\u002A\u002A*%
X28000998Y-121500003D03*
%TD*%
%TO.C,REF\u002A\u002A*%
X174665343Y-41000998D03*
%TD*%
%TO.C,REF\u002A\u002A*%
X39500497Y-163999002D03*
%TD*%
%TO.C,REF\u002A\u002A*%
X97500002Y-41000999D03*
%TD*%
%TO.C,REF\u002A\u002A*%
X71998998Y-48499999D03*
%TD*%
%TO.C,REF\u002A\u002A*%
X37500497Y-128999001D03*
%TD*%
%TO.C,REF\u002A\u002A*%
X177165593Y-41000998D03*
%TD*%
%TO.C,REF\u002A\u002A*%
X153499508Y-41000999D03*
%TD*%
%TO.C,REF\u002A\u002A*%
X48499998Y-128999003D03*
%TD*%
%TO.C,REF\u002A\u002A*%
X62499499Y-41000999D03*
%TD*%
%TO.C,REF\u002A\u002A*%
X106499502Y-146001003D03*
%TD*%
%TO.C,REF\u002A\u002A*%
X61499499Y-41000999D03*
%TD*%
%TO.C,REF\u002A\u002A*%
X62499499Y-76001000D03*
%TD*%
%TO.C,REF\u002A\u002A*%
X167998010Y-163999015D03*
%TD*%
%TO.C,REF\u002A\u002A*%
X107499502Y-41000999D03*
%TD*%
%TO.C,REF\u002A\u002A*%
X60499499Y-76001000D03*
%TD*%
%TO.C,REF\u002A\u002A*%
X132500502Y-163999002D03*
%TD*%
%TO.C,REF\u002A\u002A*%
X51499998Y-146001006D03*
%TD*%
%TO.C,REF\u002A\u002A*%
X154499508Y-146001003D03*
%TD*%
%TO.C,REF\u002A\u002A*%
X28000997Y-37333164D03*
%TD*%
%TO.C,REF\u002A\u002A*%
X19334663Y-41000998D03*
%TD*%
%TO.C,REF\u002A\u002A*%
X84500501Y-58998999D03*
%TD*%
%TO.C,REF\u002A\u002A*%
X87500501Y-93999000D03*
%TD*%
%TO.C,REF\u002A\u002A*%
X133500502Y-93999000D03*
%TD*%
%TO.C,REF\u002A\u002A*%
X97500002Y-111001003D03*
%TD*%
D19*
%TO.C,U1*%
X53246997Y-85093003D03*
D20*
X55786997Y-85093003D03*
X58326997Y-85093003D03*
X60866997Y-85093003D03*
X60866997Y-77473003D03*
X58326997Y-77473003D03*
X55786997Y-77473003D03*
X53246997Y-77473003D03*
%TD*%
D11*
%TO.C,REF\u002A\u002A*%
X51499998Y-41000999D03*
%TD*%
%TO.C,REF\u002A\u002A*%
X22668330Y-163999015D03*
%TD*%
%TO.C,REF\u002A\u002A*%
X143500005Y-76001001D03*
%TD*%
%TO.C,REF\u002A\u002A*%
X107499502Y-163999009D03*
%TD*%
%TO.C,REF\u002A\u002A*%
X154499508Y-111001001D03*
%TD*%
%TO.C,REF\u002A\u002A*%
X165999020Y-167666845D03*
%TD*%
%TO.C,REF\u002A\u002A*%
X40500497Y-93999000D03*
%TD*%
%TO.C,REF\u002A\u002A*%
X177999010Y-41000998D03*
%TD*%
%TO.C,REF\u002A\u002A*%
X97500002Y-163999006D03*
%TD*%
%TO.C,REF\u002A\u002A*%
X28000997Y-176001012D03*
%TD*%
D15*
%TO.C,J3*%
X80950004Y-91100003D03*
X85550004Y-91100003D03*
D16*
X77550004Y-91100003D03*
X88950004Y-91100003D03*
%TD*%
D11*
%TO.C,REF\u002A\u002A*%
X155499508Y-93999002D03*
%TD*%
%TO.C,REF\u002A\u002A*%
X118999001Y-86500001D03*
%TD*%
%TO.C,REF\u002A\u002A*%
X75001002Y-85500001D03*
%TD*%
%TO.C,REF\u002A\u002A*%
X153499508Y-93999002D03*
%TD*%
%TO.C,REF\u002A\u002A*%
X165999020Y-37333164D03*
%TD*%
%TO.C,REF\u002A\u002A*%
X28000998Y-84500001D03*
%TD*%
%TO.C,REF\u002A\u002A*%
X143500005Y-93999001D03*
%TD*%
%TO.C,REF\u002A\u002A*%
X172998510Y-163999015D03*
%TD*%
%TO.C,REF\u002A\u002A*%
X144500005Y-41000999D03*
%TD*%
%TO.C,REF\u002A\u002A*%
X38500497Y-93999000D03*
%TD*%
%TO.C,REF\u002A\u002A*%
X122001006Y-121500003D03*
%TD*%
%TO.C,REF\u002A\u002A*%
X96500002Y-111001004D03*
%TD*%
%TO.C,REF\u002A\u002A*%
X48499998Y-146001007D03*
%TD*%
%TO.C,REF\u002A\u002A*%
X85500501Y-111001006D03*
%TD*%
%TO.C,REF\u002A\u002A*%
X155499508Y-128999006D03*
%TD*%
%TO.C,REF\u002A\u002A*%
X142500005Y-111001004D03*
%TD*%
%TO.C,REF\u002A\u002A*%
X95500002Y-93999001D03*
%TD*%
%TO.C,REF\u002A\u002A*%
X61499499Y-163999010D03*
%TD*%
%TO.C,REF\u002A\u002A*%
X51499998Y-76001001D03*
%TD*%
%TO.C,REF\u002A\u002A*%
X96500002Y-146001006D03*
%TD*%
%TO.C,REF\u002A\u002A*%
X106499502Y-128999005D03*
%TD*%
%TO.C,REF\u002A\u002A*%
X142500005Y-146001007D03*
%TD*%
%TO.C,REF\u002A\u002A*%
X49499998Y-58998999D03*
%TD*%
D19*
%TO.C,U1*%
X100247004Y-85093003D03*
D20*
X102787004Y-85093003D03*
X105327004Y-85093003D03*
X107867004Y-85093003D03*
X107867004Y-77473003D03*
X105327004Y-77473003D03*
X102787004Y-77473003D03*
X100247004Y-77473003D03*
%TD*%
D11*
%TO.C,REF\u002A\u002A*%
X133500502Y-128999001D03*
%TD*%
%TO.C,REF\u002A\u002A*%
X132500502Y-41000998D03*
%TD*%
%TO.C,REF\u002A\u002A*%
X61499499Y-58998998D03*
%TD*%
D21*
%TO.C,J2*%
X161000011Y-84080003D03*
D22*
X161000011Y-79000003D03*
%TD*%
D11*
%TO.C,REF\u002A\u002A*%
X62499499Y-128999006D03*
%TD*%
%TO.C,REF\u002A\u002A*%
X165999020Y-30665831D03*
%TD*%
%TO.C,REF\u002A\u002A*%
X173831926Y-41000998D03*
%TD*%
%TO.C,REF\u002A\u002A*%
X109499502Y-163999010D03*
%TD*%
%TO.C,REF\u002A\u002A*%
X134500502Y-76001002D03*
%TD*%
%TO.C,REF\u002A\u002A*%
X118999001Y-51499999D03*
%TD*%
%TO.C,REF\u002A\u002A*%
X165999020Y-32332664D03*
%TD*%
%TO.C,REF\u002A\u002A*%
X142500005Y-163999005D03*
%TD*%
%TO.C,REF\u002A\u002A*%
X134500502Y-93999000D03*
%TD*%
%TO.C,REF\u002A\u002A*%
X28000997Y-36499748D03*
%TD*%
%TO.C,REF\u002A\u002A*%
X170498260Y-41000998D03*
%TD*%
%TO.C,REF\u002A\u002A*%
X155499508Y-111001001D03*
%TD*%
D12*
%TO.C,U2*%
X140430011Y-46289998D03*
D13*
X123770011Y-43749998D03*
D14*
X123770011Y-46289998D03*
X123770011Y-48829998D03*
%TD*%
D11*
%TO.C,REF\u002A\u002A*%
X38500497Y-41000998D03*
%TD*%
%TO.C,REF\u002A\u002A*%
X142500005Y-76001001D03*
%TD*%
%TO.C,REF\u002A\u002A*%
X109499502Y-76001000D03*
%TD*%
%TO.C,REF\u002A\u002A*%
X39500497Y-93999000D03*
%TD*%
%TO.C,REF\u002A\u002A*%
X118999001Y-50499999D03*
%TD*%
D17*
%TO.C,J1*%
X92250004Y-92045003D03*
D18*
X92250004Y-89505003D03*
X94790004Y-92045003D03*
X94790004Y-89505003D03*
X97330004Y-92045003D03*
X97330004Y-89505003D03*
X99870004Y-92045003D03*
X99870004Y-89505003D03*
X102410004Y-92045003D03*
X102410004Y-89505003D03*
X104950004Y-92045003D03*
X104950004Y-89505003D03*
X107490004Y-92045003D03*
X107490004Y-89505003D03*
X110030004Y-92045003D03*
X110030004Y-89505003D03*
%TD*%
D11*
%TO.C,REF\u002A\u002A*%
X145500005Y-111001003D03*
%TD*%
%TO.C,REF\u002A\u002A*%
X60499499Y-146001003D03*
%TD*%
%TO.C,REF\u002A\u002A*%
X176332176Y-163999015D03*
%TD*%
%TO.C,REF\u002A\u002A*%
X132500502Y-93999000D03*
%TD*%
%TO.C,REF\u002A\u002A*%
X165999005Y-50499999D03*
%TD*%
%TO.C,REF\u002A\u002A*%
X173831926Y-163999015D03*
%TD*%
D17*
%TO.C,J1*%
X45249997Y-57044998D03*
D18*
X45249997Y-54504998D03*
X47789997Y-57044998D03*
X47789997Y-54504998D03*
X50329997Y-57044998D03*
X50329997Y-54504998D03*
X52869997Y-57044998D03*
X52869997Y-54504998D03*
X55409997Y-57044998D03*
X55409997Y-54504998D03*
X57949997Y-57044998D03*
X57949997Y-54504998D03*
X60489997Y-57044998D03*
X60489997Y-54504998D03*
X63029997Y-57044998D03*
X63029997Y-54504998D03*
%TD*%
D11*
%TO.C,REF\u002A\u002A*%
X106499502Y-93999002D03*
%TD*%
%TO.C,REF\u002A\u002A*%
X40500497Y-76001002D03*
%TD*%
%TO.C,REF\u002A\u002A*%
X96500002Y-41000998D03*
%TD*%
%TO.C,REF\u002A\u002A*%
X108499502Y-163999010D03*
%TD*%
%TO.C,REF\u002A\u002A*%
X132500502Y-76001002D03*
%TD*%
%TO.C,REF\u002A\u002A*%
X40500497Y-58998999D03*
%TD*%
%TO.C,REF\u002A\u002A*%
X48499998Y-58998999D03*
%TD*%
%TO.C,REF\u002A\u002A*%
X165999004Y-51499999D03*
%TD*%
D17*
%TO.C,J1*%
X45249997Y-162045013D03*
D18*
X45249997Y-159505013D03*
X47789997Y-162045013D03*
X47789997Y-159505013D03*
X50329997Y-162045013D03*
X50329997Y-159505013D03*
X52869997Y-162045013D03*
X52869997Y-159505013D03*
X55409997Y-162045013D03*
X55409997Y-159505013D03*
X57949997Y-162045013D03*
X57949997Y-159505013D03*
X60489997Y-162045013D03*
X60489997Y-159505013D03*
X63029997Y-162045013D03*
X63029997Y-159505013D03*
%TD*%
D11*
%TO.C,REF\u002A\u002A*%
X87500501Y-76001002D03*
%TD*%
%TO.C,REF\u002A\u002A*%
X28000998Y-154500006D03*
%TD*%
%TO.C,REF\u002A\u002A*%
X142500005Y-58998999D03*
%TD*%
D19*
%TO.C,U1*%
X147247011Y-120093008D03*
D20*
X149787011Y-120093008D03*
X152327011Y-120093008D03*
X154867011Y-120093008D03*
X154867011Y-112473008D03*
X152327011Y-112473008D03*
X149787011Y-112473008D03*
X147247011Y-112473008D03*
%TD*%
D11*
%TO.C,REF\u002A\u002A*%
X86500501Y-41000998D03*
%TD*%
%TO.C,REF\u002A\u002A*%
X96500002Y-93999001D03*
%TD*%
%TO.C,REF\u002A\u002A*%
X60499499Y-128999006D03*
%TD*%
%TO.C,REF\u002A\u002A*%
X71998998Y-83500001D03*
%TD*%
M02*
