%TF.GenerationSoftware,KiCad,Pcbnew,6.0.2*%
%TF.CreationDate,2022-03-13T21:00:17+01:00*%
%TF.ProjectId,panelized,70616e65-6c69-47a6-9564-2e6b69636164,rev?*%
%TF.SameCoordinates,Original*%
%TF.FileFunction,Soldermask,Top*%
%TF.FilePolarity,Negative*%
%FSLAX46Y46*%
G04 Gerber Fmt 4.6, Leading zero omitted, Abs format (unit mm)*
G04 Created by KiCad (PCBNEW 6.0.2) date 2022-03-13 21:00:17*
%MOMM*%
%LPD*%
G01*
G04 APERTURE LIST*
G04 Aperture macros list*
%AMRoundRect*
0 Rectangle with rounded corners*
0 $1 Rounding radius*
0 $2 $3 $4 $5 $6 $7 $8 $9 X,Y pos of 4 corners*
0 Add a 4 corners polygon primitive as box body*
4,1,4,$2,$3,$4,$5,$6,$7,$8,$9,$2,$3,0*
0 Add four circle primitives for the rounded corners*
1,1,$1+$1,$2,$3*
1,1,$1+$1,$4,$5*
1,1,$1+$1,$6,$7*
1,1,$1+$1,$8,$9*
0 Add four rect primitives between the rounded corners*
20,1,$1+$1,$2,$3,$4,$5,0*
20,1,$1+$1,$4,$5,$6,$7,0*
20,1,$1+$1,$6,$7,$8,$9,0*
20,1,$1+$1,$8,$9,$2,$3,0*%
%AMFreePoly0*
4,1,9,3.862500,-0.866500,0.737500,-0.866500,0.737500,-0.450000,-0.737500,-0.450000,-0.737500,0.450000,0.737500,0.450000,0.737500,0.866500,3.862500,0.866500,3.862500,-0.866500,3.862500,-0.866500,$1*%
G04 Aperture macros list end*
%ADD10C,0.500000*%
%ADD11RoundRect,0.135000X0.185000X-0.135000X0.185000X0.135000X-0.185000X0.135000X-0.185000X-0.135000X0*%
%ADD12R,0.900000X1.300000*%
%ADD13FreePoly0,90.000000*%
%ADD14O,3.500000X3.500000*%
%ADD15R,2.000000X1.905000*%
%ADD16O,2.000000X1.905000*%
%ADD17C,1.100000*%
%ADD18R,1.100000X2.500000*%
%ADD19O,1.900000X3.500000*%
%ADD20C,1.000000*%
%ADD21RoundRect,0.135000X-0.185000X0.135000X-0.185000X-0.135000X0.185000X-0.135000X0.185000X0.135000X0*%
%ADD22R,1.700000X1.700000*%
%ADD23O,1.700000X1.700000*%
%ADD24R,1.600000X1.600000*%
%ADD25O,1.600000X1.600000*%
%ADD26R,3.000000X3.000000*%
%ADD27C,3.000000*%
G04 APERTURE END LIST*
D10*
%TO.C,REF\u002A\u002A*%
X28000997Y-33999498D03*
%TD*%
%TO.C,REF\u002A\u002A*%
X28000997Y-29832414D03*
%TD*%
%TO.C,REF\u002A\u002A*%
X39500497Y-58998999D03*
%TD*%
%TO.C,REF\u002A\u002A*%
X75001002Y-121500003D03*
%TD*%
%TO.C,REF\u002A\u002A*%
X133500502Y-76001002D03*
%TD*%
%TO.C,REF\u002A\u002A*%
X109499502Y-128999006D03*
%TD*%
%TO.C,REF\u002A\u002A*%
X98500002Y-58998998D03*
%TD*%
%TO.C,REF\u002A\u002A*%
X165999020Y-173500762D03*
%TD*%
D11*
%TO.C,R3*%
X145100011Y-115200008D03*
X145100011Y-114180008D03*
%TD*%
D10*
%TO.C,REF\u002A\u002A*%
X24335163Y-41000998D03*
%TD*%
%TO.C,REF\u002A\u002A*%
X165999020Y-166833428D03*
%TD*%
%TO.C,REF\u002A\u002A*%
X95500002Y-41000998D03*
%TD*%
%TO.C,REF\u002A\u002A*%
X50499998Y-58998998D03*
%TD*%
%TO.C,REF\u002A\u002A*%
X59499499Y-41000999D03*
%TD*%
%TO.C,REF\u002A\u002A*%
X28000997Y-34832914D03*
%TD*%
D12*
%TO.C,U3*%
X160100011Y-127050008D03*
D13*
X161600011Y-126962508D03*
D12*
X163100011Y-127050008D03*
%TD*%
D10*
%TO.C,REF\u002A\u002A*%
X86500501Y-128999001D03*
%TD*%
%TO.C,REF\u002A\u002A*%
X86500501Y-58998999D03*
%TD*%
%TO.C,REF\u002A\u002A*%
X122001005Y-120500003D03*
%TD*%
%TO.C,REF\u002A\u002A*%
X165999006Y-48499999D03*
%TD*%
D11*
%TO.C,R4*%
X97050004Y-80200003D03*
X97050004Y-79180003D03*
%TD*%
D14*
%TO.C,U2*%
X93430004Y-116290008D03*
D15*
X76770004Y-113750008D03*
D16*
X76770004Y-116290008D03*
X76770004Y-118830008D03*
%TD*%
D10*
%TO.C,REF\u002A\u002A*%
X21834913Y-41000998D03*
%TD*%
D17*
%TO.C,J3*%
X85550004Y-161100013D03*
X80950004Y-161100013D03*
D18*
X86750004Y-158350013D03*
X84250004Y-158350013D03*
X82250004Y-158350013D03*
X79750004Y-158350013D03*
D19*
X88950004Y-161100013D03*
X77550004Y-161100013D03*
%TD*%
D10*
%TO.C,REF\u002A\u002A*%
X165999005Y-49499999D03*
%TD*%
%TO.C,REF\u002A\u002A*%
X51499998Y-163999006D03*
%TD*%
%TO.C,REF\u002A\u002A*%
X169664843Y-41000998D03*
%TD*%
%TO.C,REF\u002A\u002A*%
X122001006Y-51499999D03*
%TD*%
%TO.C,REF\u002A\u002A*%
X71998998Y-49499999D03*
%TD*%
%TO.C,REF\u002A\u002A*%
X84500501Y-128999001D03*
%TD*%
%TO.C,REF\u002A\u002A*%
X28000997Y-168500262D03*
%TD*%
D20*
%TO.C,REF\u002A\u002A*%
X21000997Y-33998998D03*
%TD*%
D10*
%TO.C,REF\u002A\u002A*%
X98500002Y-76001001D03*
%TD*%
D17*
%TO.C,J3*%
X33949997Y-91100003D03*
X38549997Y-91100003D03*
D18*
X39749997Y-88350003D03*
X37249997Y-88350003D03*
X35249997Y-88350003D03*
X32749997Y-88350003D03*
D19*
X41949997Y-91100003D03*
X30549997Y-91100003D03*
%TD*%
D10*
%TO.C,REF\u002A\u002A*%
X51499998Y-93999001D03*
%TD*%
%TO.C,REF\u002A\u002A*%
X165999005Y-84500001D03*
%TD*%
%TO.C,REF\u002A\u002A*%
X97500002Y-76001001D03*
%TD*%
%TO.C,REF\u002A\u002A*%
X118999002Y-84500001D03*
%TD*%
D11*
%TO.C,R3*%
X51099997Y-80200003D03*
X51099997Y-79180003D03*
%TD*%
D10*
%TO.C,REF\u002A\u002A*%
X38500497Y-76001002D03*
%TD*%
D14*
%TO.C,U2*%
X46429997Y-151290013D03*
D15*
X29769997Y-148750013D03*
D16*
X29769997Y-151290013D03*
X29769997Y-153830013D03*
%TD*%
D10*
%TO.C,REF\u002A\u002A*%
X28000997Y-171833928D03*
%TD*%
%TO.C,REF\u002A\u002A*%
X153499508Y-76001000D03*
%TD*%
%TO.C,REF\u002A\u002A*%
X39500497Y-111001006D03*
%TD*%
%TO.C,REF\u002A\u002A*%
X154499508Y-93999002D03*
%TD*%
%TO.C,REF\u002A\u002A*%
X28000997Y-166833428D03*
%TD*%
%TO.C,REF\u002A\u002A*%
X86500501Y-146001010D03*
%TD*%
%TO.C,REF\u002A\u002A*%
X155499508Y-76001000D03*
%TD*%
%TO.C,REF\u002A\u002A*%
X143500005Y-41000998D03*
%TD*%
%TO.C,REF\u002A\u002A*%
X133500502Y-58998999D03*
%TD*%
D11*
%TO.C,R3*%
X98100004Y-115200008D03*
X98100004Y-114180008D03*
%TD*%
D21*
%TO.C,R1*%
X97050004Y-82390003D03*
X97050004Y-83410003D03*
%TD*%
D11*
%TO.C,R4*%
X97050004Y-45199998D03*
X97050004Y-44179998D03*
%TD*%
D10*
%TO.C,REF\u002A\u002A*%
X175498760Y-163999015D03*
%TD*%
D21*
%TO.C,R1*%
X50049997Y-47389998D03*
X50049997Y-48409998D03*
%TD*%
D10*
%TO.C,REF\u002A\u002A*%
X50499998Y-93999001D03*
%TD*%
%TO.C,REF\u002A\u002A*%
X85500501Y-146001010D03*
%TD*%
%TO.C,REF\u002A\u002A*%
X28000997Y-33166081D03*
%TD*%
%TO.C,REF\u002A\u002A*%
X131500502Y-58998999D03*
%TD*%
D22*
%TO.C,J1*%
X45249997Y-92045003D03*
D23*
X45249997Y-89505003D03*
X47789997Y-92045003D03*
X47789997Y-89505003D03*
X50329997Y-92045003D03*
X50329997Y-89505003D03*
X52869997Y-92045003D03*
X52869997Y-89505003D03*
X55409997Y-92045003D03*
X55409997Y-89505003D03*
X57949997Y-92045003D03*
X57949997Y-89505003D03*
X60489997Y-92045003D03*
X60489997Y-89505003D03*
X63029997Y-92045003D03*
X63029997Y-89505003D03*
%TD*%
D21*
%TO.C,R1*%
X97050004Y-117390008D03*
X97050004Y-118410008D03*
%TD*%
D10*
%TO.C,REF\u002A\u002A*%
X62499499Y-163999010D03*
%TD*%
%TO.C,REF\u002A\u002A*%
X95500002Y-146001007D03*
%TD*%
D21*
%TO.C,R2*%
X98100004Y-47389998D03*
X98100004Y-48409998D03*
%TD*%
D10*
%TO.C,REF\u002A\u002A*%
X28000997Y-30665831D03*
%TD*%
%TO.C,REF\u002A\u002A*%
X122001004Y-83500001D03*
%TD*%
D12*
%TO.C,U3*%
X66099997Y-92050003D03*
D13*
X67599997Y-91962503D03*
D12*
X69099997Y-92050003D03*
%TD*%
D10*
%TO.C,REF\u002A\u002A*%
X28000998Y-120500003D03*
%TD*%
D22*
%TO.C,J1*%
X92250004Y-127045008D03*
D23*
X92250004Y-124505008D03*
X94790004Y-127045008D03*
X94790004Y-124505008D03*
X97330004Y-127045008D03*
X97330004Y-124505008D03*
X99870004Y-127045008D03*
X99870004Y-124505008D03*
X102410004Y-127045008D03*
X102410004Y-124505008D03*
X104950004Y-127045008D03*
X104950004Y-124505008D03*
X107490004Y-127045008D03*
X107490004Y-124505008D03*
X110030004Y-127045008D03*
X110030004Y-124505008D03*
%TD*%
D10*
%TO.C,REF\u002A\u002A*%
X118999002Y-83500001D03*
%TD*%
D21*
%TO.C,R2*%
X51099997Y-152390013D03*
X51099997Y-153410013D03*
%TD*%
D10*
%TO.C,REF\u002A\u002A*%
X145500005Y-76001001D03*
%TD*%
%TO.C,REF\u002A\u002A*%
X95500002Y-111001004D03*
%TD*%
%TO.C,REF\u002A\u002A*%
X28000998Y-155500006D03*
%TD*%
%TO.C,REF\u002A\u002A*%
X61499499Y-93999002D03*
%TD*%
%TO.C,REF\u002A\u002A*%
X39500497Y-76001002D03*
%TD*%
D24*
%TO.C,U1*%
X147247011Y-85093003D03*
D25*
X149787011Y-85093003D03*
X152327011Y-85093003D03*
X154867011Y-85093003D03*
X154867011Y-77473003D03*
X152327011Y-77473003D03*
X149787011Y-77473003D03*
X147247011Y-77473003D03*
%TD*%
D10*
%TO.C,REF\u002A\u002A*%
X165999020Y-34832914D03*
%TD*%
%TO.C,REF\u002A\u002A*%
X134500502Y-163999003D03*
%TD*%
%TO.C,REF\u002A\u002A*%
X172165093Y-41000998D03*
%TD*%
%TO.C,REF\u002A\u002A*%
X144500005Y-146001006D03*
%TD*%
%TO.C,REF\u002A\u002A*%
X122001005Y-154500006D03*
%TD*%
D17*
%TO.C,J3*%
X85550004Y-56099998D03*
X80950004Y-56099998D03*
D18*
X86750004Y-53349998D03*
X84250004Y-53349998D03*
X82250004Y-53349998D03*
X79750004Y-53349998D03*
D19*
X77550004Y-56099998D03*
X88950004Y-56099998D03*
%TD*%
D10*
%TO.C,REF\u002A\u002A*%
X165999006Y-153500006D03*
%TD*%
D21*
%TO.C,R2*%
X145100011Y-82390003D03*
X145100011Y-83410003D03*
%TD*%
D10*
%TO.C,REF\u002A\u002A*%
X86500501Y-163999002D03*
%TD*%
%TO.C,REF\u002A\u002A*%
X143500005Y-111001004D03*
%TD*%
%TO.C,REF\u002A\u002A*%
X38500497Y-146001010D03*
%TD*%
%TO.C,REF\u002A\u002A*%
X71998998Y-50499999D03*
%TD*%
%TO.C,REF\u002A\u002A*%
X156499508Y-163999010D03*
%TD*%
%TO.C,REF\u002A\u002A*%
X50499998Y-128999004D03*
%TD*%
D11*
%TO.C,R4*%
X97050004Y-150200013D03*
X97050004Y-149180013D03*
%TD*%
D10*
%TO.C,REF\u002A\u002A*%
X28000997Y-173500762D03*
%TD*%
%TO.C,REF\u002A\u002A*%
X122001005Y-155500006D03*
%TD*%
%TO.C,REF\u002A\u002A*%
X168831426Y-41000998D03*
%TD*%
%TO.C,REF\u002A\u002A*%
X170498260Y-163999015D03*
%TD*%
%TO.C,REF\u002A\u002A*%
X98500002Y-41000999D03*
%TD*%
%TO.C,REF\u002A\u002A*%
X171331676Y-163999015D03*
%TD*%
%TO.C,REF\u002A\u002A*%
X165999020Y-174334178D03*
%TD*%
D22*
%TO.C,J1*%
X92250004Y-162045013D03*
D23*
X92250004Y-159505013D03*
X94790004Y-162045013D03*
X94790004Y-159505013D03*
X97330004Y-162045013D03*
X97330004Y-159505013D03*
X99870004Y-162045013D03*
X99870004Y-159505013D03*
X102410004Y-162045013D03*
X102410004Y-159505013D03*
X104950004Y-162045013D03*
X104950004Y-159505013D03*
X107490004Y-162045013D03*
X107490004Y-159505013D03*
X110030004Y-162045013D03*
X110030004Y-159505013D03*
%TD*%
D10*
%TO.C,REF\u002A\u002A*%
X174665343Y-163999015D03*
%TD*%
%TO.C,REF\u002A\u002A*%
X26001997Y-163999015D03*
%TD*%
%TO.C,REF\u002A\u002A*%
X40500497Y-41000998D03*
%TD*%
%TO.C,REF\u002A\u002A*%
X84500501Y-163999002D03*
%TD*%
%TO.C,REF\u002A\u002A*%
X28000997Y-172667345D03*
%TD*%
%TO.C,REF\u002A\u002A*%
X62499499Y-146001002D03*
%TD*%
D12*
%TO.C,U3*%
X160100011Y-57049998D03*
D13*
X161600011Y-56962498D03*
D12*
X163100011Y-57049998D03*
%TD*%
D10*
%TO.C,REF\u002A\u002A*%
X154499508Y-76001000D03*
%TD*%
%TO.C,REF\u002A\u002A*%
X143500005Y-146001006D03*
%TD*%
D26*
%TO.C,J2*%
X66999997Y-154080013D03*
D27*
X66999997Y-149000013D03*
%TD*%
D10*
%TO.C,REF\u002A\u002A*%
X61499499Y-146001002D03*
%TD*%
%TO.C,REF\u002A\u002A*%
X165999020Y-169333678D03*
%TD*%
%TO.C,REF\u002A\u002A*%
X38500497Y-111001006D03*
%TD*%
%TO.C,REF\u002A\u002A*%
X98500002Y-93999001D03*
%TD*%
%TO.C,REF\u002A\u002A*%
X134500502Y-111001005D03*
%TD*%
D21*
%TO.C,R1*%
X50049997Y-152390013D03*
X50049997Y-153410013D03*
%TD*%
D10*
%TO.C,REF\u002A\u002A*%
X118999001Y-85500001D03*
%TD*%
%TO.C,REF\u002A\u002A*%
X49499998Y-146001006D03*
%TD*%
%TO.C,REF\u002A\u002A*%
X106499502Y-58998998D03*
%TD*%
D22*
%TO.C,J1*%
X45249997Y-127045008D03*
D23*
X45249997Y-124505008D03*
X47789997Y-127045008D03*
X47789997Y-124505008D03*
X50329997Y-127045008D03*
X50329997Y-124505008D03*
X52869997Y-127045008D03*
X52869997Y-124505008D03*
X55409997Y-127045008D03*
X55409997Y-124505008D03*
X57949997Y-127045008D03*
X57949997Y-124505008D03*
X60489997Y-127045008D03*
X60489997Y-124505008D03*
X63029997Y-127045008D03*
X63029997Y-124505008D03*
%TD*%
D10*
%TO.C,REF\u002A\u002A*%
X60499499Y-111001001D03*
%TD*%
D21*
%TO.C,R1*%
X144050011Y-82390003D03*
X144050011Y-83410003D03*
%TD*%
D10*
%TO.C,REF\u002A\u002A*%
X75001001Y-83500001D03*
%TD*%
%TO.C,REF\u002A\u002A*%
X59499499Y-58998998D03*
%TD*%
%TO.C,REF\u002A\u002A*%
X85500501Y-76001002D03*
%TD*%
%TO.C,REF\u002A\u002A*%
X48499998Y-163999005D03*
%TD*%
%TO.C,REF\u002A\u002A*%
X39500497Y-41000998D03*
%TD*%
%TO.C,REF\u002A\u002A*%
X60499499Y-93999002D03*
%TD*%
%TO.C,REF\u002A\u002A*%
X86500501Y-111001006D03*
%TD*%
%TO.C,REF\u002A\u002A*%
X154499508Y-163999009D03*
%TD*%
%TO.C,REF\u002A\u002A*%
X71998998Y-86500001D03*
%TD*%
%TO.C,REF\u002A\u002A*%
X106499502Y-76001000D03*
%TD*%
%TO.C,REF\u002A\u002A*%
X165999020Y-31499248D03*
%TD*%
%TO.C,REF\u002A\u002A*%
X95500002Y-58998999D03*
%TD*%
%TO.C,REF\u002A\u002A*%
X165999020Y-170167095D03*
%TD*%
%TO.C,REF\u002A\u002A*%
X168831426Y-163999015D03*
%TD*%
%TO.C,REF\u002A\u002A*%
X96500002Y-128999003D03*
%TD*%
D24*
%TO.C,U1*%
X53246997Y-120093008D03*
D25*
X55786997Y-120093008D03*
X58326997Y-120093008D03*
X60866997Y-120093008D03*
X60866997Y-112473008D03*
X58326997Y-112473008D03*
X55786997Y-112473008D03*
X53246997Y-112473008D03*
%TD*%
D10*
%TO.C,REF\u002A\u002A*%
X49499998Y-41000998D03*
%TD*%
%TO.C,REF\u002A\u002A*%
X98500002Y-163999006D03*
%TD*%
%TO.C,REF\u002A\u002A*%
X71998998Y-154500006D03*
%TD*%
%TO.C,REF\u002A\u002A*%
X49499998Y-163999006D03*
%TD*%
%TO.C,REF\u002A\u002A*%
X75001002Y-50499999D03*
%TD*%
%TO.C,REF\u002A\u002A*%
X71998998Y-118500003D03*
%TD*%
D26*
%TO.C,J2*%
X161000011Y-119080008D03*
D27*
X161000011Y-114000008D03*
%TD*%
D10*
%TO.C,REF\u002A\u002A*%
X98500002Y-111001003D03*
%TD*%
%TO.C,REF\u002A\u002A*%
X61499499Y-128999006D03*
%TD*%
%TO.C,REF\u002A\u002A*%
X165999005Y-119500003D03*
%TD*%
%TO.C,REF\u002A\u002A*%
X132500502Y-111001006D03*
%TD*%
%TO.C,REF\u002A\u002A*%
X122001005Y-84500001D03*
%TD*%
%TO.C,REF\u002A\u002A*%
X86500501Y-93999000D03*
%TD*%
%TO.C,REF\u002A\u002A*%
X50499998Y-41000999D03*
%TD*%
%TO.C,REF\u002A\u002A*%
X165999020Y-175167595D03*
%TD*%
%TO.C,REF\u002A\u002A*%
X106499502Y-111001002D03*
%TD*%
%TO.C,REF\u002A\u002A*%
X122001005Y-50499999D03*
%TD*%
%TO.C,REF\u002A\u002A*%
X156499508Y-76001000D03*
%TD*%
%TO.C,REF\u002A\u002A*%
X118999001Y-120500003D03*
%TD*%
%TO.C,REF\u002A\u002A*%
X17667830Y-163999015D03*
%TD*%
%TO.C,REF\u002A\u002A*%
X51499998Y-111001003D03*
%TD*%
%TO.C,REF\u002A\u002A*%
X87500501Y-128999002D03*
%TD*%
D21*
%TO.C,R2*%
X51099997Y-47389998D03*
X51099997Y-48409998D03*
%TD*%
D10*
%TO.C,REF\u002A\u002A*%
X71998998Y-153500006D03*
%TD*%
%TO.C,REF\u002A\u002A*%
X131500502Y-76001002D03*
%TD*%
%TO.C,REF\u002A\u002A*%
X156499508Y-146001002D03*
%TD*%
%TO.C,REF\u002A\u002A*%
X71998998Y-156500006D03*
%TD*%
%TO.C,REF\u002A\u002A*%
X107499502Y-58998998D03*
%TD*%
%TO.C,REF\u002A\u002A*%
X28000998Y-86500001D03*
%TD*%
D21*
%TO.C,R1*%
X50049997Y-117390008D03*
X50049997Y-118410008D03*
%TD*%
D11*
%TO.C,R4*%
X50049997Y-45199998D03*
X50049997Y-44179998D03*
%TD*%
D10*
%TO.C,REF\u002A\u002A*%
X28000997Y-35666331D03*
%TD*%
%TO.C,REF\u002A\u002A*%
X153499508Y-58998998D03*
%TD*%
D12*
%TO.C,U3*%
X160100011Y-92050003D03*
D13*
X161600011Y-91962503D03*
D12*
X163100011Y-92050003D03*
%TD*%
D14*
%TO.C,U2*%
X46429997Y-81290003D03*
D15*
X29769997Y-78750003D03*
D16*
X29769997Y-81290003D03*
X29769997Y-83830003D03*
%TD*%
D10*
%TO.C,REF\u002A\u002A*%
X143500005Y-58998999D03*
%TD*%
%TO.C,REF\u002A\u002A*%
X97500002Y-58998998D03*
%TD*%
D21*
%TO.C,R1*%
X97050004Y-47389998D03*
X97050004Y-48409998D03*
%TD*%
D10*
%TO.C,REF\u002A\u002A*%
X165999020Y-33166081D03*
%TD*%
%TO.C,REF\u002A\u002A*%
X40500497Y-146001009D03*
%TD*%
%TO.C,REF\u002A\u002A*%
X84500501Y-41000998D03*
%TD*%
%TO.C,REF\u002A\u002A*%
X28000998Y-118500003D03*
%TD*%
%TO.C,REF\u002A\u002A*%
X106499502Y-163999009D03*
%TD*%
D12*
%TO.C,U3*%
X113100004Y-57049998D03*
D13*
X114600004Y-56962498D03*
D12*
X116100004Y-57049998D03*
%TD*%
D10*
%TO.C,REF\u002A\u002A*%
X61499499Y-76001000D03*
%TD*%
%TO.C,REF\u002A\u002A*%
X165999006Y-118500003D03*
%TD*%
%TO.C,REF\u002A\u002A*%
X28000997Y-166000012D03*
%TD*%
%TO.C,REF\u002A\u002A*%
X75001002Y-86500001D03*
%TD*%
%TO.C,REF\u002A\u002A*%
X16834413Y-163999015D03*
%TD*%
%TO.C,REF\u002A\u002A*%
X155499508Y-41000999D03*
%TD*%
%TO.C,REF\u002A\u002A*%
X118999001Y-121500003D03*
%TD*%
%TO.C,REF\u002A\u002A*%
X62499499Y-58998998D03*
%TD*%
D21*
%TO.C,R1*%
X97050004Y-152390013D03*
X97050004Y-153410013D03*
%TD*%
D10*
%TO.C,REF\u002A\u002A*%
X165999020Y-36499748D03*
%TD*%
%TO.C,REF\u002A\u002A*%
X48499998Y-76001001D03*
%TD*%
D21*
%TO.C,R2*%
X51099997Y-117390008D03*
X51099997Y-118410008D03*
%TD*%
D11*
%TO.C,R4*%
X144050011Y-80200003D03*
X144050011Y-79180003D03*
%TD*%
D10*
%TO.C,REF\u002A\u002A*%
X108499502Y-76001000D03*
%TD*%
%TO.C,REF\u002A\u002A*%
X165999020Y-29832414D03*
%TD*%
%TO.C,REF\u002A\u002A*%
X71998998Y-51499999D03*
%TD*%
%TO.C,REF\u002A\u002A*%
X59499499Y-163999009D03*
%TD*%
D21*
%TO.C,R2*%
X145100011Y-152390013D03*
X145100011Y-153410013D03*
%TD*%
D12*
%TO.C,U3*%
X66099997Y-57049998D03*
D13*
X67599997Y-56962498D03*
D12*
X69099997Y-57049998D03*
%TD*%
D10*
%TO.C,REF\u002A\u002A*%
X165999020Y-171833928D03*
%TD*%
%TO.C,REF\u002A\u002A*%
X142500005Y-41000998D03*
%TD*%
%TO.C,REF\u002A\u002A*%
X48499998Y-111001004D03*
%TD*%
D14*
%TO.C,U2*%
X93430004Y-46289998D03*
D15*
X76770004Y-43749998D03*
D16*
X76770004Y-46289998D03*
X76770004Y-48829998D03*
%TD*%
D26*
%TO.C,J2*%
X66999997Y-119080008D03*
D27*
X66999997Y-114000008D03*
%TD*%
D14*
%TO.C,U2*%
X140430011Y-151290013D03*
D15*
X123770011Y-148750013D03*
D16*
X123770011Y-151290013D03*
X123770011Y-153830013D03*
%TD*%
D10*
%TO.C,REF\u002A\u002A*%
X109499502Y-146001002D03*
%TD*%
%TO.C,REF\u002A\u002A*%
X131500502Y-41000998D03*
%TD*%
%TO.C,REF\u002A\u002A*%
X97500002Y-93999001D03*
%TD*%
%TO.C,REF\u002A\u002A*%
X85500501Y-93999000D03*
%TD*%
%TO.C,REF\u002A\u002A*%
X165999005Y-85500001D03*
%TD*%
%TO.C,REF\u002A\u002A*%
X28000998Y-156500006D03*
%TD*%
%TO.C,REF\u002A\u002A*%
X165999020Y-171000512D03*
%TD*%
%TO.C,REF\u002A\u002A*%
X85500501Y-163999002D03*
%TD*%
%TO.C,REF\u002A\u002A*%
X28000998Y-49499999D03*
%TD*%
%TO.C,REF\u002A\u002A*%
X108499502Y-146001002D03*
%TD*%
%TO.C,REF\u002A\u002A*%
X28000997Y-38166581D03*
%TD*%
%TO.C,REF\u002A\u002A*%
X75001001Y-48499999D03*
%TD*%
%TO.C,REF\u002A\u002A*%
X96500002Y-76001001D03*
%TD*%
%TO.C,REF\u002A\u002A*%
X118999001Y-156500006D03*
%TD*%
%TO.C,REF\u002A\u002A*%
X165999020Y-35666331D03*
%TD*%
%TO.C,REF\u002A\u002A*%
X144500005Y-93999001D03*
%TD*%
D24*
%TO.C,U1*%
X147247011Y-50092998D03*
D25*
X149787011Y-50092998D03*
X152327011Y-50092998D03*
X154867011Y-50092998D03*
X154867011Y-42472998D03*
X152327011Y-42472998D03*
X149787011Y-42472998D03*
X147247011Y-42472998D03*
%TD*%
D26*
%TO.C,J2*%
X66999997Y-84080003D03*
D27*
X66999997Y-79000003D03*
%TD*%
D10*
%TO.C,REF\u002A\u002A*%
X26001997Y-41000998D03*
%TD*%
D21*
%TO.C,R2*%
X98100004Y-152390013D03*
X98100004Y-153410013D03*
%TD*%
D10*
%TO.C,REF\u002A\u002A*%
X28000998Y-48499999D03*
%TD*%
%TO.C,REF\u002A\u002A*%
X156499508Y-111001001D03*
%TD*%
%TO.C,REF\u002A\u002A*%
X59499499Y-128999005D03*
%TD*%
%TO.C,REF\u002A\u002A*%
X122001005Y-85500001D03*
%TD*%
%TO.C,REF\u002A\u002A*%
X165999020Y-176001012D03*
%TD*%
D24*
%TO.C,U1*%
X100247004Y-155093013D03*
D25*
X102787004Y-155093013D03*
X105327004Y-155093013D03*
X107867004Y-155093013D03*
X107867004Y-147473013D03*
X105327004Y-147473013D03*
X102787004Y-147473013D03*
X100247004Y-147473013D03*
%TD*%
D10*
%TO.C,REF\u002A\u002A*%
X176332176Y-41000998D03*
%TD*%
D22*
%TO.C,J1*%
X139250011Y-57044998D03*
D23*
X139250011Y-54504998D03*
X141790011Y-57044998D03*
X141790011Y-54504998D03*
X144330011Y-57044998D03*
X144330011Y-54504998D03*
X146870011Y-57044998D03*
X146870011Y-54504998D03*
X149410011Y-57044998D03*
X149410011Y-54504998D03*
X151950011Y-57044998D03*
X151950011Y-54504998D03*
X154490011Y-57044998D03*
X154490011Y-54504998D03*
X157030011Y-57044998D03*
X157030011Y-54504998D03*
%TD*%
D10*
%TO.C,REF\u002A\u002A*%
X144500005Y-111001003D03*
%TD*%
%TO.C,REF\u002A\u002A*%
X122001006Y-156500006D03*
%TD*%
%TO.C,REF\u002A\u002A*%
X84500501Y-111001006D03*
%TD*%
%TO.C,REF\u002A\u002A*%
X37500497Y-76001002D03*
%TD*%
D21*
%TO.C,R1*%
X50049997Y-82390003D03*
X50049997Y-83410003D03*
%TD*%
%TO.C,R2*%
X98100004Y-82390003D03*
X98100004Y-83410003D03*
%TD*%
D10*
%TO.C,REF\u002A\u002A*%
X131500502Y-93999000D03*
%TD*%
%TO.C,REF\u002A\u002A*%
X154499508Y-41000999D03*
%TD*%
D17*
%TO.C,J3*%
X33949997Y-161100013D03*
X38549997Y-161100013D03*
D18*
X39749997Y-158350013D03*
X37249997Y-158350013D03*
X35249997Y-158350013D03*
X32749997Y-158350013D03*
D19*
X30549997Y-161100013D03*
X41949997Y-161100013D03*
%TD*%
D12*
%TO.C,U3*%
X113100004Y-92050003D03*
D13*
X114600004Y-91962503D03*
D12*
X116100004Y-92050003D03*
%TD*%
D10*
%TO.C,REF\u002A\u002A*%
X50499998Y-76001001D03*
%TD*%
%TO.C,REF\u002A\u002A*%
X131500502Y-146001010D03*
%TD*%
D24*
%TO.C,U1*%
X100247004Y-50092998D03*
D25*
X102787004Y-50092998D03*
X105327004Y-50092998D03*
X107867004Y-50092998D03*
X107867004Y-42472998D03*
X105327004Y-42472998D03*
X102787004Y-42472998D03*
X100247004Y-42472998D03*
%TD*%
D10*
%TO.C,REF\u002A\u002A*%
X118999002Y-118500003D03*
%TD*%
%TO.C,REF\u002A\u002A*%
X155499508Y-58998998D03*
%TD*%
D21*
%TO.C,R1*%
X144050011Y-152390013D03*
X144050011Y-153410013D03*
%TD*%
D11*
%TO.C,R4*%
X50049997Y-80200003D03*
X50049997Y-79180003D03*
%TD*%
D10*
%TO.C,REF\u002A\u002A*%
X48499998Y-93999001D03*
%TD*%
D26*
%TO.C,J2*%
X161000011Y-49079998D03*
D27*
X161000011Y-43999998D03*
%TD*%
D10*
%TO.C,REF\u002A\u002A*%
X75001001Y-119500003D03*
%TD*%
%TO.C,REF\u002A\u002A*%
X144500005Y-76001001D03*
%TD*%
%TO.C,REF\u002A\u002A*%
X21834913Y-163999015D03*
%TD*%
%TO.C,REF\u002A\u002A*%
X143500005Y-163999006D03*
%TD*%
%TO.C,REF\u002A\u002A*%
X62499499Y-93999002D03*
%TD*%
%TO.C,REF\u002A\u002A*%
X40500497Y-111001005D03*
%TD*%
D11*
%TO.C,R4*%
X144050011Y-150200013D03*
X144050011Y-149180013D03*
%TD*%
D14*
%TO.C,U2*%
X140430011Y-81290003D03*
D15*
X123770011Y-78750003D03*
D16*
X123770011Y-81290003D03*
X123770011Y-83830003D03*
%TD*%
D21*
%TO.C,R2*%
X51099997Y-82390003D03*
X51099997Y-83410003D03*
%TD*%
D10*
%TO.C,REF\u002A\u002A*%
X95500002Y-163999005D03*
%TD*%
D17*
%TO.C,J3*%
X38549997Y-56099998D03*
X33949997Y-56099998D03*
D18*
X39749997Y-53349998D03*
X37249997Y-53349998D03*
X35249997Y-53349998D03*
X32749997Y-53349998D03*
D19*
X30549997Y-56099998D03*
X41949997Y-56099998D03*
%TD*%
D26*
%TO.C,J2*%
X161000011Y-154080013D03*
D27*
X161000011Y-149000013D03*
%TD*%
D10*
%TO.C,REF\u002A\u002A*%
X108499502Y-41000999D03*
%TD*%
%TO.C,REF\u002A\u002A*%
X142500005Y-93999001D03*
%TD*%
D21*
%TO.C,R2*%
X145100011Y-47389998D03*
X145100011Y-48409998D03*
%TD*%
D10*
%TO.C,REF\u002A\u002A*%
X16000997Y-41000998D03*
%TD*%
%TO.C,REF\u002A\u002A*%
X28000997Y-170167095D03*
%TD*%
%TO.C,REF\u002A\u002A*%
X71998998Y-84500001D03*
%TD*%
%TO.C,REF\u002A\u002A*%
X50499998Y-146001006D03*
%TD*%
%TO.C,REF\u002A\u002A*%
X134500502Y-128999002D03*
%TD*%
D26*
%TO.C,J2*%
X114000004Y-49079998D03*
D27*
X114000004Y-43999998D03*
%TD*%
D10*
%TO.C,REF\u002A\u002A*%
X19334663Y-163999015D03*
%TD*%
D11*
%TO.C,R3*%
X98100004Y-45199998D03*
X98100004Y-44179998D03*
%TD*%
D10*
%TO.C,REF\u002A\u002A*%
X49499998Y-111001004D03*
%TD*%
%TO.C,REF\u002A\u002A*%
X75001001Y-154500006D03*
%TD*%
%TO.C,REF\u002A\u002A*%
X51499998Y-58998998D03*
%TD*%
%TO.C,REF\u002A\u002A*%
X177165593Y-163999015D03*
%TD*%
%TO.C,REF\u002A\u002A*%
X107499502Y-93999002D03*
%TD*%
%TO.C,REF\u002A\u002A*%
X38500497Y-128999001D03*
%TD*%
D17*
%TO.C,J3*%
X132550011Y-126100008D03*
X127950011Y-126100008D03*
D18*
X133750011Y-123350008D03*
X131250011Y-123350008D03*
X129250011Y-123350008D03*
X126750011Y-123350008D03*
D19*
X135950011Y-126100008D03*
X124550011Y-126100008D03*
%TD*%
D10*
%TO.C,REF\u002A\u002A*%
X60499499Y-41000999D03*
%TD*%
%TO.C,REF\u002A\u002A*%
X51499998Y-128999004D03*
%TD*%
%TO.C,REF\u002A\u002A*%
X95500002Y-128999003D03*
%TD*%
%TO.C,REF\u002A\u002A*%
X28000997Y-32332664D03*
%TD*%
%TO.C,REF\u002A\u002A*%
X118999002Y-154500006D03*
%TD*%
%TO.C,REF\u002A\u002A*%
X84500501Y-146001010D03*
%TD*%
%TO.C,REF\u002A\u002A*%
X23501747Y-163999015D03*
%TD*%
%TO.C,REF\u002A\u002A*%
X37500497Y-163999002D03*
%TD*%
%TO.C,REF\u002A\u002A*%
X156499508Y-41000999D03*
%TD*%
%TO.C,REF\u002A\u002A*%
X28000998Y-50499999D03*
%TD*%
%TO.C,REF\u002A\u002A*%
X40500497Y-163999003D03*
%TD*%
%TO.C,REF\u002A\u002A*%
X107499502Y-146001003D03*
%TD*%
%TO.C,REF\u002A\u002A*%
X48499998Y-41000998D03*
%TD*%
%TO.C,REF\u002A\u002A*%
X71998998Y-155500006D03*
%TD*%
%TO.C,REF\u002A\u002A*%
X37500497Y-93999000D03*
%TD*%
%TO.C,REF\u002A\u002A*%
X134500502Y-41000998D03*
%TD*%
%TO.C,REF\u002A\u002A*%
X75001001Y-118500003D03*
%TD*%
%TO.C,REF\u002A\u002A*%
X153499508Y-128999005D03*
%TD*%
%TO.C,REF\u002A\u002A*%
X145500005Y-58998998D03*
%TD*%
D22*
%TO.C,J1*%
X139250011Y-162045013D03*
D23*
X139250011Y-159505013D03*
X141790011Y-162045013D03*
X141790011Y-159505013D03*
X144330011Y-162045013D03*
X144330011Y-159505013D03*
X146870011Y-162045013D03*
X146870011Y-159505013D03*
X149410011Y-162045013D03*
X149410011Y-159505013D03*
X151950011Y-162045013D03*
X151950011Y-159505013D03*
X154490011Y-162045013D03*
X154490011Y-159505013D03*
X157030011Y-162045013D03*
X157030011Y-159505013D03*
%TD*%
D10*
%TO.C,REF\u002A\u002A*%
X165999004Y-156500006D03*
%TD*%
%TO.C,REF\u002A\u002A*%
X71998998Y-85500001D03*
%TD*%
%TO.C,REF\u002A\u002A*%
X132500502Y-128999001D03*
%TD*%
%TO.C,REF\u002A\u002A*%
X108499502Y-111001001D03*
%TD*%
D11*
%TO.C,R3*%
X98100004Y-80200003D03*
X98100004Y-79180003D03*
%TD*%
D21*
%TO.C,R2*%
X145100011Y-117390008D03*
X145100011Y-118410008D03*
%TD*%
D10*
%TO.C,REF\u002A\u002A*%
X165999020Y-33999498D03*
%TD*%
D14*
%TO.C,U2*%
X140430011Y-116290008D03*
D15*
X123770011Y-113750008D03*
D16*
X123770011Y-116290008D03*
X123770011Y-118830008D03*
%TD*%
D10*
%TO.C,REF\u002A\u002A*%
X37500497Y-58998999D03*
%TD*%
%TO.C,REF\u002A\u002A*%
X175498760Y-41000998D03*
%TD*%
D24*
%TO.C,U1*%
X53246997Y-155093013D03*
D25*
X55786997Y-155093013D03*
X58326997Y-155093013D03*
X60866997Y-155093013D03*
X60866997Y-147473013D03*
X58326997Y-147473013D03*
X55786997Y-147473013D03*
X53246997Y-147473013D03*
%TD*%
D10*
%TO.C,REF\u002A\u002A*%
X177999010Y-163999015D03*
%TD*%
D24*
%TO.C,U1*%
X100247004Y-120093008D03*
D25*
X102787004Y-120093008D03*
X105327004Y-120093008D03*
X107867004Y-120093008D03*
X107867004Y-112473008D03*
X105327004Y-112473008D03*
X102787004Y-112473008D03*
X100247004Y-112473008D03*
%TD*%
D24*
%TO.C,U1*%
X147247011Y-155093013D03*
D25*
X149787011Y-155093013D03*
X152327011Y-155093013D03*
X154867011Y-155093013D03*
X154867011Y-147473013D03*
X152327011Y-147473013D03*
X149787011Y-147473013D03*
X147247011Y-147473013D03*
%TD*%
D10*
%TO.C,REF\u002A\u002A*%
X61499499Y-111001001D03*
%TD*%
%TO.C,REF\u002A\u002A*%
X28000998Y-119500003D03*
%TD*%
D12*
%TO.C,U3*%
X160100011Y-162050013D03*
D13*
X161600011Y-161962513D03*
D12*
X163100011Y-162050013D03*
%TD*%
D10*
%TO.C,REF\u002A\u002A*%
X85500501Y-58998999D03*
%TD*%
D11*
%TO.C,R4*%
X50049997Y-115200008D03*
X50049997Y-114180008D03*
%TD*%
D10*
%TO.C,REF\u002A\u002A*%
X145500005Y-163999006D03*
%TD*%
D17*
%TO.C,J3*%
X127950011Y-56099998D03*
X132550011Y-56099998D03*
D18*
X133750011Y-53349998D03*
X131250011Y-53349998D03*
X129250011Y-53349998D03*
X126750011Y-53349998D03*
D19*
X135950011Y-56099998D03*
X124550011Y-56099998D03*
%TD*%
D10*
%TO.C,REF\u002A\u002A*%
X143500005Y-128999003D03*
%TD*%
%TO.C,REF\u002A\u002A*%
X133500502Y-146001010D03*
%TD*%
%TO.C,REF\u002A\u002A*%
X165999004Y-121500003D03*
%TD*%
%TO.C,REF\u002A\u002A*%
X155499508Y-146001002D03*
%TD*%
%TO.C,REF\u002A\u002A*%
X165999005Y-154500006D03*
%TD*%
%TO.C,REF\u002A\u002A*%
X165999020Y-166000012D03*
%TD*%
%TO.C,REF\u002A\u002A*%
X97500002Y-128999004D03*
%TD*%
%TO.C,REF\u002A\u002A*%
X85500501Y-41000998D03*
%TD*%
%TO.C,REF\u002A\u002A*%
X122001004Y-118500003D03*
%TD*%
%TO.C,REF\u002A\u002A*%
X107499502Y-76001000D03*
%TD*%
%TO.C,REF\u002A\u002A*%
X131500502Y-128999001D03*
%TD*%
%TO.C,REF\u002A\u002A*%
X109499502Y-93999002D03*
%TD*%
%TO.C,REF\u002A\u002A*%
X118999001Y-155500006D03*
%TD*%
D26*
%TO.C,J2*%
X114000004Y-154080013D03*
D27*
X114000004Y-149000013D03*
%TD*%
D10*
%TO.C,REF\u002A\u002A*%
X107499502Y-128999006D03*
%TD*%
%TO.C,REF\u002A\u002A*%
X96500002Y-58998999D03*
%TD*%
%TO.C,REF\u002A\u002A*%
X59499499Y-111001002D03*
%TD*%
D12*
%TO.C,U3*%
X66099997Y-127050008D03*
D13*
X67599997Y-126962508D03*
D12*
X69099997Y-127050008D03*
%TD*%
D22*
%TO.C,J1*%
X139250011Y-92045003D03*
D23*
X139250011Y-89505003D03*
X141790011Y-92045003D03*
X141790011Y-89505003D03*
X144330011Y-92045003D03*
X144330011Y-89505003D03*
X146870011Y-92045003D03*
X146870011Y-89505003D03*
X149410011Y-92045003D03*
X149410011Y-89505003D03*
X151950011Y-92045003D03*
X151950011Y-89505003D03*
X154490011Y-92045003D03*
X154490011Y-89505003D03*
X157030011Y-92045003D03*
X157030011Y-89505003D03*
%TD*%
D10*
%TO.C,REF\u002A\u002A*%
X28000997Y-169333678D03*
%TD*%
%TO.C,REF\u002A\u002A*%
X49499998Y-128999003D03*
%TD*%
%TO.C,REF\u002A\u002A*%
X20168080Y-41000998D03*
%TD*%
%TO.C,REF\u002A\u002A*%
X109499502Y-58998998D03*
%TD*%
%TO.C,REF\u002A\u002A*%
X95500002Y-76001001D03*
%TD*%
%TO.C,REF\u002A\u002A*%
X24335163Y-163999015D03*
%TD*%
%TO.C,REF\u002A\u002A*%
X106499502Y-41000999D03*
%TD*%
D11*
%TO.C,R3*%
X145100011Y-80200003D03*
X145100011Y-79180003D03*
%TD*%
%TO.C,R4*%
X50049997Y-150200013D03*
X50049997Y-149180013D03*
%TD*%
D10*
%TO.C,REF\u002A\u002A*%
X25168580Y-163999015D03*
%TD*%
%TO.C,REF\u002A\u002A*%
X145500005Y-146001006D03*
%TD*%
%TO.C,REF\u002A\u002A*%
X155499508Y-163999010D03*
%TD*%
%TO.C,REF\u002A\u002A*%
X142500005Y-128999003D03*
%TD*%
%TO.C,REF\u002A\u002A*%
X118999002Y-49499999D03*
%TD*%
%TO.C,REF\u002A\u002A*%
X75001002Y-120500003D03*
%TD*%
%TO.C,REF\u002A\u002A*%
X122001004Y-153500006D03*
%TD*%
%TO.C,REF\u002A\u002A*%
X165999005Y-155500006D03*
%TD*%
%TO.C,REF\u002A\u002A*%
X20168080Y-163999015D03*
%TD*%
%TO.C,REF\u002A\u002A*%
X28000997Y-174334178D03*
%TD*%
%TO.C,REF\u002A\u002A*%
X59499499Y-93999002D03*
%TD*%
%TO.C,REF\u002A\u002A*%
X118999002Y-119500003D03*
%TD*%
%TO.C,REF\u002A\u002A*%
X71998998Y-120500003D03*
%TD*%
%TO.C,REF\u002A\u002A*%
X87500501Y-111001005D03*
%TD*%
%TO.C,REF\u002A\u002A*%
X167998010Y-41000998D03*
%TD*%
D14*
%TO.C,U2*%
X46429997Y-116290008D03*
D15*
X29769997Y-113750008D03*
D16*
X29769997Y-116290008D03*
X29769997Y-118830008D03*
%TD*%
D10*
%TO.C,REF\u002A\u002A*%
X144500005Y-163999006D03*
%TD*%
D17*
%TO.C,J3*%
X127950011Y-161100013D03*
X132550011Y-161100013D03*
D18*
X133750011Y-158350013D03*
X131250011Y-158350013D03*
X129250011Y-158350013D03*
X126750011Y-158350013D03*
D19*
X135950011Y-161100013D03*
X124550011Y-161100013D03*
%TD*%
D10*
%TO.C,REF\u002A\u002A*%
X84500501Y-76001002D03*
%TD*%
%TO.C,REF\u002A\u002A*%
X96500002Y-163999006D03*
%TD*%
%TO.C,REF\u002A\u002A*%
X118999002Y-153500006D03*
%TD*%
%TO.C,REF\u002A\u002A*%
X87500501Y-146001009D03*
%TD*%
D20*
%TO.C,REF\u002A\u002A*%
X172999010Y-33998998D03*
%TD*%
D10*
%TO.C,REF\u002A\u002A*%
X165999006Y-83500001D03*
%TD*%
D11*
%TO.C,R4*%
X144050011Y-45199998D03*
X144050011Y-44179998D03*
%TD*%
%TO.C,R3*%
X51099997Y-150200013D03*
X51099997Y-149180013D03*
%TD*%
D10*
%TO.C,REF\u002A\u002A*%
X172165093Y-163999015D03*
%TD*%
%TO.C,REF\u002A\u002A*%
X131500502Y-111001006D03*
%TD*%
%TO.C,REF\u002A\u002A*%
X39500497Y-128999001D03*
%TD*%
%TO.C,REF\u002A\u002A*%
X17667830Y-41000998D03*
%TD*%
%TO.C,REF\u002A\u002A*%
X75001002Y-155500006D03*
%TD*%
%TO.C,REF\u002A\u002A*%
X165999020Y-172667345D03*
%TD*%
%TO.C,REF\u002A\u002A*%
X108499502Y-58998998D03*
%TD*%
%TO.C,REF\u002A\u002A*%
X40500497Y-128999002D03*
%TD*%
%TO.C,REF\u002A\u002A*%
X28000998Y-153500006D03*
%TD*%
%TO.C,REF\u002A\u002A*%
X84500501Y-93999000D03*
%TD*%
%TO.C,REF\u002A\u002A*%
X153499508Y-146001003D03*
%TD*%
%TO.C,REF\u002A\u002A*%
X122001004Y-48499999D03*
%TD*%
%TO.C,REF\u002A\u002A*%
X165999020Y-38166581D03*
%TD*%
%TO.C,REF\u002A\u002A*%
X75001001Y-49499999D03*
%TD*%
%TO.C,REF\u002A\u002A*%
X153499508Y-163999009D03*
%TD*%
%TO.C,REF\u002A\u002A*%
X154499508Y-58998998D03*
%TD*%
%TO.C,REF\u002A\u002A*%
X132500502Y-146001010D03*
%TD*%
%TO.C,REF\u002A\u002A*%
X85500501Y-128999001D03*
%TD*%
D12*
%TO.C,U3*%
X66099997Y-162050013D03*
D13*
X67599997Y-161962513D03*
D12*
X69099997Y-162050013D03*
%TD*%
D24*
%TO.C,U1*%
X53246997Y-50092998D03*
D25*
X55786997Y-50092998D03*
X58326997Y-50092998D03*
X60866997Y-50092998D03*
X60866997Y-42472998D03*
X58326997Y-42472998D03*
X55786997Y-42472998D03*
X53246997Y-42472998D03*
%TD*%
D26*
%TO.C,J2*%
X114000004Y-84080003D03*
D27*
X114000004Y-79000003D03*
%TD*%
D10*
%TO.C,REF\u002A\u002A*%
X38500497Y-58998999D03*
%TD*%
D20*
%TO.C,REF\u002A\u002A*%
X21000997Y-171001012D03*
%TD*%
D10*
%TO.C,REF\u002A\u002A*%
X108499502Y-93999002D03*
%TD*%
D17*
%TO.C,J3*%
X80950004Y-126100008D03*
X85550004Y-126100008D03*
D18*
X86750004Y-123350008D03*
X84250004Y-123350008D03*
X82250004Y-123350008D03*
X79750004Y-123350008D03*
D19*
X77550004Y-126100008D03*
X88950004Y-126100008D03*
%TD*%
D10*
%TO.C,REF\u002A\u002A*%
X165999020Y-38999998D03*
%TD*%
%TO.C,REF\u002A\u002A*%
X109499502Y-111001001D03*
%TD*%
%TO.C,REF\u002A\u002A*%
X16834413Y-41000998D03*
%TD*%
%TO.C,REF\u002A\u002A*%
X18501247Y-41000998D03*
%TD*%
%TO.C,REF\u002A\u002A*%
X153499508Y-111001002D03*
%TD*%
%TO.C,REF\u002A\u002A*%
X62499499Y-111001001D03*
%TD*%
%TO.C,REF\u002A\u002A*%
X87500501Y-163999003D03*
%TD*%
%TO.C,REF\u002A\u002A*%
X59499499Y-146001003D03*
%TD*%
%TO.C,REF\u002A\u002A*%
X122001006Y-86500001D03*
%TD*%
%TO.C,REF\u002A\u002A*%
X71998998Y-121500003D03*
%TD*%
%TO.C,REF\u002A\u002A*%
X134500502Y-58998999D03*
%TD*%
D17*
%TO.C,J3*%
X38549997Y-126100008D03*
X33949997Y-126100008D03*
D18*
X39749997Y-123350008D03*
X37249997Y-123350008D03*
X35249997Y-123350008D03*
X32749997Y-123350008D03*
D19*
X41949997Y-126100008D03*
X30549997Y-126100008D03*
%TD*%
D10*
%TO.C,REF\u002A\u002A*%
X87500501Y-41000998D03*
%TD*%
%TO.C,REF\u002A\u002A*%
X18501247Y-163999015D03*
%TD*%
%TO.C,REF\u002A\u002A*%
X144500005Y-58998998D03*
%TD*%
%TO.C,REF\u002A\u002A*%
X171331676Y-41000998D03*
%TD*%
%TO.C,REF\u002A\u002A*%
X97500002Y-146001006D03*
%TD*%
D22*
%TO.C,J1*%
X139250011Y-127045008D03*
D23*
X139250011Y-124505008D03*
X141790011Y-127045008D03*
X141790011Y-124505008D03*
X144330011Y-127045008D03*
X144330011Y-124505008D03*
X146870011Y-127045008D03*
X146870011Y-124505008D03*
X149410011Y-127045008D03*
X149410011Y-124505008D03*
X151950011Y-127045008D03*
X151950011Y-124505008D03*
X154490011Y-127045008D03*
X154490011Y-124505008D03*
X157030011Y-127045008D03*
X157030011Y-124505008D03*
%TD*%
D10*
%TO.C,REF\u002A\u002A*%
X131500502Y-163999002D03*
%TD*%
%TO.C,REF\u002A\u002A*%
X16000997Y-163999015D03*
%TD*%
%TO.C,REF\u002A\u002A*%
X50499998Y-111001003D03*
%TD*%
%TO.C,REF\u002A\u002A*%
X50499998Y-163999006D03*
%TD*%
%TO.C,REF\u002A\u002A*%
X165999005Y-120500003D03*
%TD*%
D12*
%TO.C,U3*%
X113100004Y-127050008D03*
D13*
X114600004Y-126962508D03*
D12*
X116100004Y-127050008D03*
%TD*%
D10*
%TO.C,REF\u002A\u002A*%
X132500502Y-58998999D03*
%TD*%
%TO.C,REF\u002A\u002A*%
X59499499Y-76001000D03*
%TD*%
%TO.C,REF\u002A\u002A*%
X28000998Y-85500001D03*
%TD*%
D26*
%TO.C,J2*%
X66999997Y-49079998D03*
D27*
X66999997Y-43999998D03*
%TD*%
D10*
%TO.C,REF\u002A\u002A*%
X38500497Y-163999002D03*
%TD*%
%TO.C,REF\u002A\u002A*%
X133500502Y-41000998D03*
%TD*%
%TO.C,REF\u002A\u002A*%
X75001002Y-51499999D03*
%TD*%
%TO.C,REF\u002A\u002A*%
X122001005Y-119500003D03*
%TD*%
D26*
%TO.C,J2*%
X114000004Y-119080008D03*
D27*
X114000004Y-114000008D03*
%TD*%
D10*
%TO.C,REF\u002A\u002A*%
X87500501Y-58998999D03*
%TD*%
%TO.C,REF\u002A\u002A*%
X165999020Y-168500262D03*
%TD*%
%TO.C,REF\u002A\u002A*%
X134500502Y-146001009D03*
%TD*%
%TO.C,REF\u002A\u002A*%
X145500005Y-128999004D03*
%TD*%
%TO.C,REF\u002A\u002A*%
X154499508Y-128999006D03*
%TD*%
%TO.C,REF\u002A\u002A*%
X49499998Y-76001001D03*
%TD*%
%TO.C,REF\u002A\u002A*%
X98500002Y-128999004D03*
%TD*%
%TO.C,REF\u002A\u002A*%
X75001002Y-156500006D03*
%TD*%
%TO.C,REF\u002A\u002A*%
X71998998Y-119500003D03*
%TD*%
%TO.C,REF\u002A\u002A*%
X98500002Y-146001006D03*
%TD*%
D14*
%TO.C,U2*%
X93430004Y-151290013D03*
D15*
X76770004Y-148750013D03*
D16*
X76770004Y-151290013D03*
X76770004Y-153830013D03*
%TD*%
D22*
%TO.C,J1*%
X92250004Y-57044998D03*
D23*
X92250004Y-54504998D03*
X94790004Y-57044998D03*
X94790004Y-54504998D03*
X97330004Y-57044998D03*
X97330004Y-54504998D03*
X99870004Y-57044998D03*
X99870004Y-54504998D03*
X102410004Y-57044998D03*
X102410004Y-54504998D03*
X104950004Y-57044998D03*
X104950004Y-54504998D03*
X107490004Y-57044998D03*
X107490004Y-54504998D03*
X110030004Y-57044998D03*
X110030004Y-54504998D03*
%TD*%
D10*
%TO.C,REF\u002A\u002A*%
X75001001Y-153500006D03*
%TD*%
%TO.C,REF\u002A\u002A*%
X118999002Y-48499999D03*
%TD*%
D21*
%TO.C,R1*%
X144050011Y-47389998D03*
X144050011Y-48409998D03*
%TD*%
D10*
%TO.C,REF\u002A\u002A*%
X156499508Y-93999002D03*
%TD*%
D11*
%TO.C,R4*%
X144050011Y-115200008D03*
X144050011Y-114180008D03*
%TD*%
D10*
%TO.C,REF\u002A\u002A*%
X133500502Y-111001006D03*
%TD*%
%TO.C,REF\u002A\u002A*%
X172998510Y-41000998D03*
%TD*%
%TO.C,REF\u002A\u002A*%
X60499499Y-58998998D03*
%TD*%
%TO.C,REF\u002A\u002A*%
X109499502Y-41000999D03*
%TD*%
%TO.C,REF\u002A\u002A*%
X145500005Y-93999001D03*
%TD*%
D11*
%TO.C,R3*%
X145100011Y-150200013D03*
X145100011Y-149180013D03*
%TD*%
D17*
%TO.C,J3*%
X132550011Y-91100003D03*
X127950011Y-91100003D03*
D18*
X133750011Y-88350003D03*
X131250011Y-88350003D03*
X129250011Y-88350003D03*
X126750011Y-88350003D03*
D19*
X135950011Y-91100003D03*
X124550011Y-91100003D03*
%TD*%
D10*
%TO.C,REF\u002A\u002A*%
X28000998Y-83500001D03*
%TD*%
%TO.C,REF\u002A\u002A*%
X165999004Y-86500001D03*
%TD*%
D11*
%TO.C,R3*%
X145100011Y-45199998D03*
X145100011Y-44179998D03*
%TD*%
D10*
%TO.C,REF\u002A\u002A*%
X60499499Y-163999009D03*
%TD*%
%TO.C,REF\u002A\u002A*%
X28000998Y-51499999D03*
%TD*%
%TO.C,REF\u002A\u002A*%
X144500005Y-128999004D03*
%TD*%
%TO.C,REF\u002A\u002A*%
X133500502Y-163999002D03*
%TD*%
D14*
%TO.C,U2*%
X46429997Y-46289998D03*
D15*
X29769997Y-43749998D03*
D16*
X29769997Y-46289998D03*
X29769997Y-48829998D03*
%TD*%
D10*
%TO.C,REF\u002A\u002A*%
X28000997Y-28998998D03*
%TD*%
%TO.C,REF\u002A\u002A*%
X122001005Y-49499999D03*
%TD*%
%TO.C,REF\u002A\u002A*%
X23501747Y-41000998D03*
%TD*%
%TO.C,REF\u002A\u002A*%
X145500005Y-41000999D03*
%TD*%
%TO.C,REF\u002A\u002A*%
X37500497Y-146001010D03*
%TD*%
%TO.C,REF\u002A\u002A*%
X28000997Y-38999998D03*
%TD*%
%TO.C,REF\u002A\u002A*%
X156499508Y-58998998D03*
%TD*%
%TO.C,REF\u002A\u002A*%
X165999020Y-28998998D03*
%TD*%
%TO.C,REF\u002A\u002A*%
X37500497Y-41000998D03*
%TD*%
%TO.C,REF\u002A\u002A*%
X108499502Y-128999006D03*
%TD*%
%TO.C,REF\u002A\u002A*%
X28000997Y-31499248D03*
%TD*%
%TO.C,REF\u002A\u002A*%
X107499502Y-111001001D03*
%TD*%
%TO.C,REF\u002A\u002A*%
X75001001Y-84500001D03*
%TD*%
%TO.C,REF\u002A\u002A*%
X28000997Y-167666845D03*
%TD*%
D14*
%TO.C,U2*%
X93430004Y-81290003D03*
D15*
X76770004Y-78750003D03*
D16*
X76770004Y-81290003D03*
X76770004Y-83830003D03*
%TD*%
D10*
%TO.C,REF\u002A\u002A*%
X49499998Y-93999001D03*
%TD*%
%TO.C,REF\u002A\u002A*%
X21001497Y-41000998D03*
%TD*%
%TO.C,REF\u002A\u002A*%
X169664843Y-163999015D03*
%TD*%
%TO.C,REF\u002A\u002A*%
X28000997Y-171000512D03*
%TD*%
%TO.C,REF\u002A\u002A*%
X28000997Y-175167595D03*
%TD*%
%TO.C,REF\u002A\u002A*%
X21001497Y-163999015D03*
%TD*%
D11*
%TO.C,R3*%
X51099997Y-115200008D03*
X51099997Y-114180008D03*
%TD*%
D10*
%TO.C,REF\u002A\u002A*%
X156499508Y-128999006D03*
%TD*%
%TO.C,REF\u002A\u002A*%
X25168580Y-41000998D03*
%TD*%
%TO.C,REF\u002A\u002A*%
X39500497Y-146001010D03*
%TD*%
%TO.C,REF\u002A\u002A*%
X22668330Y-41000998D03*
%TD*%
%TO.C,REF\u002A\u002A*%
X86500501Y-76001002D03*
%TD*%
%TO.C,REF\u002A\u002A*%
X37500497Y-111001006D03*
%TD*%
%TO.C,REF\u002A\u002A*%
X28000998Y-121500003D03*
%TD*%
%TO.C,REF\u002A\u002A*%
X174665343Y-41000998D03*
%TD*%
%TO.C,REF\u002A\u002A*%
X39500497Y-163999002D03*
%TD*%
%TO.C,REF\u002A\u002A*%
X97500002Y-41000999D03*
%TD*%
%TO.C,REF\u002A\u002A*%
X71998998Y-48499999D03*
%TD*%
%TO.C,REF\u002A\u002A*%
X37500497Y-128999001D03*
%TD*%
%TO.C,REF\u002A\u002A*%
X177165593Y-41000998D03*
%TD*%
%TO.C,REF\u002A\u002A*%
X153499508Y-41000999D03*
%TD*%
%TO.C,REF\u002A\u002A*%
X48499998Y-128999003D03*
%TD*%
%TO.C,REF\u002A\u002A*%
X62499499Y-41000999D03*
%TD*%
%TO.C,REF\u002A\u002A*%
X106499502Y-146001003D03*
%TD*%
%TO.C,REF\u002A\u002A*%
X61499499Y-41000999D03*
%TD*%
%TO.C,REF\u002A\u002A*%
X62499499Y-76001000D03*
%TD*%
%TO.C,REF\u002A\u002A*%
X167998010Y-163999015D03*
%TD*%
%TO.C,REF\u002A\u002A*%
X107499502Y-41000999D03*
%TD*%
%TO.C,REF\u002A\u002A*%
X60499499Y-76001000D03*
%TD*%
%TO.C,REF\u002A\u002A*%
X132500502Y-163999002D03*
%TD*%
%TO.C,REF\u002A\u002A*%
X51499998Y-146001006D03*
%TD*%
%TO.C,REF\u002A\u002A*%
X154499508Y-146001003D03*
%TD*%
%TO.C,REF\u002A\u002A*%
X28000997Y-37333164D03*
%TD*%
%TO.C,REF\u002A\u002A*%
X19334663Y-41000998D03*
%TD*%
%TO.C,REF\u002A\u002A*%
X84500501Y-58998999D03*
%TD*%
%TO.C,REF\u002A\u002A*%
X87500501Y-93999000D03*
%TD*%
%TO.C,REF\u002A\u002A*%
X133500502Y-93999000D03*
%TD*%
D21*
%TO.C,R2*%
X98100004Y-117390008D03*
X98100004Y-118410008D03*
%TD*%
D10*
%TO.C,REF\u002A\u002A*%
X97500002Y-111001003D03*
%TD*%
D24*
%TO.C,U1*%
X53246997Y-85093003D03*
D25*
X55786997Y-85093003D03*
X58326997Y-85093003D03*
X60866997Y-85093003D03*
X60866997Y-77473003D03*
X58326997Y-77473003D03*
X55786997Y-77473003D03*
X53246997Y-77473003D03*
%TD*%
D10*
%TO.C,REF\u002A\u002A*%
X51499998Y-41000999D03*
%TD*%
%TO.C,REF\u002A\u002A*%
X22668330Y-163999015D03*
%TD*%
D11*
%TO.C,R4*%
X97050004Y-115200008D03*
X97050004Y-114180008D03*
%TD*%
D10*
%TO.C,REF\u002A\u002A*%
X143500005Y-76001001D03*
%TD*%
%TO.C,REF\u002A\u002A*%
X107499502Y-163999009D03*
%TD*%
%TO.C,REF\u002A\u002A*%
X154499508Y-111001001D03*
%TD*%
%TO.C,REF\u002A\u002A*%
X165999020Y-167666845D03*
%TD*%
%TO.C,REF\u002A\u002A*%
X40500497Y-93999000D03*
%TD*%
%TO.C,REF\u002A\u002A*%
X177999010Y-41000998D03*
%TD*%
%TO.C,REF\u002A\u002A*%
X97500002Y-163999006D03*
%TD*%
%TO.C,REF\u002A\u002A*%
X28000997Y-176001012D03*
%TD*%
D17*
%TO.C,J3*%
X80950004Y-91100003D03*
X85550004Y-91100003D03*
D18*
X86750004Y-88350003D03*
X84250004Y-88350003D03*
X82250004Y-88350003D03*
X79750004Y-88350003D03*
D19*
X77550004Y-91100003D03*
X88950004Y-91100003D03*
%TD*%
D10*
%TO.C,REF\u002A\u002A*%
X155499508Y-93999002D03*
%TD*%
%TO.C,REF\u002A\u002A*%
X118999001Y-86500001D03*
%TD*%
%TO.C,REF\u002A\u002A*%
X75001002Y-85500001D03*
%TD*%
%TO.C,REF\u002A\u002A*%
X153499508Y-93999002D03*
%TD*%
%TO.C,REF\u002A\u002A*%
X165999020Y-37333164D03*
%TD*%
%TO.C,REF\u002A\u002A*%
X28000998Y-84500001D03*
%TD*%
%TO.C,REF\u002A\u002A*%
X143500005Y-93999001D03*
%TD*%
%TO.C,REF\u002A\u002A*%
X172998510Y-163999015D03*
%TD*%
%TO.C,REF\u002A\u002A*%
X144500005Y-41000999D03*
%TD*%
%TO.C,REF\u002A\u002A*%
X38500497Y-93999000D03*
%TD*%
%TO.C,REF\u002A\u002A*%
X122001006Y-121500003D03*
%TD*%
%TO.C,REF\u002A\u002A*%
X96500002Y-111001004D03*
%TD*%
%TO.C,REF\u002A\u002A*%
X48499998Y-146001007D03*
%TD*%
%TO.C,REF\u002A\u002A*%
X85500501Y-111001006D03*
%TD*%
%TO.C,REF\u002A\u002A*%
X155499508Y-128999006D03*
%TD*%
%TO.C,REF\u002A\u002A*%
X142500005Y-111001004D03*
%TD*%
%TO.C,REF\u002A\u002A*%
X95500002Y-93999001D03*
%TD*%
%TO.C,REF\u002A\u002A*%
X61499499Y-163999010D03*
%TD*%
%TO.C,REF\u002A\u002A*%
X51499998Y-76001001D03*
%TD*%
%TO.C,REF\u002A\u002A*%
X96500002Y-146001006D03*
%TD*%
D11*
%TO.C,R3*%
X51099997Y-45199998D03*
X51099997Y-44179998D03*
%TD*%
D10*
%TO.C,REF\u002A\u002A*%
X106499502Y-128999005D03*
%TD*%
%TO.C,REF\u002A\u002A*%
X142500005Y-146001007D03*
%TD*%
%TO.C,REF\u002A\u002A*%
X49499998Y-58998999D03*
%TD*%
D24*
%TO.C,U1*%
X100247004Y-85093003D03*
D25*
X102787004Y-85093003D03*
X105327004Y-85093003D03*
X107867004Y-85093003D03*
X107867004Y-77473003D03*
X105327004Y-77473003D03*
X102787004Y-77473003D03*
X100247004Y-77473003D03*
%TD*%
D21*
%TO.C,R1*%
X144050011Y-117390008D03*
X144050011Y-118410008D03*
%TD*%
D10*
%TO.C,REF\u002A\u002A*%
X133500502Y-128999001D03*
%TD*%
%TO.C,REF\u002A\u002A*%
X132500502Y-41000998D03*
%TD*%
%TO.C,REF\u002A\u002A*%
X61499499Y-58998998D03*
%TD*%
D26*
%TO.C,J2*%
X161000011Y-84080003D03*
D27*
X161000011Y-79000003D03*
%TD*%
D10*
%TO.C,REF\u002A\u002A*%
X62499499Y-128999006D03*
%TD*%
%TO.C,REF\u002A\u002A*%
X165999020Y-30665831D03*
%TD*%
%TO.C,REF\u002A\u002A*%
X173831926Y-41000998D03*
%TD*%
%TO.C,REF\u002A\u002A*%
X109499502Y-163999010D03*
%TD*%
%TO.C,REF\u002A\u002A*%
X134500502Y-76001002D03*
%TD*%
%TO.C,REF\u002A\u002A*%
X118999001Y-51499999D03*
%TD*%
%TO.C,REF\u002A\u002A*%
X165999020Y-32332664D03*
%TD*%
%TO.C,REF\u002A\u002A*%
X142500005Y-163999005D03*
%TD*%
D11*
%TO.C,R3*%
X98100004Y-150200013D03*
X98100004Y-149180013D03*
%TD*%
D10*
%TO.C,REF\u002A\u002A*%
X134500502Y-93999000D03*
%TD*%
%TO.C,REF\u002A\u002A*%
X28000997Y-36499748D03*
%TD*%
%TO.C,REF\u002A\u002A*%
X170498260Y-41000998D03*
%TD*%
%TO.C,REF\u002A\u002A*%
X155499508Y-111001001D03*
%TD*%
D14*
%TO.C,U2*%
X140430011Y-46289998D03*
D15*
X123770011Y-43749998D03*
D16*
X123770011Y-46289998D03*
X123770011Y-48829998D03*
%TD*%
D10*
%TO.C,REF\u002A\u002A*%
X38500497Y-41000998D03*
%TD*%
%TO.C,REF\u002A\u002A*%
X142500005Y-76001001D03*
%TD*%
D12*
%TO.C,U3*%
X113100004Y-162050013D03*
D13*
X114600004Y-161962513D03*
D12*
X116100004Y-162050013D03*
%TD*%
D10*
%TO.C,REF\u002A\u002A*%
X109499502Y-76001000D03*
%TD*%
%TO.C,REF\u002A\u002A*%
X39500497Y-93999000D03*
%TD*%
%TO.C,REF\u002A\u002A*%
X118999001Y-50499999D03*
%TD*%
D22*
%TO.C,J1*%
X92250004Y-92045003D03*
D23*
X92250004Y-89505003D03*
X94790004Y-92045003D03*
X94790004Y-89505003D03*
X97330004Y-92045003D03*
X97330004Y-89505003D03*
X99870004Y-92045003D03*
X99870004Y-89505003D03*
X102410004Y-92045003D03*
X102410004Y-89505003D03*
X104950004Y-92045003D03*
X104950004Y-89505003D03*
X107490004Y-92045003D03*
X107490004Y-89505003D03*
X110030004Y-92045003D03*
X110030004Y-89505003D03*
%TD*%
D10*
%TO.C,REF\u002A\u002A*%
X145500005Y-111001003D03*
%TD*%
%TO.C,REF\u002A\u002A*%
X60499499Y-146001003D03*
%TD*%
%TO.C,REF\u002A\u002A*%
X176332176Y-163999015D03*
%TD*%
%TO.C,REF\u002A\u002A*%
X132500502Y-93999000D03*
%TD*%
%TO.C,REF\u002A\u002A*%
X165999005Y-50499999D03*
%TD*%
%TO.C,REF\u002A\u002A*%
X173831926Y-163999015D03*
%TD*%
D22*
%TO.C,J1*%
X45249997Y-57044998D03*
D23*
X45249997Y-54504998D03*
X47789997Y-57044998D03*
X47789997Y-54504998D03*
X50329997Y-57044998D03*
X50329997Y-54504998D03*
X52869997Y-57044998D03*
X52869997Y-54504998D03*
X55409997Y-57044998D03*
X55409997Y-54504998D03*
X57949997Y-57044998D03*
X57949997Y-54504998D03*
X60489997Y-57044998D03*
X60489997Y-54504998D03*
X63029997Y-57044998D03*
X63029997Y-54504998D03*
%TD*%
D10*
%TO.C,REF\u002A\u002A*%
X106499502Y-93999002D03*
%TD*%
%TO.C,REF\u002A\u002A*%
X40500497Y-76001002D03*
%TD*%
%TO.C,REF\u002A\u002A*%
X96500002Y-41000998D03*
%TD*%
%TO.C,REF\u002A\u002A*%
X108499502Y-163999010D03*
%TD*%
%TO.C,REF\u002A\u002A*%
X132500502Y-76001002D03*
%TD*%
%TO.C,REF\u002A\u002A*%
X40500497Y-58998999D03*
%TD*%
%TO.C,REF\u002A\u002A*%
X48499998Y-58998999D03*
%TD*%
%TO.C,REF\u002A\u002A*%
X165999004Y-51499999D03*
%TD*%
D22*
%TO.C,J1*%
X45249997Y-162045013D03*
D23*
X45249997Y-159505013D03*
X47789997Y-162045013D03*
X47789997Y-159505013D03*
X50329997Y-162045013D03*
X50329997Y-159505013D03*
X52869997Y-162045013D03*
X52869997Y-159505013D03*
X55409997Y-162045013D03*
X55409997Y-159505013D03*
X57949997Y-162045013D03*
X57949997Y-159505013D03*
X60489997Y-162045013D03*
X60489997Y-159505013D03*
X63029997Y-162045013D03*
X63029997Y-159505013D03*
%TD*%
D10*
%TO.C,REF\u002A\u002A*%
X87500501Y-76001002D03*
%TD*%
%TO.C,REF\u002A\u002A*%
X28000998Y-154500006D03*
%TD*%
%TO.C,REF\u002A\u002A*%
X142500005Y-58998999D03*
%TD*%
D24*
%TO.C,U1*%
X147247011Y-120093008D03*
D25*
X149787011Y-120093008D03*
X152327011Y-120093008D03*
X154867011Y-120093008D03*
X154867011Y-112473008D03*
X152327011Y-112473008D03*
X149787011Y-112473008D03*
X147247011Y-112473008D03*
%TD*%
D10*
%TO.C,REF\u002A\u002A*%
X86500501Y-41000998D03*
%TD*%
%TO.C,REF\u002A\u002A*%
X96500002Y-93999001D03*
%TD*%
%TO.C,REF\u002A\u002A*%
X60499499Y-128999006D03*
%TD*%
%TO.C,REF\u002A\u002A*%
X71998998Y-83500001D03*
%TD*%
M02*
