M48
; DRILL file {KiCad 6.0.2} date Sun 13 Mar 2022 21:00:10 CET
; FORMAT={-:-/ absolute / metric / decimal}
; #@! TF.CreationDate,2022-03-13T21:00:10+01:00
; #@! TF.GenerationSoftware,Kicad,Pcbnew,6.0.2
; #@! TF.FileFunction,Plated,1,2,PTH
FMAT,2
METRIC
; #@! TA.AperFunction,Plated,PTH,ViaDrill
T1C0.400
; #@! TA.AperFunction,Plated,PTH,ComponentDrill
T2C0.800
; #@! TA.AperFunction,Plated,PTH,ComponentDrill
T3C0.900
; #@! TA.AperFunction,Plated,PTH,ComponentDrill
T4C1.000
; #@! TA.AperFunction,Plated,PTH,ComponentDrill
T5C1.100
; #@! TA.AperFunction,Plated,PTH,ComponentDrill
T6C1.520
%
G90
G05
T1
X35.25Y-53.5
X35.25Y-88.5
X35.25Y-123.5
X35.25Y-158.5
X37.25Y-53.5
X37.25Y-88.5
X37.25Y-123.5
X37.25Y-158.5
X39.75Y-49.75
X39.75Y-84.75
X39.75Y-119.75
X39.75Y-154.75
X50.575Y-44.0
X50.575Y-48.5
X50.575Y-79.0
X50.575Y-83.5
X50.575Y-114.0
X50.575Y-118.5
X50.575Y-149.0
X50.575Y-153.5
X63.65Y-44.5
X63.65Y-79.5
X63.65Y-114.5
X63.65Y-149.5
X67.6Y-53.6
X67.6Y-88.6
X67.6Y-123.6
X67.6Y-158.6
X82.25Y-53.5
X82.25Y-88.5
X82.25Y-123.5
X82.25Y-158.5
X84.25Y-53.5
X84.25Y-88.5
X84.25Y-123.5
X84.25Y-158.5
X86.75Y-49.75
X86.75Y-84.75
X86.75Y-119.75
X86.75Y-154.75
X97.575Y-44.0
X97.575Y-48.5
X97.575Y-79.0
X97.575Y-83.5
X97.575Y-114.0
X97.575Y-118.5
X97.575Y-149.0
X97.575Y-153.5
X110.65Y-44.5
X110.65Y-79.5
X110.65Y-114.5
X110.65Y-149.5
X114.6Y-53.6
X114.6Y-88.6
X114.6Y-123.6
X114.6Y-158.6
X129.25Y-53.5
X129.25Y-88.5
X129.25Y-123.5
X129.25Y-158.5
X131.25Y-53.5
X131.25Y-88.5
X131.25Y-123.5
X131.25Y-158.5
X133.75Y-49.75
X133.75Y-84.75
X133.75Y-119.75
X133.75Y-154.75
X144.575Y-44.0
X144.575Y-48.5
X144.575Y-79.0
X144.575Y-83.5
X144.575Y-114.0
X144.575Y-118.5
X144.575Y-149.0
X144.575Y-153.5
X157.65Y-44.5
X157.65Y-79.5
X157.65Y-114.5
X157.65Y-149.5
X161.6Y-53.6
X161.6Y-88.6
X161.6Y-123.6
X161.6Y-158.6
T2
X53.247Y-42.473
X53.247Y-50.093
X53.247Y-77.473
X53.247Y-85.093
X53.247Y-112.473
X53.247Y-120.093
X53.247Y-147.473
X53.247Y-155.093
X55.787Y-42.473
X55.787Y-50.093
X55.787Y-77.473
X55.787Y-85.093
X55.787Y-112.473
X55.787Y-120.093
X55.787Y-147.473
X55.787Y-155.093
X58.327Y-42.473
X58.327Y-50.093
X58.327Y-77.473
X58.327Y-85.093
X58.327Y-112.473
X58.327Y-120.093
X58.327Y-147.473
X58.327Y-155.093
X60.867Y-42.473
X60.867Y-50.093
X60.867Y-77.473
X60.867Y-85.093
X60.867Y-112.473
X60.867Y-120.093
X60.867Y-147.473
X60.867Y-155.093
X100.247Y-42.473
X100.247Y-50.093
X100.247Y-77.473
X100.247Y-85.093
X100.247Y-112.473
X100.247Y-120.093
X100.247Y-147.473
X100.247Y-155.093
X102.787Y-42.473
X102.787Y-50.093
X102.787Y-77.473
X102.787Y-85.093
X102.787Y-112.473
X102.787Y-120.093
X102.787Y-147.473
X102.787Y-155.093
X105.327Y-42.473
X105.327Y-50.093
X105.327Y-77.473
X105.327Y-85.093
X105.327Y-112.473
X105.327Y-120.093
X105.327Y-147.473
X105.327Y-155.093
X107.867Y-42.473
X107.867Y-50.093
X107.867Y-77.473
X107.867Y-85.093
X107.867Y-112.473
X107.867Y-120.093
X107.867Y-147.473
X107.867Y-155.093
X147.247Y-42.473
X147.247Y-50.093
X147.247Y-77.473
X147.247Y-85.093
X147.247Y-112.473
X147.247Y-120.093
X147.247Y-147.473
X147.247Y-155.093
X149.787Y-42.473
X149.787Y-50.093
X149.787Y-77.473
X149.787Y-85.093
X149.787Y-112.473
X149.787Y-120.093
X149.787Y-147.473
X149.787Y-155.093
X152.327Y-42.473
X152.327Y-50.093
X152.327Y-77.473
X152.327Y-85.093
X152.327Y-112.473
X152.327Y-120.093
X152.327Y-147.473
X152.327Y-155.093
X154.867Y-42.473
X154.867Y-50.093
X154.867Y-77.473
X154.867Y-85.093
X154.867Y-112.473
X154.867Y-120.093
X154.867Y-147.473
X154.867Y-155.093
T4
X45.25Y-54.505
X45.25Y-57.045
X45.25Y-89.505
X45.25Y-92.045
X45.25Y-124.505
X45.25Y-127.045
X45.25Y-159.505
X45.25Y-162.045
X47.79Y-54.505
X47.79Y-57.045
X47.79Y-89.505
X47.79Y-92.045
X47.79Y-124.505
X47.79Y-127.045
X47.79Y-159.505
X47.79Y-162.045
X50.33Y-54.505
X50.33Y-57.045
X50.33Y-89.505
X50.33Y-92.045
X50.33Y-124.505
X50.33Y-127.045
X50.33Y-159.505
X50.33Y-162.045
X52.87Y-54.505
X52.87Y-57.045
X52.87Y-89.505
X52.87Y-92.045
X52.87Y-124.505
X52.87Y-127.045
X52.87Y-159.505
X52.87Y-162.045
X55.41Y-54.505
X55.41Y-57.045
X55.41Y-89.505
X55.41Y-92.045
X55.41Y-124.505
X55.41Y-127.045
X55.41Y-159.505
X55.41Y-162.045
X57.95Y-54.505
X57.95Y-57.045
X57.95Y-89.505
X57.95Y-92.045
X57.95Y-124.505
X57.95Y-127.045
X57.95Y-159.505
X57.95Y-162.045
X60.49Y-54.505
X60.49Y-57.045
X60.49Y-89.505
X60.49Y-92.045
X60.49Y-124.505
X60.49Y-127.045
X60.49Y-159.505
X60.49Y-162.045
X63.03Y-54.505
X63.03Y-57.045
X63.03Y-89.505
X63.03Y-92.045
X63.03Y-124.505
X63.03Y-127.045
X63.03Y-159.505
X63.03Y-162.045
X92.25Y-54.505
X92.25Y-57.045
X92.25Y-89.505
X92.25Y-92.045
X92.25Y-124.505
X92.25Y-127.045
X92.25Y-159.505
X92.25Y-162.045
X94.79Y-54.505
X94.79Y-57.045
X94.79Y-89.505
X94.79Y-92.045
X94.79Y-124.505
X94.79Y-127.045
X94.79Y-159.505
X94.79Y-162.045
X97.33Y-54.505
X97.33Y-57.045
X97.33Y-89.505
X97.33Y-92.045
X97.33Y-124.505
X97.33Y-127.045
X97.33Y-159.505
X97.33Y-162.045
X99.87Y-54.505
X99.87Y-57.045
X99.87Y-89.505
X99.87Y-92.045
X99.87Y-124.505
X99.87Y-127.045
X99.87Y-159.505
X99.87Y-162.045
X102.41Y-54.505
X102.41Y-57.045
X102.41Y-89.505
X102.41Y-92.045
X102.41Y-124.505
X102.41Y-127.045
X102.41Y-159.505
X102.41Y-162.045
X104.95Y-54.505
X104.95Y-57.045
X104.95Y-89.505
X104.95Y-92.045
X104.95Y-124.505
X104.95Y-127.045
X104.95Y-159.505
X104.95Y-162.045
X107.49Y-54.505
X107.49Y-57.045
X107.49Y-89.505
X107.49Y-92.045
X107.49Y-124.505
X107.49Y-127.045
X107.49Y-159.505
X107.49Y-162.045
X110.03Y-54.505
X110.03Y-57.045
X110.03Y-89.505
X110.03Y-92.045
X110.03Y-124.505
X110.03Y-127.045
X110.03Y-159.505
X110.03Y-162.045
X139.25Y-54.505
X139.25Y-57.045
X139.25Y-89.505
X139.25Y-92.045
X139.25Y-124.505
X139.25Y-127.045
X139.25Y-159.505
X139.25Y-162.045
X141.79Y-54.505
X141.79Y-57.045
X141.79Y-89.505
X141.79Y-92.045
X141.79Y-124.505
X141.79Y-127.045
X141.79Y-159.505
X141.79Y-162.045
X144.33Y-54.505
X144.33Y-57.045
X144.33Y-89.505
X144.33Y-92.045
X144.33Y-124.505
X144.33Y-127.045
X144.33Y-159.505
X144.33Y-162.045
X146.87Y-54.505
X146.87Y-57.045
X146.87Y-89.505
X146.87Y-92.045
X146.87Y-124.505
X146.87Y-127.045
X146.87Y-159.505
X146.87Y-162.045
X149.41Y-54.505
X149.41Y-57.045
X149.41Y-89.505
X149.41Y-92.045
X149.41Y-124.505
X149.41Y-127.045
X149.41Y-159.505
X149.41Y-162.045
X151.95Y-54.505
X151.95Y-57.045
X151.95Y-89.505
X151.95Y-92.045
X151.95Y-124.505
X151.95Y-127.045
X151.95Y-159.505
X151.95Y-162.045
X154.49Y-54.505
X154.49Y-57.045
X154.49Y-89.505
X154.49Y-92.045
X154.49Y-124.505
X154.49Y-127.045
X154.49Y-159.505
X154.49Y-162.045
X157.03Y-54.505
X157.03Y-57.045
X157.03Y-89.505
X157.03Y-92.045
X157.03Y-124.505
X157.03Y-127.045
X157.03Y-159.505
X157.03Y-162.045
T5
X29.77Y-43.75
X29.77Y-46.29
X29.77Y-48.83
X29.77Y-78.75
X29.77Y-81.29
X29.77Y-83.83
X29.77Y-113.75
X29.77Y-116.29
X29.77Y-118.83
X29.77Y-148.75
X29.77Y-151.29
X29.77Y-153.83
X76.77Y-43.75
X76.77Y-46.29
X76.77Y-48.83
X76.77Y-78.75
X76.77Y-81.29
X76.77Y-83.83
X76.77Y-113.75
X76.77Y-116.29
X76.77Y-118.83
X76.77Y-148.75
X76.77Y-151.29
X76.77Y-153.83
X123.77Y-43.75
X123.77Y-46.29
X123.77Y-48.83
X123.77Y-78.75
X123.77Y-81.29
X123.77Y-83.83
X123.77Y-113.75
X123.77Y-116.29
X123.77Y-118.83
X123.77Y-148.75
X123.77Y-151.29
X123.77Y-153.83
T6
X67.0Y-44.0
X67.0Y-49.08
X67.0Y-79.0
X67.0Y-84.08
X67.0Y-114.0
X67.0Y-119.08
X67.0Y-149.0
X67.0Y-154.08
X114.0Y-44.0
X114.0Y-49.08
X114.0Y-79.0
X114.0Y-84.08
X114.0Y-114.0
X114.0Y-119.08
X114.0Y-149.0
X114.0Y-154.08
X161.0Y-44.0
X161.0Y-49.08
X161.0Y-79.0
X161.0Y-84.08
X161.0Y-114.0
X161.0Y-119.08
X161.0Y-149.0
X161.0Y-154.08
T3
X30.55Y-55.3G85X30.55Y-56.9
G05
X30.55Y-90.3G85X30.55Y-91.9
G05
X30.55Y-125.3G85X30.55Y-126.9
G05
X30.55Y-160.3G85X30.55Y-161.9
G05
X41.95Y-55.3G85X41.95Y-56.9
G05
X41.95Y-90.3G85X41.95Y-91.9
G05
X41.95Y-125.3G85X41.95Y-126.9
G05
X41.95Y-160.3G85X41.95Y-161.9
G05
X77.55Y-55.3G85X77.55Y-56.9
G05
X77.55Y-90.3G85X77.55Y-91.9
G05
X77.55Y-125.3G85X77.55Y-126.9
G05
X77.55Y-160.3G85X77.55Y-161.9
G05
X88.95Y-55.3G85X88.95Y-56.9
G05
X88.95Y-90.3G85X88.95Y-91.9
G05
X88.95Y-125.3G85X88.95Y-126.9
G05
X88.95Y-160.3G85X88.95Y-161.9
G05
X124.55Y-55.3G85X124.55Y-56.9
G05
X124.55Y-90.3G85X124.55Y-91.9
G05
X124.55Y-125.3G85X124.55Y-126.9
G05
X124.55Y-160.3G85X124.55Y-161.9
G05
X135.95Y-55.3G85X135.95Y-56.9
G05
X135.95Y-90.3G85X135.95Y-91.9
G05
X135.95Y-125.3G85X135.95Y-126.9
G05
X135.95Y-160.3G85X135.95Y-161.9
G05
T0
M30
