M48
; DRILL file {KiCad 6.0.2} date Sun 13 Mar 2022 21:00:10 CET
; FORMAT={-:-/ absolute / metric / decimal}
; #@! TF.CreationDate,2022-03-13T21:00:10+01:00
; #@! TF.GenerationSoftware,Kicad,Pcbnew,6.0.2
; #@! TF.FileFunction,NonPlated,1,2,NPTH
FMAT,2
METRIC
; #@! TA.AperFunction,NonPlated,NPTH,ComponentDrill
T1C0.500
; #@! TA.AperFunction,NonPlated,NPTH,ComponentDrill
T2C1.100
; #@! TA.AperFunction,NonPlated,NPTH,ComponentDrill
T3C3.500
%
G90
G05
T1
X16.001Y-41.001
X16.001Y-163.999
X16.834Y-41.001
X16.834Y-163.999
X17.668Y-41.001
X17.668Y-163.999
X18.501Y-41.001
X18.501Y-163.999
X19.335Y-41.001
X19.335Y-163.999
X20.168Y-41.001
X20.168Y-163.999
X21.001Y-41.001
X21.001Y-163.999
X21.835Y-41.001
X21.835Y-163.999
X22.668Y-41.001
X22.668Y-163.999
X23.502Y-41.001
X23.502Y-163.999
X24.335Y-41.001
X24.335Y-163.999
X25.169Y-41.001
X25.169Y-163.999
X26.002Y-41.001
X26.002Y-163.999
X28.001Y-28.999
X28.001Y-29.832
X28.001Y-30.666
X28.001Y-31.499
X28.001Y-32.333
X28.001Y-33.166
X28.001Y-33.999
X28.001Y-34.833
X28.001Y-35.666
X28.001Y-36.5
X28.001Y-37.333
X28.001Y-38.167
X28.001Y-39.0
X28.001Y-166.0
X28.001Y-166.833
X28.001Y-167.667
X28.001Y-168.5
X28.001Y-169.334
X28.001Y-170.167
X28.001Y-171.001
X28.001Y-171.834
X28.001Y-172.667
X28.001Y-173.501
X28.001Y-174.334
X28.001Y-175.168
X28.001Y-176.001
X28.001Y-48.5
X28.001Y-49.5
X28.001Y-50.5
X28.001Y-51.5
X28.001Y-83.5
X28.001Y-84.5
X28.001Y-85.5
X28.001Y-86.5
X28.001Y-118.5
X28.001Y-119.5
X28.001Y-120.5
X28.001Y-121.5
X28.001Y-153.5
X28.001Y-154.5
X28.001Y-155.5
X28.001Y-156.5
X37.5Y-41.001
X37.5Y-58.999
X37.5Y-76.001
X37.5Y-93.999
X37.5Y-111.001
X37.5Y-128.999
X37.5Y-146.001
X37.5Y-163.999
X38.5Y-41.001
X38.5Y-58.999
X38.5Y-76.001
X38.5Y-93.999
X38.5Y-111.001
X38.5Y-128.999
X38.5Y-146.001
X38.5Y-163.999
X39.5Y-41.001
X39.5Y-58.999
X39.5Y-76.001
X39.5Y-93.999
X39.5Y-111.001
X39.5Y-128.999
X39.5Y-146.001
X39.5Y-163.999
X40.5Y-41.001
X40.5Y-58.999
X40.5Y-76.001
X40.5Y-93.999
X40.5Y-111.001
X40.5Y-128.999
X40.5Y-146.001
X40.5Y-163.999
X48.5Y-41.001
X48.5Y-58.999
X48.5Y-76.001
X48.5Y-93.999
X48.5Y-111.001
X48.5Y-128.999
X48.5Y-146.001
X48.5Y-163.999
X49.5Y-41.001
X49.5Y-58.999
X49.5Y-76.001
X49.5Y-93.999
X49.5Y-111.001
X49.5Y-128.999
X49.5Y-146.001
X49.5Y-163.999
X50.5Y-41.001
X50.5Y-58.999
X50.5Y-76.001
X50.5Y-93.999
X50.5Y-111.001
X50.5Y-128.999
X50.5Y-146.001
X50.5Y-163.999
X51.5Y-41.001
X51.5Y-58.999
X51.5Y-76.001
X51.5Y-93.999
X51.5Y-111.001
X51.5Y-128.999
X51.5Y-146.001
X51.5Y-163.999
X59.499Y-41.001
X59.499Y-58.999
X59.499Y-76.001
X59.499Y-93.999
X59.499Y-111.001
X59.499Y-128.999
X59.499Y-146.001
X59.499Y-163.999
X60.499Y-41.001
X60.499Y-58.999
X60.499Y-76.001
X60.499Y-93.999
X60.499Y-111.001
X60.499Y-128.999
X60.499Y-146.001
X60.499Y-163.999
X61.499Y-41.001
X61.499Y-58.999
X61.499Y-76.001
X61.499Y-93.999
X61.499Y-111.001
X61.499Y-128.999
X61.499Y-146.001
X61.499Y-163.999
X62.499Y-41.001
X62.499Y-58.999
X62.499Y-76.001
X62.499Y-93.999
X62.499Y-111.001
X62.499Y-128.999
X62.499Y-146.001
X62.499Y-163.999
X71.999Y-48.5
X71.999Y-49.5
X71.999Y-50.5
X71.999Y-51.5
X71.999Y-83.5
X71.999Y-84.5
X71.999Y-85.5
X71.999Y-86.5
X71.999Y-118.5
X71.999Y-119.5
X71.999Y-120.5
X71.999Y-121.5
X71.999Y-153.5
X71.999Y-154.5
X71.999Y-155.5
X71.999Y-156.5
X75.001Y-48.5
X75.001Y-49.5
X75.001Y-83.5
X75.001Y-84.5
X75.001Y-118.5
X75.001Y-119.5
X75.001Y-153.5
X75.001Y-154.5
X75.001Y-50.5
X75.001Y-51.5
X75.001Y-85.5
X75.001Y-86.5
X75.001Y-120.5
X75.001Y-121.5
X75.001Y-155.5
X75.001Y-156.5
X84.501Y-41.001
X84.501Y-58.999
X84.501Y-76.001
X84.501Y-93.999
X84.501Y-111.001
X84.501Y-128.999
X84.501Y-146.001
X84.501Y-163.999
X85.501Y-41.001
X85.501Y-58.999
X85.501Y-76.001
X85.501Y-93.999
X85.501Y-111.001
X85.501Y-128.999
X85.501Y-146.001
X85.501Y-163.999
X86.501Y-41.001
X86.501Y-58.999
X86.501Y-76.001
X86.501Y-93.999
X86.501Y-111.001
X86.501Y-128.999
X86.501Y-146.001
X86.501Y-163.999
X87.501Y-41.001
X87.501Y-58.999
X87.501Y-76.001
X87.501Y-93.999
X87.501Y-111.001
X87.501Y-128.999
X87.501Y-146.001
X87.501Y-163.999
X95.5Y-41.001
X95.5Y-58.999
X95.5Y-76.001
X95.5Y-93.999
X95.5Y-111.001
X95.5Y-128.999
X95.5Y-146.001
X95.5Y-163.999
X96.5Y-41.001
X96.5Y-58.999
X96.5Y-76.001
X96.5Y-93.999
X96.5Y-111.001
X96.5Y-128.999
X96.5Y-146.001
X96.5Y-163.999
X97.5Y-41.001
X97.5Y-58.999
X97.5Y-76.001
X97.5Y-93.999
X97.5Y-111.001
X97.5Y-128.999
X97.5Y-146.001
X97.5Y-163.999
X98.5Y-41.001
X98.5Y-58.999
X98.5Y-76.001
X98.5Y-93.999
X98.5Y-111.001
X98.5Y-128.999
X98.5Y-146.001
X98.5Y-163.999
X106.5Y-41.001
X106.5Y-58.999
X106.5Y-76.001
X106.5Y-93.999
X106.5Y-111.001
X106.5Y-128.999
X106.5Y-146.001
X106.5Y-163.999
X107.5Y-41.001
X107.5Y-58.999
X107.5Y-76.001
X107.5Y-93.999
X107.5Y-111.001
X107.5Y-128.999
X107.5Y-146.001
X107.5Y-163.999
X108.5Y-41.001
X108.5Y-58.999
X108.5Y-76.001
X108.5Y-93.999
X108.5Y-111.001
X108.5Y-128.999
X108.5Y-146.001
X108.5Y-163.999
X109.5Y-41.001
X109.5Y-58.999
X109.5Y-76.001
X109.5Y-93.999
X109.5Y-111.001
X109.5Y-128.999
X109.5Y-146.001
X109.5Y-163.999
X118.999Y-50.5
X118.999Y-51.5
X118.999Y-85.5
X118.999Y-86.5
X118.999Y-120.5
X118.999Y-121.5
X118.999Y-155.5
X118.999Y-156.5
X118.999Y-48.5
X118.999Y-49.5
X118.999Y-83.5
X118.999Y-84.5
X118.999Y-118.5
X118.999Y-119.5
X118.999Y-153.5
X118.999Y-154.5
X122.001Y-48.5
X122.001Y-83.5
X122.001Y-118.5
X122.001Y-153.5
X122.001Y-49.5
X122.001Y-50.5
X122.001Y-84.5
X122.001Y-85.5
X122.001Y-119.5
X122.001Y-120.5
X122.001Y-154.5
X122.001Y-155.5
X122.001Y-51.5
X122.001Y-86.5
X122.001Y-121.5
X122.001Y-156.5
X131.501Y-41.001
X131.501Y-58.999
X131.501Y-76.001
X131.501Y-93.999
X131.501Y-111.001
X131.501Y-128.999
X131.501Y-146.001
X131.501Y-163.999
X132.501Y-41.001
X132.501Y-58.999
X132.501Y-76.001
X132.501Y-93.999
X132.501Y-111.001
X132.501Y-128.999
X132.501Y-146.001
X132.501Y-163.999
X133.501Y-41.001
X133.501Y-58.999
X133.501Y-76.001
X133.501Y-93.999
X133.501Y-111.001
X133.501Y-128.999
X133.501Y-146.001
X133.501Y-163.999
X134.501Y-41.001
X134.501Y-58.999
X134.501Y-76.001
X134.501Y-93.999
X134.501Y-111.001
X134.501Y-128.999
X134.501Y-146.001
X134.501Y-163.999
X142.5Y-41.001
X142.5Y-58.999
X142.5Y-76.001
X142.5Y-93.999
X142.5Y-111.001
X142.5Y-128.999
X142.5Y-146.001
X142.5Y-163.999
X143.5Y-41.001
X143.5Y-58.999
X143.5Y-76.001
X143.5Y-93.999
X143.5Y-111.001
X143.5Y-128.999
X143.5Y-146.001
X143.5Y-163.999
X144.5Y-41.001
X144.5Y-58.999
X144.5Y-76.001
X144.5Y-93.999
X144.5Y-111.001
X144.5Y-128.999
X144.5Y-146.001
X144.5Y-163.999
X145.5Y-41.001
X145.5Y-58.999
X145.5Y-76.001
X145.5Y-93.999
X145.5Y-111.001
X145.5Y-128.999
X145.5Y-146.001
X145.5Y-163.999
X153.5Y-41.001
X153.5Y-58.999
X153.5Y-76.001
X153.5Y-93.999
X153.5Y-111.001
X153.5Y-128.999
X153.5Y-146.001
X153.5Y-163.999
X154.5Y-41.001
X154.5Y-58.999
X154.5Y-76.001
X154.5Y-93.999
X154.5Y-111.001
X154.5Y-128.999
X154.5Y-146.001
X154.5Y-163.999
X155.5Y-41.001
X155.5Y-58.999
X155.5Y-76.001
X155.5Y-93.999
X155.5Y-111.001
X155.5Y-128.999
X155.5Y-146.001
X155.5Y-163.999
X156.5Y-41.001
X156.5Y-58.999
X156.5Y-76.001
X156.5Y-93.999
X156.5Y-111.001
X156.5Y-128.999
X156.5Y-146.001
X156.5Y-163.999
X165.999Y-51.5
X165.999Y-86.5
X165.999Y-121.5
X165.999Y-156.5
X165.999Y-49.5
X165.999Y-50.5
X165.999Y-84.5
X165.999Y-85.5
X165.999Y-119.5
X165.999Y-120.5
X165.999Y-154.5
X165.999Y-155.5
X165.999Y-48.5
X165.999Y-83.5
X165.999Y-118.5
X165.999Y-153.5
X165.999Y-28.999
X165.999Y-29.832
X165.999Y-30.666
X165.999Y-31.499
X165.999Y-32.333
X165.999Y-33.166
X165.999Y-33.999
X165.999Y-34.833
X165.999Y-35.666
X165.999Y-36.5
X165.999Y-37.333
X165.999Y-38.167
X165.999Y-39.0
X165.999Y-166.0
X165.999Y-166.833
X165.999Y-167.667
X165.999Y-168.5
X165.999Y-169.334
X165.999Y-170.167
X165.999Y-171.001
X165.999Y-171.834
X165.999Y-172.667
X165.999Y-173.501
X165.999Y-174.334
X165.999Y-175.168
X165.999Y-176.001
X167.998Y-41.001
X167.998Y-163.999
X168.831Y-41.001
X168.831Y-163.999
X169.665Y-41.001
X169.665Y-163.999
X170.498Y-41.001
X170.498Y-163.999
X171.332Y-41.001
X171.332Y-163.999
X172.165Y-41.001
X172.165Y-163.999
X172.999Y-41.001
X172.999Y-163.999
X173.832Y-41.001
X173.832Y-163.999
X174.665Y-41.001
X174.665Y-163.999
X175.499Y-41.001
X175.499Y-163.999
X176.332Y-41.001
X176.332Y-163.999
X177.166Y-41.001
X177.166Y-163.999
X177.999Y-41.001
X177.999Y-163.999
T2
X33.95Y-56.1
X33.95Y-91.1
X33.95Y-126.1
X33.95Y-161.1
X38.55Y-56.1
X38.55Y-91.1
X38.55Y-126.1
X38.55Y-161.1
X80.95Y-56.1
X80.95Y-91.1
X80.95Y-126.1
X80.95Y-161.1
X85.55Y-56.1
X85.55Y-91.1
X85.55Y-126.1
X85.55Y-161.1
X127.95Y-56.1
X127.95Y-91.1
X127.95Y-126.1
X127.95Y-161.1
X132.55Y-56.1
X132.55Y-91.1
X132.55Y-126.1
X132.55Y-161.1
T3
X46.43Y-46.29
X46.43Y-81.29
X46.43Y-116.29
X46.43Y-151.29
X93.43Y-46.29
X93.43Y-81.29
X93.43Y-116.29
X93.43Y-151.29
X140.43Y-46.29
X140.43Y-81.29
X140.43Y-116.29
X140.43Y-151.29
T0
M30
