%TF.GenerationSoftware,KiCad,Pcbnew,6.0.2*%
%TF.CreationDate,2022-03-12T22:23:20+01:00*%
%TF.ProjectId,batteryController,62617474-6572-4794-936f-6e74726f6c6c,rev?*%
%TF.SameCoordinates,Original*%
%TF.FileFunction,Soldermask,Bot*%
%TF.FilePolarity,Negative*%
%FSLAX46Y46*%
G04 Gerber Fmt 4.6, Leading zero omitted, Abs format (unit mm)*
G04 Created by KiCad (PCBNEW 6.0.2) date 2022-03-12 22:23:20*
%MOMM*%
%LPD*%
G01*
G04 APERTURE LIST*
G04 Aperture macros list*
%AMRoundRect*
0 Rectangle with rounded corners*
0 $1 Rounding radius*
0 $2 $3 $4 $5 $6 $7 $8 $9 X,Y pos of 4 corners*
0 Add a 4 corners polygon primitive as box body*
4,1,4,$2,$3,$4,$5,$6,$7,$8,$9,$2,$3,0*
0 Add four circle primitives for the rounded corners*
1,1,$1+$1,$2,$3*
1,1,$1+$1,$4,$5*
1,1,$1+$1,$6,$7*
1,1,$1+$1,$8,$9*
0 Add four rect primitives between the rounded corners*
20,1,$1+$1,$2,$3,$4,$5,0*
20,1,$1+$1,$4,$5,$6,$7,0*
20,1,$1+$1,$6,$7,$8,$9,0*
20,1,$1+$1,$8,$9,$2,$3,0*%
%AMFreePoly0*
4,1,9,3.862500,-0.866500,0.737500,-0.866500,0.737500,-0.450000,-0.737500,-0.450000,-0.737500,0.450000,0.737500,0.450000,0.737500,0.866500,3.862500,0.866500,3.862500,-0.866500,3.862500,-0.866500,$1*%
G04 Aperture macros list end*
%ADD10R,1.700000X1.700000*%
%ADD11O,1.700000X1.700000*%
%ADD12R,1.600000X1.600000*%
%ADD13O,1.600000X1.600000*%
%ADD14C,1.100000*%
%ADD15O,1.900000X3.500000*%
%ADD16R,3.000000X3.000000*%
%ADD17C,3.000000*%
%ADD18RoundRect,0.200000X0.275000X-0.200000X0.275000X0.200000X-0.275000X0.200000X-0.275000X-0.200000X0*%
%ADD19RoundRect,0.200000X-0.275000X0.200000X-0.275000X-0.200000X0.275000X-0.200000X0.275000X0.200000X0*%
%ADD20R,1.300000X0.900000*%
%ADD21FreePoly0,180.000000*%
%ADD22O,3.500000X3.500000*%
%ADD23R,2.000000X1.905000*%
%ADD24O,2.000000X1.905000*%
G04 APERTURE END LIST*
D10*
%TO.C,J1*%
X195125000Y-115845000D03*
D11*
X195125000Y-113305000D03*
X197665000Y-115845000D03*
X197665000Y-113305000D03*
X200205000Y-115845000D03*
X200205000Y-113305000D03*
X202745000Y-115845000D03*
X202745000Y-113305000D03*
X205285000Y-115845000D03*
X205285000Y-113305000D03*
X207825000Y-115845000D03*
X207825000Y-113305000D03*
X210365000Y-115845000D03*
X210365000Y-113305000D03*
X212905000Y-115845000D03*
X212905000Y-113305000D03*
%TD*%
D12*
%TO.C,U1*%
X198247000Y-109093000D03*
D13*
X200787000Y-109093000D03*
X203327000Y-109093000D03*
X205867000Y-109093000D03*
X205867000Y-101473000D03*
X203327000Y-101473000D03*
X200787000Y-101473000D03*
X198247000Y-101473000D03*
%TD*%
D14*
%TO.C,J3*%
X186050000Y-115100000D03*
X181450000Y-115100000D03*
D15*
X189450000Y-115100000D03*
X178050000Y-115100000D03*
%TD*%
D16*
%TO.C,J2*%
X212000000Y-108080000D03*
D17*
X212000000Y-103000000D03*
%TD*%
D18*
%TO.C,R1*%
X202500000Y-107124000D03*
X202500000Y-105474000D03*
%TD*%
D19*
%TO.C,R4*%
X199000000Y-103474000D03*
X199000000Y-105124000D03*
%TD*%
D20*
%TO.C,U3*%
X208650000Y-103500000D03*
D21*
X208562500Y-105000000D03*
D20*
X208650000Y-106500000D03*
%TD*%
D19*
%TO.C,R3*%
X197000000Y-103474000D03*
X197000000Y-105124000D03*
%TD*%
D18*
%TO.C,R2*%
X200500000Y-107124000D03*
X200500000Y-105474000D03*
%TD*%
D22*
%TO.C,U2*%
X192930000Y-105960000D03*
D23*
X176270000Y-108500000D03*
D24*
X176270000Y-105960000D03*
X176270000Y-103420000D03*
%TD*%
M02*
