%TF.GenerationSoftware,KiCad,Pcbnew,6.0.2*%
%TF.CreationDate,2022-03-12T22:23:20+01:00*%
%TF.ProjectId,batteryController,62617474-6572-4794-936f-6e74726f6c6c,rev?*%
%TF.SameCoordinates,Original*%
%TF.FileFunction,Legend,Top*%
%TF.FilePolarity,Positive*%
%FSLAX46Y46*%
G04 Gerber Fmt 4.6, Leading zero omitted, Abs format (unit mm)*
G04 Created by KiCad (PCBNEW 6.0.2) date 2022-03-12 22:23:20*
%MOMM*%
%LPD*%
G01*
G04 APERTURE LIST*
%ADD10C,0.150000*%
%ADD11C,0.120000*%
G04 APERTURE END LIST*
D10*
X181750000Y-107000000D02*
X189750000Y-107000000D01*
X185750000Y-107500000D02*
X185750000Y-109500000D01*
X190000000Y-101000000D02*
X190000000Y-102750000D01*
X183750000Y-107500000D02*
X183750000Y-109500000D01*
X187750000Y-107500000D02*
X187750000Y-109500000D01*
X185000000Y-101000000D02*
X182000000Y-104000000D01*
X173000000Y-115500000D02*
G75*
G03*
X175500000Y-118000000I2500000J0D01*
G01*
X181000000Y-101000000D02*
X181000000Y-101250000D01*
X179500000Y-101000000D02*
X179500000Y-101250000D01*
X190750000Y-103250000D02*
X190250000Y-103250000D01*
X189750000Y-107500000D02*
X189750000Y-107750000D01*
X189000000Y-103000000D02*
X189500000Y-103500000D01*
X182500000Y-104000000D02*
X182500000Y-103750000D01*
X187750000Y-107000000D02*
X187750000Y-106750000D01*
X217000000Y-102000000D02*
G75*
G03*
X215000000Y-100000000I-1999999J1D01*
G01*
X181000000Y-101000000D02*
X178000000Y-104000000D01*
X180000000Y-105000000D02*
X178000000Y-105000000D01*
X185500000Y-101000000D02*
X185500000Y-101250000D01*
X190000000Y-102000000D02*
X189500000Y-102500000D01*
X190000000Y-104000000D02*
X189750000Y-104000000D01*
X189750000Y-105000000D02*
X181750000Y-105000000D01*
X181000000Y-102750000D02*
X181000000Y-102250000D01*
X179500000Y-104000000D02*
X179500000Y-103750000D01*
X190000000Y-108500000D02*
X190750000Y-108500000D01*
X217000000Y-102000000D02*
X217000000Y-116000000D01*
X188500000Y-101000000D02*
X188500000Y-101250000D01*
X181750000Y-107500000D02*
X181750000Y-109500000D01*
X182500000Y-102750000D02*
X182500000Y-102250000D01*
X180500000Y-105500000D02*
X181250000Y-105500000D01*
X178000000Y-101000000D02*
X190000000Y-101000000D01*
X181750000Y-109500000D02*
X188000000Y-109500000D01*
X183000000Y-101000000D02*
X180000000Y-104000000D01*
X187000000Y-102750000D02*
X187000000Y-102250000D01*
X189750000Y-107500000D02*
X189500000Y-107500000D01*
X190250000Y-103250000D02*
X190500000Y-103750000D01*
X189750000Y-109500000D02*
X189750000Y-109250000D01*
X189000000Y-101000000D02*
X187500000Y-102500000D01*
X173000000Y-115500000D02*
X173000000Y-102500000D01*
X179000000Y-101000000D02*
X178000000Y-102000000D01*
X175500000Y-100000000D02*
X215000000Y-100000000D01*
X178000000Y-107000000D02*
X180000000Y-107000000D01*
X190750000Y-108500000D02*
X190750000Y-103250000D01*
X185750000Y-107000000D02*
X185750000Y-105000000D01*
X178000000Y-104000000D02*
X178000000Y-101000000D01*
X183750000Y-107000000D02*
X183750000Y-105000000D01*
X178000000Y-107000000D02*
X180000000Y-105000000D01*
X179500000Y-102750000D02*
X179500000Y-102250000D01*
X190000000Y-102500000D02*
X178000000Y-102500000D01*
X182500000Y-101000000D02*
X182500000Y-101250000D01*
X179000000Y-107000000D02*
X180000000Y-106000000D01*
X181000000Y-104000000D02*
X181000000Y-103750000D01*
X188250000Y-108000000D02*
X189250000Y-109000000D01*
X188500000Y-102750000D02*
X188500000Y-102250000D01*
X181750000Y-105000000D02*
X181750000Y-107000000D01*
X187750000Y-105000000D02*
X187750000Y-105250000D01*
X188000000Y-107500000D02*
X181750000Y-107500000D01*
X188250000Y-109000000D02*
X189250000Y-108000000D01*
X188500000Y-104000000D02*
X188500000Y-103750000D01*
X180000000Y-107000000D02*
X180000000Y-105000000D01*
X187000000Y-104000000D02*
X187000000Y-103750000D01*
X215000000Y-118000000D02*
G75*
G03*
X217000000Y-116000000I1J1999999D01*
G01*
X175500000Y-100000000D02*
G75*
G03*
X173000000Y-102500000I0J-2500000D01*
G01*
X185500000Y-104000000D02*
X185500000Y-103750000D01*
X189000000Y-103500000D02*
X189500000Y-103000000D01*
X178000000Y-106000000D02*
X179000000Y-105000000D01*
X188750000Y-104000000D02*
X178000000Y-104000000D01*
X184000000Y-101000000D02*
X184000000Y-104000000D01*
X215000000Y-118000000D02*
X175500000Y-118000000D01*
X190000000Y-104000000D02*
X190000000Y-103750000D01*
X190250000Y-103250000D02*
X190500000Y-102750000D01*
X189750000Y-107000000D02*
X189750000Y-105000000D01*
X187000000Y-101000000D02*
X187000000Y-101250000D01*
X189750000Y-109500000D02*
X189500000Y-109500000D01*
X178000000Y-105000000D02*
X178000000Y-107000000D01*
X185500000Y-102750000D02*
X185500000Y-102250000D01*
X187000000Y-101000000D02*
X185500000Y-102500000D01*
X180500000Y-106500000D02*
X181250000Y-106500000D01*
X183011904Y-108000000D02*
X182916666Y-107952380D01*
X182773809Y-107952380D01*
X182630952Y-108000000D01*
X182535714Y-108095238D01*
X182488095Y-108190476D01*
X182440476Y-108380952D01*
X182440476Y-108523809D01*
X182488095Y-108714285D01*
X182535714Y-108809523D01*
X182630952Y-108904761D01*
X182773809Y-108952380D01*
X182869047Y-108952380D01*
X183011904Y-108904761D01*
X183059523Y-108857142D01*
X183059523Y-108523809D01*
X182869047Y-108523809D01*
X184511904Y-105452380D02*
X184321428Y-105452380D01*
X184226190Y-105500000D01*
X184178571Y-105547619D01*
X184083333Y-105690476D01*
X184035714Y-105880952D01*
X184035714Y-106261904D01*
X184083333Y-106357142D01*
X184130952Y-106404761D01*
X184226190Y-106452380D01*
X184416666Y-106452380D01*
X184511904Y-106404761D01*
X184559523Y-106357142D01*
X184607142Y-106261904D01*
X184607142Y-106023809D01*
X184559523Y-105928571D01*
X184511904Y-105880952D01*
X184416666Y-105833333D01*
X184226190Y-105833333D01*
X184130952Y-105880952D01*
X184083333Y-105928571D01*
X184035714Y-106023809D01*
X184892857Y-105452380D02*
X185226190Y-106452380D01*
X185559523Y-105452380D01*
X186345238Y-106452380D02*
X186345238Y-105452380D01*
X186726190Y-105452380D01*
X186821428Y-105500000D01*
X186869047Y-105547619D01*
X186916666Y-105642857D01*
X186916666Y-105785714D01*
X186869047Y-105880952D01*
X186821428Y-105928571D01*
X186726190Y-105976190D01*
X186345238Y-105976190D01*
X187250000Y-105452380D02*
X187488095Y-106452380D01*
X187678571Y-105738095D01*
X187869047Y-106452380D01*
X188107142Y-105452380D01*
X188488095Y-106452380D02*
X188488095Y-105452380D01*
X188821428Y-106166666D01*
X189154761Y-105452380D01*
X189154761Y-106452380D01*
X184559523Y-107952380D02*
X184083333Y-107952380D01*
X184035714Y-108428571D01*
X184083333Y-108380952D01*
X184178571Y-108333333D01*
X184416666Y-108333333D01*
X184511904Y-108380952D01*
X184559523Y-108428571D01*
X184607142Y-108523809D01*
X184607142Y-108761904D01*
X184559523Y-108857142D01*
X184511904Y-108904761D01*
X184416666Y-108952380D01*
X184178571Y-108952380D01*
X184083333Y-108904761D01*
X184035714Y-108857142D01*
X184892857Y-107952380D02*
X185226190Y-108952380D01*
X185559523Y-107952380D01*
X183011904Y-105500000D02*
X182916666Y-105452380D01*
X182773809Y-105452380D01*
X182630952Y-105500000D01*
X182535714Y-105595238D01*
X182488095Y-105690476D01*
X182440476Y-105880952D01*
X182440476Y-106023809D01*
X182488095Y-106214285D01*
X182535714Y-106309523D01*
X182630952Y-106404761D01*
X182773809Y-106452380D01*
X182869047Y-106452380D01*
X183011904Y-106404761D01*
X183059523Y-106357142D01*
X183059523Y-106023809D01*
X182869047Y-106023809D01*
X186488095Y-108952380D02*
X186488095Y-107952380D01*
X186726190Y-107952380D01*
X186869047Y-108000000D01*
X186964285Y-108095238D01*
X187011904Y-108190476D01*
X187059523Y-108380952D01*
X187059523Y-108523809D01*
X187011904Y-108714285D01*
X186964285Y-108809523D01*
X186869047Y-108904761D01*
X186726190Y-108952380D01*
X186488095Y-108952380D01*
%TO.C,J1*%
X215166666Y-115452380D02*
X215166666Y-116166666D01*
X215119047Y-116309523D01*
X215023809Y-116404761D01*
X214880952Y-116452380D01*
X214785714Y-116452380D01*
X216166666Y-116452380D02*
X215595238Y-116452380D01*
X215880952Y-116452380D02*
X215880952Y-115452380D01*
X215785714Y-115595238D01*
X215690476Y-115690476D01*
X215595238Y-115738095D01*
%TO.C,U1*%
X195369380Y-106044904D02*
X196178904Y-106044904D01*
X196274142Y-105997285D01*
X196321761Y-105949666D01*
X196369380Y-105854428D01*
X196369380Y-105663952D01*
X196321761Y-105568714D01*
X196274142Y-105521095D01*
X196178904Y-105473476D01*
X195369380Y-105473476D01*
X196369380Y-104473476D02*
X196369380Y-105044904D01*
X196369380Y-104759190D02*
X195369380Y-104759190D01*
X195512238Y-104854428D01*
X195607476Y-104949666D01*
X195655095Y-105044904D01*
%TO.C,J3*%
X177701666Y-111292380D02*
X177701666Y-112006666D01*
X177654047Y-112149523D01*
X177558809Y-112244761D01*
X177415952Y-112292380D01*
X177320714Y-112292380D01*
X178082619Y-111292380D02*
X178701666Y-111292380D01*
X178368333Y-111673333D01*
X178511190Y-111673333D01*
X178606428Y-111720952D01*
X178654047Y-111768571D01*
X178701666Y-111863809D01*
X178701666Y-112101904D01*
X178654047Y-112197142D01*
X178606428Y-112244761D01*
X178511190Y-112292380D01*
X178225476Y-112292380D01*
X178130238Y-112244761D01*
X178082619Y-112197142D01*
%TO.C,J2*%
X215476666Y-110952380D02*
X215476666Y-111666666D01*
X215429047Y-111809523D01*
X215333809Y-111904761D01*
X215190952Y-111952380D01*
X215095714Y-111952380D01*
X215905238Y-111047619D02*
X215952857Y-111000000D01*
X216048095Y-110952380D01*
X216286190Y-110952380D01*
X216381428Y-111000000D01*
X216429047Y-111047619D01*
X216476666Y-111142857D01*
X216476666Y-111238095D01*
X216429047Y-111380952D01*
X215857619Y-111952380D01*
X216476666Y-111952380D01*
D11*
%TO.C,J1*%
X214235000Y-117175000D02*
X214235000Y-111975000D01*
X193795000Y-117175000D02*
X193795000Y-115845000D01*
X196395000Y-114575000D02*
X193795000Y-114575000D01*
X193795000Y-114575000D02*
X193795000Y-111975000D01*
X196395000Y-117175000D02*
X196395000Y-114575000D01*
X195125000Y-117175000D02*
X193795000Y-117175000D01*
X196395000Y-117175000D02*
X214235000Y-117175000D01*
X193795000Y-111975000D02*
X214235000Y-111975000D01*
%TO.C,U1*%
X196917000Y-106283000D02*
X196917000Y-107933000D01*
X196917000Y-102633000D02*
X196917000Y-104283000D01*
X207257000Y-110423000D02*
X207257000Y-100143000D01*
X207257000Y-100143000D02*
X196857000Y-100143000D01*
X196917000Y-107933000D02*
X207197000Y-107933000D01*
X196857000Y-100143000D02*
X196857000Y-110423000D01*
X196857000Y-110423000D02*
X207257000Y-110423000D01*
X207197000Y-102633000D02*
X196917000Y-102633000D01*
X207197000Y-107933000D02*
X207197000Y-102633000D01*
X196917000Y-106283000D02*
G75*
G03*
X196917000Y-104283000I0J1000000D01*
G01*
%TO.C,J3*%
X177605000Y-117150000D02*
X177605000Y-118200000D01*
X189895000Y-117150000D02*
X189895000Y-118200000D01*
X188150000Y-113980000D02*
X179350000Y-113980000D01*
X188150000Y-113980000D02*
X188150000Y-113225000D01*
%TO.C,J2*%
X215810000Y-100460000D02*
X208190000Y-100460000D01*
X208190000Y-110620000D02*
X215810000Y-110620000D01*
X208190000Y-100460000D02*
X208190000Y-110620000D01*
X215810000Y-110620000D02*
X215810000Y-100460000D01*
X214540000Y-100460000D02*
X214540000Y-110620000D01*
%TD*%
M02*
