%TF.GenerationSoftware,KiCad,Pcbnew,6.0.2*%
%TF.CreationDate,2022-03-12T22:23:20+01:00*%
%TF.ProjectId,batteryController,62617474-6572-4794-936f-6e74726f6c6c,rev?*%
%TF.SameCoordinates,Original*%
%TF.FileFunction,Legend,Bot*%
%TF.FilePolarity,Positive*%
%FSLAX46Y46*%
G04 Gerber Fmt 4.6, Leading zero omitted, Abs format (unit mm)*
G04 Created by KiCad (PCBNEW 6.0.2) date 2022-03-12 22:23:20*
%MOMM*%
%LPD*%
G01*
G04 APERTURE LIST*
%ADD10C,0.150000*%
%ADD11C,0.120000*%
G04 APERTURE END LIST*
D10*
X175500000Y-100000000D02*
G75*
G03*
X173000000Y-102500000I0J-2500000D01*
G01*
X217000000Y-102000000D02*
X217000000Y-116000000D01*
X175500000Y-118000000D02*
X175750000Y-117500000D01*
X215000000Y-118000000D02*
X175500000Y-118000000D01*
X175500000Y-115500000D02*
X175250000Y-116000000D01*
X173000000Y-115500000D02*
G75*
G03*
X175500000Y-118000000I2500000J0D01*
G01*
X215000000Y-118000000D02*
G75*
G03*
X217000000Y-116000000I1J1999999D01*
G01*
X217000000Y-102000000D02*
G75*
G03*
X215000000Y-100000000I-1999999J1D01*
G01*
X175500000Y-115500000D02*
X175750000Y-116000000D01*
X175500000Y-100000000D02*
X215000000Y-100000000D01*
X175500000Y-118000000D02*
X175250000Y-117500000D01*
X175250000Y-117500000D02*
X175500000Y-118000000D01*
X173000000Y-115500000D02*
X173000000Y-102500000D01*
X175500000Y-115500000D02*
X175500000Y-118000000D01*
X176916666Y-113952380D02*
X176297619Y-113952380D01*
X176630952Y-114333333D01*
X176488095Y-114333333D01*
X176392857Y-114380952D01*
X176345238Y-114428571D01*
X176297619Y-114523809D01*
X176297619Y-114761904D01*
X176345238Y-114857142D01*
X176392857Y-114904761D01*
X176488095Y-114952380D01*
X176773809Y-114952380D01*
X176869047Y-114904761D01*
X176916666Y-114857142D01*
X175869047Y-114952380D02*
X175869047Y-114285714D01*
X175869047Y-114380952D02*
X175821428Y-114333333D01*
X175726190Y-114285714D01*
X175583333Y-114285714D01*
X175488095Y-114333333D01*
X175440476Y-114428571D01*
X175440476Y-114952380D01*
X175440476Y-114428571D02*
X175392857Y-114333333D01*
X175297619Y-114285714D01*
X175154761Y-114285714D01*
X175059523Y-114333333D01*
X175011904Y-114428571D01*
X175011904Y-114952380D01*
X174535714Y-114952380D02*
X174535714Y-114285714D01*
X174535714Y-114380952D02*
X174488095Y-114333333D01*
X174392857Y-114285714D01*
X174250000Y-114285714D01*
X174154761Y-114333333D01*
X174107142Y-114428571D01*
X174107142Y-114952380D01*
X174107142Y-114428571D02*
X174059523Y-114333333D01*
X173964285Y-114285714D01*
X173821428Y-114285714D01*
X173726190Y-114333333D01*
X173678571Y-114428571D01*
X173678571Y-114952380D01*
X190195238Y-112852380D02*
X190195238Y-111852380D01*
X189957142Y-111852380D01*
X189814285Y-111900000D01*
X189719047Y-111995238D01*
X189671428Y-112090476D01*
X189623809Y-112280952D01*
X189623809Y-112423809D01*
X189671428Y-112614285D01*
X189719047Y-112709523D01*
X189814285Y-112804761D01*
X189957142Y-112852380D01*
X190195238Y-112852380D01*
X188814285Y-112804761D02*
X188909523Y-112852380D01*
X189100000Y-112852380D01*
X189195238Y-112804761D01*
X189242857Y-112709523D01*
X189242857Y-112328571D01*
X189195238Y-112233333D01*
X189100000Y-112185714D01*
X188909523Y-112185714D01*
X188814285Y-112233333D01*
X188766666Y-112328571D01*
X188766666Y-112423809D01*
X189242857Y-112519047D01*
X188385714Y-112804761D02*
X188290476Y-112852380D01*
X188100000Y-112852380D01*
X188004761Y-112804761D01*
X187957142Y-112709523D01*
X187957142Y-112661904D01*
X188004761Y-112566666D01*
X188100000Y-112519047D01*
X188242857Y-112519047D01*
X188338095Y-112471428D01*
X188385714Y-112376190D01*
X188385714Y-112328571D01*
X188338095Y-112233333D01*
X188242857Y-112185714D01*
X188100000Y-112185714D01*
X188004761Y-112233333D01*
X187528571Y-112852380D02*
X187528571Y-112185714D01*
X187528571Y-111852380D02*
X187576190Y-111900000D01*
X187528571Y-111947619D01*
X187480952Y-111900000D01*
X187528571Y-111852380D01*
X187528571Y-111947619D01*
X186623809Y-112185714D02*
X186623809Y-112995238D01*
X186671428Y-113090476D01*
X186719047Y-113138095D01*
X186814285Y-113185714D01*
X186957142Y-113185714D01*
X187052380Y-113138095D01*
X186623809Y-112804761D02*
X186719047Y-112852380D01*
X186909523Y-112852380D01*
X187004761Y-112804761D01*
X187052380Y-112757142D01*
X187100000Y-112661904D01*
X187100000Y-112376190D01*
X187052380Y-112280952D01*
X187004761Y-112233333D01*
X186909523Y-112185714D01*
X186719047Y-112185714D01*
X186623809Y-112233333D01*
X186147619Y-112185714D02*
X186147619Y-112852380D01*
X186147619Y-112280952D02*
X186100000Y-112233333D01*
X186004761Y-112185714D01*
X185861904Y-112185714D01*
X185766666Y-112233333D01*
X185719047Y-112328571D01*
X185719047Y-112852380D01*
X184861904Y-112804761D02*
X184957142Y-112852380D01*
X185147619Y-112852380D01*
X185242857Y-112804761D01*
X185290476Y-112709523D01*
X185290476Y-112328571D01*
X185242857Y-112233333D01*
X185147619Y-112185714D01*
X184957142Y-112185714D01*
X184861904Y-112233333D01*
X184814285Y-112328571D01*
X184814285Y-112423809D01*
X185290476Y-112519047D01*
X183957142Y-112852380D02*
X183957142Y-111852380D01*
X183957142Y-112804761D02*
X184052380Y-112852380D01*
X184242857Y-112852380D01*
X184338095Y-112804761D01*
X184385714Y-112757142D01*
X184433333Y-112661904D01*
X184433333Y-112376190D01*
X184385714Y-112280952D01*
X184338095Y-112233333D01*
X184242857Y-112185714D01*
X184052380Y-112185714D01*
X183957142Y-112233333D01*
X182719047Y-112852380D02*
X182719047Y-111852380D01*
X182719047Y-112233333D02*
X182623809Y-112185714D01*
X182433333Y-112185714D01*
X182338095Y-112233333D01*
X182290476Y-112280952D01*
X182242857Y-112376190D01*
X182242857Y-112661904D01*
X182290476Y-112757142D01*
X182338095Y-112804761D01*
X182433333Y-112852380D01*
X182623809Y-112852380D01*
X182719047Y-112804761D01*
X181909523Y-112185714D02*
X181671428Y-112852380D01*
X181433333Y-112185714D02*
X181671428Y-112852380D01*
X181766666Y-113090476D01*
X181814285Y-113138095D01*
X181909523Y-113185714D01*
X180338095Y-112566666D02*
X179861904Y-112566666D01*
X180433333Y-112852380D02*
X180100000Y-111852380D01*
X179766666Y-112852380D01*
X179290476Y-112852380D02*
X179385714Y-112804761D01*
X179433333Y-112709523D01*
X179433333Y-111852380D01*
X178480952Y-112185714D02*
X178480952Y-112995238D01*
X178528571Y-113090476D01*
X178576190Y-113138095D01*
X178671428Y-113185714D01*
X178814285Y-113185714D01*
X178909523Y-113138095D01*
X178480952Y-112804761D02*
X178576190Y-112852380D01*
X178766666Y-112852380D01*
X178861904Y-112804761D01*
X178909523Y-112757142D01*
X178957142Y-112661904D01*
X178957142Y-112376190D01*
X178909523Y-112280952D01*
X178861904Y-112233333D01*
X178766666Y-112185714D01*
X178576190Y-112185714D01*
X178480952Y-112233333D01*
X177861904Y-112852380D02*
X177957142Y-112804761D01*
X178004761Y-112757142D01*
X178052380Y-112661904D01*
X178052380Y-112376190D01*
X178004761Y-112280952D01*
X177957142Y-112233333D01*
X177861904Y-112185714D01*
X177719047Y-112185714D01*
X177623809Y-112233333D01*
X177576190Y-112280952D01*
X177528571Y-112376190D01*
X177528571Y-112661904D01*
X177576190Y-112757142D01*
X177623809Y-112804761D01*
X177719047Y-112852380D01*
X177861904Y-112852380D01*
X177242857Y-112185714D02*
X176861904Y-112185714D01*
X177100000Y-111852380D02*
X177100000Y-112709523D01*
X177052380Y-112804761D01*
X176957142Y-112852380D01*
X176861904Y-112852380D01*
X215452380Y-106095238D02*
X215452380Y-105523809D01*
X215452380Y-105809523D02*
X214452380Y-105809523D01*
X214595238Y-105714285D01*
X214690476Y-105619047D01*
X214738095Y-105523809D01*
X214880952Y-106666666D02*
X214833333Y-106571428D01*
X214785714Y-106523809D01*
X214690476Y-106476190D01*
X214642857Y-106476190D01*
X214547619Y-106523809D01*
X214500000Y-106571428D01*
X214452380Y-106666666D01*
X214452380Y-106857142D01*
X214500000Y-106952380D01*
X214547619Y-107000000D01*
X214642857Y-107047619D01*
X214690476Y-107047619D01*
X214785714Y-107000000D01*
X214833333Y-106952380D01*
X214880952Y-106857142D01*
X214880952Y-106666666D01*
X214928571Y-106571428D01*
X214976190Y-106523809D01*
X215071428Y-106476190D01*
X215261904Y-106476190D01*
X215357142Y-106523809D01*
X215404761Y-106571428D01*
X215452380Y-106666666D01*
X215452380Y-106857142D01*
X215404761Y-106952380D01*
X215357142Y-107000000D01*
X215261904Y-107047619D01*
X215071428Y-107047619D01*
X214976190Y-107000000D01*
X214928571Y-106952380D01*
X214880952Y-106857142D01*
X215452380Y-108238095D02*
X214785714Y-108238095D01*
X214880952Y-108238095D02*
X214833333Y-108285714D01*
X214785714Y-108380952D01*
X214785714Y-108523809D01*
X214833333Y-108619047D01*
X214928571Y-108666666D01*
X215452380Y-108666666D01*
X214928571Y-108666666D02*
X214833333Y-108714285D01*
X214785714Y-108809523D01*
X214785714Y-108952380D01*
X214833333Y-109047619D01*
X214928571Y-109095238D01*
X215452380Y-109095238D01*
X215452380Y-109571428D02*
X214785714Y-109571428D01*
X214880952Y-109571428D02*
X214833333Y-109619047D01*
X214785714Y-109714285D01*
X214785714Y-109857142D01*
X214833333Y-109952380D01*
X214928571Y-110000000D01*
X215452380Y-110000000D01*
X214928571Y-110000000D02*
X214833333Y-110047619D01*
X214785714Y-110142857D01*
X214785714Y-110285714D01*
X214833333Y-110380952D01*
X214928571Y-110428571D01*
X215452380Y-110428571D01*
X213750000Y-100000000D02*
X213648581Y-100000000D01*
X213750000Y-118000000D02*
X213648581Y-118000000D01*
X214235001Y-100000000D02*
X214235001Y-104758333D01*
X214235001Y-111241666D02*
X214235001Y-118000000D01*
X214235001Y-100000000D02*
X213648580Y-101126504D01*
X214235001Y-100000000D02*
X214821422Y-101126504D01*
X214235001Y-118000000D02*
X214821422Y-116873496D01*
X214235001Y-118000000D02*
X213648580Y-116873496D01*
X209010000Y-110910714D02*
X209010000Y-111577380D01*
X209248095Y-110529761D02*
X209486190Y-111244047D01*
X208867142Y-111244047D01*
X208057619Y-110910714D02*
X208057619Y-111577380D01*
X208295714Y-110529761D02*
X208533809Y-111244047D01*
X207914761Y-111244047D01*
X206771904Y-111577380D02*
X206771904Y-110910714D01*
X206771904Y-111005952D02*
X206724285Y-110958333D01*
X206629047Y-110910714D01*
X206486190Y-110910714D01*
X206390952Y-110958333D01*
X206343333Y-111053571D01*
X206343333Y-111577380D01*
X206343333Y-111053571D02*
X206295714Y-110958333D01*
X206200476Y-110910714D01*
X206057619Y-110910714D01*
X205962380Y-110958333D01*
X205914761Y-111053571D01*
X205914761Y-111577380D01*
X205438571Y-111577380D02*
X205438571Y-110910714D01*
X205438571Y-111005952D02*
X205390952Y-110958333D01*
X205295714Y-110910714D01*
X205152857Y-110910714D01*
X205057619Y-110958333D01*
X205010000Y-111053571D01*
X205010000Y-111577380D01*
X205010000Y-111053571D02*
X204962380Y-110958333D01*
X204867142Y-110910714D01*
X204724285Y-110910714D01*
X204629047Y-110958333D01*
X204581428Y-111053571D01*
X204581428Y-111577380D01*
X173000000Y-111371000D02*
X173000000Y-112078865D01*
X217000000Y-111371000D02*
X217000000Y-112078865D01*
X173000000Y-111492445D02*
X203768334Y-111492445D01*
X210251667Y-111492445D02*
X217000000Y-111492445D01*
X173000000Y-111492445D02*
X174126504Y-112078866D01*
X173000000Y-111492445D02*
X174126504Y-110906024D01*
X217000000Y-111492445D02*
X215873496Y-110906024D01*
X217000000Y-111492445D02*
X215873496Y-112078866D01*
%TO.C,R1*%
X202952380Y-103632333D02*
X202476190Y-103299000D01*
X202952380Y-103060904D02*
X201952380Y-103060904D01*
X201952380Y-103441857D01*
X202000000Y-103537095D01*
X202047619Y-103584714D01*
X202142857Y-103632333D01*
X202285714Y-103632333D01*
X202380952Y-103584714D01*
X202428571Y-103537095D01*
X202476190Y-103441857D01*
X202476190Y-103060904D01*
X202952380Y-104584714D02*
X202952380Y-104013285D01*
X202952380Y-104299000D02*
X201952380Y-104299000D01*
X202095238Y-104203761D01*
X202190476Y-104108523D01*
X202238095Y-104013285D01*
%TO.C,R4*%
X199452380Y-106632333D02*
X198976190Y-106299000D01*
X199452380Y-106060904D02*
X198452380Y-106060904D01*
X198452380Y-106441857D01*
X198500000Y-106537095D01*
X198547619Y-106584714D01*
X198642857Y-106632333D01*
X198785714Y-106632333D01*
X198880952Y-106584714D01*
X198928571Y-106537095D01*
X198976190Y-106441857D01*
X198976190Y-106060904D01*
X198785714Y-107489476D02*
X199452380Y-107489476D01*
X198404761Y-107251380D02*
X199119047Y-107013285D01*
X199119047Y-107632333D01*
%TO.C,U3*%
X209261904Y-107952380D02*
X209261904Y-108761904D01*
X209214285Y-108857142D01*
X209166666Y-108904761D01*
X209071428Y-108952380D01*
X208880952Y-108952380D01*
X208785714Y-108904761D01*
X208738095Y-108857142D01*
X208690476Y-108761904D01*
X208690476Y-107952380D01*
X208309523Y-107952380D02*
X207690476Y-107952380D01*
X208023809Y-108333333D01*
X207880952Y-108333333D01*
X207785714Y-108380952D01*
X207738095Y-108428571D01*
X207690476Y-108523809D01*
X207690476Y-108761904D01*
X207738095Y-108857142D01*
X207785714Y-108904761D01*
X207880952Y-108952380D01*
X208166666Y-108952380D01*
X208261904Y-108904761D01*
X208309523Y-108857142D01*
%TO.C,R3*%
X197452380Y-106632333D02*
X196976190Y-106299000D01*
X197452380Y-106060904D02*
X196452380Y-106060904D01*
X196452380Y-106441857D01*
X196500000Y-106537095D01*
X196547619Y-106584714D01*
X196642857Y-106632333D01*
X196785714Y-106632333D01*
X196880952Y-106584714D01*
X196928571Y-106537095D01*
X196976190Y-106441857D01*
X196976190Y-106060904D01*
X196452380Y-106965666D02*
X196452380Y-107584714D01*
X196833333Y-107251380D01*
X196833333Y-107394238D01*
X196880952Y-107489476D01*
X196928571Y-107537095D01*
X197023809Y-107584714D01*
X197261904Y-107584714D01*
X197357142Y-107537095D01*
X197404761Y-107489476D01*
X197452380Y-107394238D01*
X197452380Y-107108523D01*
X197404761Y-107013285D01*
X197357142Y-106965666D01*
%TO.C,R2*%
X200952380Y-103632333D02*
X200476190Y-103299000D01*
X200952380Y-103060904D02*
X199952380Y-103060904D01*
X199952380Y-103441857D01*
X200000000Y-103537095D01*
X200047619Y-103584714D01*
X200142857Y-103632333D01*
X200285714Y-103632333D01*
X200380952Y-103584714D01*
X200428571Y-103537095D01*
X200476190Y-103441857D01*
X200476190Y-103060904D01*
X200047619Y-104013285D02*
X200000000Y-104060904D01*
X199952380Y-104156142D01*
X199952380Y-104394238D01*
X200000000Y-104489476D01*
X200047619Y-104537095D01*
X200142857Y-104584714D01*
X200238095Y-104584714D01*
X200380952Y-104537095D01*
X200952380Y-103965666D01*
X200952380Y-104584714D01*
%TO.C,U2*%
X179261904Y-109452380D02*
X179261904Y-110261904D01*
X179214285Y-110357142D01*
X179166666Y-110404761D01*
X179071428Y-110452380D01*
X178880952Y-110452380D01*
X178785714Y-110404761D01*
X178738095Y-110357142D01*
X178690476Y-110261904D01*
X178690476Y-109452380D01*
X178261904Y-109547619D02*
X178214285Y-109500000D01*
X178119047Y-109452380D01*
X177880952Y-109452380D01*
X177785714Y-109500000D01*
X177738095Y-109547619D01*
X177690476Y-109642857D01*
X177690476Y-109738095D01*
X177738095Y-109880952D01*
X178309523Y-110452380D01*
X177690476Y-110452380D01*
D11*
%TO.C,R1*%
X201977500Y-106536258D02*
X201977500Y-106061742D01*
X203022500Y-106536258D02*
X203022500Y-106061742D01*
%TO.C,R4*%
X199522500Y-104061742D02*
X199522500Y-104536258D01*
X198477500Y-104061742D02*
X198477500Y-104536258D01*
%TO.C,G\u002A\u002A\u002A*%
G36*
X184419523Y-113927252D02*
G01*
X184419047Y-113928660D01*
X184413469Y-113943228D01*
X184403181Y-113968870D01*
X184389160Y-114003190D01*
X184372385Y-114043790D01*
X184353832Y-114088275D01*
X184342289Y-114115840D01*
X184322834Y-114162327D01*
X184299158Y-114218925D01*
X184272175Y-114283446D01*
X184242799Y-114353704D01*
X184211945Y-114427512D01*
X184180528Y-114502682D01*
X184149461Y-114577028D01*
X184128141Y-114628053D01*
X184056192Y-114800217D01*
X183989968Y-114958625D01*
X183929394Y-115103460D01*
X183874392Y-115234906D01*
X183824886Y-115353147D01*
X183780800Y-115458365D01*
X183742055Y-115550745D01*
X183710168Y-115626743D01*
X183674483Y-115711825D01*
X183639523Y-115795207D01*
X183605932Y-115875355D01*
X183574351Y-115950735D01*
X183545424Y-116019813D01*
X183519793Y-116081054D01*
X183498101Y-116132925D01*
X183480990Y-116173890D01*
X183469103Y-116202416D01*
X183468060Y-116204923D01*
X183456992Y-116231479D01*
X183441263Y-116269149D01*
X183421932Y-116315401D01*
X183400059Y-116367700D01*
X183376702Y-116423513D01*
X183352921Y-116480308D01*
X183346024Y-116496797D01*
X183324108Y-116549524D01*
X183304199Y-116597907D01*
X183287074Y-116640023D01*
X183273512Y-116673947D01*
X183264291Y-116697757D01*
X183260189Y-116709530D01*
X183255288Y-116729057D01*
X182588400Y-116729057D01*
X182544659Y-116729056D01*
X182434051Y-116729032D01*
X182337340Y-116728966D01*
X182253605Y-116728839D01*
X182181923Y-116728631D01*
X182121370Y-116728325D01*
X182071025Y-116727902D01*
X182029965Y-116727344D01*
X181997267Y-116726632D01*
X181972009Y-116725748D01*
X181953268Y-116724674D01*
X181940122Y-116723390D01*
X181931647Y-116721879D01*
X181926922Y-116720122D01*
X181925024Y-116718100D01*
X181925029Y-116715796D01*
X181925632Y-116714157D01*
X181931107Y-116700545D01*
X181942024Y-116673885D01*
X181958106Y-116634848D01*
X181979074Y-116584104D01*
X182004649Y-116522325D01*
X182034553Y-116450181D01*
X182068506Y-116368345D01*
X182106230Y-116277487D01*
X182147446Y-116178278D01*
X182191876Y-116071390D01*
X182239241Y-115957493D01*
X182289262Y-115837258D01*
X182341661Y-115711358D01*
X182396158Y-115580462D01*
X182452475Y-115445242D01*
X182510334Y-115306369D01*
X183092121Y-113910203D01*
X184424897Y-113910203D01*
X184419523Y-113927252D01*
G37*
G36*
X184546132Y-114018167D02*
G01*
X184553930Y-114034460D01*
X184566829Y-114063131D01*
X184584439Y-114103262D01*
X184606369Y-114153938D01*
X184632227Y-114214242D01*
X184661621Y-114283257D01*
X184694162Y-114360067D01*
X184729457Y-114443755D01*
X184767115Y-114533405D01*
X184806745Y-114628101D01*
X184847955Y-114726926D01*
X184877019Y-114796736D01*
X184917698Y-114894415D01*
X184956706Y-114988046D01*
X184993627Y-115076632D01*
X185028047Y-115159181D01*
X185059550Y-115234698D01*
X185087722Y-115302189D01*
X185112147Y-115360658D01*
X185132411Y-115409113D01*
X185148099Y-115446558D01*
X185158795Y-115471999D01*
X185164085Y-115484442D01*
X185181442Y-115524224D01*
X184544574Y-115524224D01*
X184480463Y-115524195D01*
X184386646Y-115524046D01*
X184298098Y-115523778D01*
X184215917Y-115523401D01*
X184141201Y-115522924D01*
X184075049Y-115522359D01*
X184018560Y-115521715D01*
X183972832Y-115521001D01*
X183938963Y-115520227D01*
X183918052Y-115519404D01*
X183911198Y-115518541D01*
X183911373Y-115518224D01*
X183915899Y-115508204D01*
X183925301Y-115486433D01*
X183938737Y-115454916D01*
X183955365Y-115415655D01*
X183974342Y-115370654D01*
X183994827Y-115321916D01*
X184015977Y-115271446D01*
X184036949Y-115221246D01*
X184056903Y-115173319D01*
X184074995Y-115129671D01*
X184090382Y-115092303D01*
X184090829Y-115091214D01*
X184103564Y-115060350D01*
X184120960Y-115018457D01*
X184141844Y-114968344D01*
X184165045Y-114912820D01*
X184189391Y-114854695D01*
X184213708Y-114796778D01*
X184231899Y-114753473D01*
X184259479Y-114687728D01*
X184290418Y-114613897D01*
X184323324Y-114535308D01*
X184356803Y-114455284D01*
X184389464Y-114377152D01*
X184419915Y-114304236D01*
X184430099Y-114279862D01*
X184455383Y-114219588D01*
X184478732Y-114164261D01*
X184499500Y-114115390D01*
X184517041Y-114074484D01*
X184530709Y-114043050D01*
X184539860Y-114022598D01*
X184543848Y-114014635D01*
X184546132Y-114018167D01*
G37*
G36*
X185796051Y-115692825D02*
G01*
X185795684Y-115693762D01*
X185790280Y-115707114D01*
X185780007Y-115732190D01*
X185765669Y-115767038D01*
X185748071Y-115809704D01*
X185728017Y-115858236D01*
X185706312Y-115910680D01*
X185695820Y-115936010D01*
X185669750Y-115998952D01*
X185640060Y-116070632D01*
X185608239Y-116147458D01*
X185575773Y-116225841D01*
X185544149Y-116302189D01*
X185514856Y-116372911D01*
X185513005Y-116377379D01*
X185488422Y-116436470D01*
X185465505Y-116491121D01*
X185444938Y-116539736D01*
X185427402Y-116580719D01*
X185413581Y-116612474D01*
X185404157Y-116633405D01*
X185399813Y-116641915D01*
X185397318Y-116642608D01*
X185381071Y-116643964D01*
X185350012Y-116645268D01*
X185304372Y-116646518D01*
X185244380Y-116647710D01*
X185170265Y-116648841D01*
X185082258Y-116649908D01*
X184980587Y-116650906D01*
X184865482Y-116651834D01*
X184737173Y-116652687D01*
X184595890Y-116653462D01*
X184526337Y-116653812D01*
X184413894Y-116654389D01*
X184303510Y-116654971D01*
X184196493Y-116655550D01*
X184094153Y-116656117D01*
X183997801Y-116656666D01*
X183908745Y-116657189D01*
X183828297Y-116657679D01*
X183757764Y-116658126D01*
X183698457Y-116658525D01*
X183651686Y-116658868D01*
X183618760Y-116659146D01*
X183584845Y-116659362D01*
X183537816Y-116659277D01*
X183497615Y-116658741D01*
X183466323Y-116657804D01*
X183446022Y-116656512D01*
X183438793Y-116654917D01*
X183440978Y-116648476D01*
X183448414Y-116629424D01*
X183460479Y-116599456D01*
X183476508Y-116560199D01*
X183495838Y-116513280D01*
X183517802Y-116460326D01*
X183541738Y-116402963D01*
X183549836Y-116383612D01*
X183604101Y-116253964D01*
X183652674Y-116137968D01*
X183695538Y-116035666D01*
X183732674Y-115947099D01*
X183764066Y-115872310D01*
X183789695Y-115811340D01*
X183809544Y-115764232D01*
X183823595Y-115731027D01*
X183831832Y-115711769D01*
X183847443Y-115675775D01*
X185802618Y-115675775D01*
X185796051Y-115692825D01*
G37*
G36*
X185607665Y-116552203D02*
G01*
X185611609Y-116559891D01*
X185615517Y-116568575D01*
X185627479Y-116596027D01*
X185643339Y-116633230D01*
X185662449Y-116678602D01*
X185684160Y-116730561D01*
X185707823Y-116787523D01*
X185732790Y-116847906D01*
X185758412Y-116910127D01*
X185784041Y-116972604D01*
X185809029Y-117033754D01*
X185832725Y-117091993D01*
X185854483Y-117145740D01*
X185873653Y-117193412D01*
X185889588Y-117233425D01*
X185901637Y-117264198D01*
X185909153Y-117284148D01*
X185911488Y-117291691D01*
X185911223Y-117291824D01*
X185901037Y-117292644D01*
X185876927Y-117293427D01*
X185839955Y-117294163D01*
X185791183Y-117294846D01*
X185731673Y-117295465D01*
X185662489Y-117296013D01*
X185584693Y-117296480D01*
X185499346Y-117296858D01*
X185407513Y-117297139D01*
X185310255Y-117297314D01*
X185208635Y-117297374D01*
X185133693Y-117297361D01*
X185018514Y-117297271D01*
X184917265Y-117297089D01*
X184829180Y-117296803D01*
X184753489Y-117296405D01*
X184689424Y-117295882D01*
X184636215Y-117295226D01*
X184593094Y-117294426D01*
X184559292Y-117293472D01*
X184534040Y-117292352D01*
X184516569Y-117291058D01*
X184506111Y-117289578D01*
X184501897Y-117287902D01*
X184496689Y-117278323D01*
X184486742Y-117256810D01*
X184473074Y-117225604D01*
X184456485Y-117186674D01*
X184437776Y-117141992D01*
X184417748Y-117093530D01*
X184397202Y-117043259D01*
X184376941Y-116993151D01*
X184357764Y-116945177D01*
X184340473Y-116901309D01*
X184325869Y-116863517D01*
X184314754Y-116833775D01*
X184307928Y-116814052D01*
X184306193Y-116806321D01*
X184306347Y-116806237D01*
X184315992Y-116805337D01*
X184339497Y-116804389D01*
X184375682Y-116803410D01*
X184423366Y-116802418D01*
X184481369Y-116801434D01*
X184548509Y-116800474D01*
X184623607Y-116799558D01*
X184705482Y-116798704D01*
X184792953Y-116797930D01*
X184884839Y-116797255D01*
X184887794Y-116797235D01*
X184980857Y-116796528D01*
X185069284Y-116795686D01*
X185151908Y-116794731D01*
X185227559Y-116793684D01*
X185295069Y-116792566D01*
X185353268Y-116791398D01*
X185400987Y-116790202D01*
X185437058Y-116788999D01*
X185460312Y-116787810D01*
X185469580Y-116786656D01*
X185477169Y-116781746D01*
X185492332Y-116768771D01*
X185506508Y-116750917D01*
X185521165Y-116725818D01*
X185537771Y-116691106D01*
X185557794Y-116644416D01*
X185568772Y-116618054D01*
X185582607Y-116585482D01*
X185592363Y-116564259D01*
X185599092Y-116552737D01*
X185603842Y-116549268D01*
X185607665Y-116552203D01*
G37*
%TO.C,U3*%
X209200000Y-102870000D02*
X208060000Y-102870000D01*
X205340000Y-102640000D02*
X205340000Y-103950000D01*
X208060000Y-102640000D02*
X208060000Y-102870000D01*
X208060000Y-102640000D02*
X205340000Y-102640000D01*
X205340000Y-106050000D02*
X205340000Y-107360000D01*
X208060000Y-107360000D02*
X208060000Y-107130000D01*
X205340000Y-107360000D02*
X208060000Y-107360000D01*
%TO.C,R3*%
X197522500Y-104061742D02*
X197522500Y-104536258D01*
X196477500Y-104061742D02*
X196477500Y-104536258D01*
%TO.C,R2*%
X199977500Y-106536258D02*
X199977500Y-106061742D01*
X201022500Y-106536258D02*
X201022500Y-106061742D01*
%TO.C,U2*%
X195850000Y-100840000D02*
X179960000Y-100840000D01*
X195850000Y-111080000D02*
X195850000Y-100840000D01*
X195850000Y-111080000D02*
X179960000Y-111080000D01*
X179960000Y-111080000D02*
X179960000Y-100840000D01*
X179960000Y-105960000D02*
X177420000Y-105960000D01*
X179960000Y-108500000D02*
X177420000Y-108500000D01*
X179960000Y-103420000D02*
X177420000Y-103420000D01*
%TD*%
M02*
